G75*
%MOIN*%
%OFA0B0*%
%FSLAX25Y25*%
%IPPOS*%
%LPD*%
%AMOC8*
5,1,8,0,0,1.08239X$1,22.5*
%
%ADD10OC8,0.05200*%
%ADD11C,0.08850*%
%ADD12C,0.05000*%
%ADD13C,0.06000*%
%ADD14C,0.16598*%
%ADD15C,0.16200*%
%ADD16C,0.05150*%
%ADD17C,0.05150*%
%ADD18C,0.05600*%
%ADD19C,0.07400*%
%ADD20C,0.01040*%
%ADD21C,0.01600*%
%ADD22C,0.01000*%
%ADD23C,0.03200*%
D10*
X0051800Y0065000D03*
X0051800Y0075000D03*
X0051800Y0085000D03*
X0051800Y0115000D03*
X0099300Y0100000D03*
X0099300Y0085000D03*
X0129300Y0085000D03*
X0129300Y0100000D03*
X0124300Y0135000D03*
X0114300Y0135000D03*
X0134300Y0135000D03*
X0134300Y0165000D03*
X0124300Y0165000D03*
X0114300Y0165000D03*
X0094300Y0202500D03*
X0074300Y0202500D03*
X0074300Y0190000D03*
X0074300Y0180000D03*
X0074300Y0170000D03*
X0044300Y0170000D03*
X0034300Y0235000D03*
X0054300Y0235000D03*
X0121800Y0232500D03*
X0141800Y0232500D03*
X0181800Y0057500D03*
X0201800Y0057500D03*
X0086800Y0035000D03*
X0066800Y0035000D03*
D11*
X0029300Y0075575D02*
X0029300Y0084425D01*
X0029300Y0135575D02*
X0029300Y0144425D01*
D12*
X0116800Y0192500D02*
X0116800Y0197500D01*
X0121800Y0197500D02*
X0121800Y0192500D01*
X0126800Y0192500D02*
X0126800Y0197500D01*
X0131800Y0197500D02*
X0131800Y0192500D01*
D13*
X0126800Y0217000D02*
X0126800Y0223000D01*
X0136800Y0223000D02*
X0136800Y0217000D01*
X0146800Y0217000D02*
X0146800Y0223000D01*
X0156800Y0223000D02*
X0156800Y0217000D01*
X0166800Y0217000D02*
X0166800Y0223000D01*
X0176800Y0223000D02*
X0176800Y0217000D01*
X0186800Y0217000D02*
X0186800Y0223000D01*
X0196800Y0223000D02*
X0196800Y0217000D01*
X0104300Y0217000D02*
X0104300Y0223000D01*
X0094300Y0223000D02*
X0094300Y0217000D01*
X0084300Y0217000D02*
X0084300Y0223000D01*
X0074300Y0223000D02*
X0074300Y0217000D01*
X0064300Y0217000D02*
X0064300Y0223000D01*
X0054300Y0223000D02*
X0054300Y0217000D01*
X0044300Y0217000D02*
X0044300Y0223000D01*
X0034300Y0223000D02*
X0034300Y0217000D01*
X0024300Y0217000D02*
X0024300Y0223000D01*
X0024300Y0193000D02*
X0024300Y0187000D01*
X0034300Y0187000D02*
X0034300Y0193000D01*
X0044300Y0193000D02*
X0044300Y0187000D01*
X0054300Y0187000D02*
X0054300Y0193000D01*
D14*
X0029300Y0059637D03*
D15*
X0044109Y0047126D03*
X0029400Y0030815D03*
D16*
X0086725Y0045000D02*
X0091875Y0045000D01*
X0091875Y0055000D02*
X0086725Y0055000D01*
X0086725Y0065000D02*
X0091875Y0065000D01*
X0091875Y0075000D02*
X0086725Y0075000D01*
X0086725Y0085000D02*
X0091875Y0085000D01*
X0091875Y0095000D02*
X0086725Y0095000D01*
X0086725Y0105000D02*
X0091875Y0105000D01*
X0091875Y0115000D02*
X0086725Y0115000D01*
X0086725Y0125000D02*
X0091875Y0125000D01*
X0091875Y0135000D02*
X0086725Y0135000D01*
X0086725Y0145000D02*
X0091875Y0145000D01*
X0091875Y0155000D02*
X0086725Y0155000D01*
X0086725Y0165000D02*
X0091875Y0165000D01*
X0091875Y0175000D02*
X0086725Y0175000D01*
X0086725Y0185000D02*
X0091875Y0185000D01*
X0146725Y0185000D02*
X0151875Y0185000D01*
X0151875Y0175000D02*
X0146725Y0175000D01*
X0146725Y0165000D02*
X0151875Y0165000D01*
X0151875Y0155000D02*
X0146725Y0155000D01*
X0146725Y0145000D02*
X0151875Y0145000D01*
X0151875Y0135000D02*
X0146725Y0135000D01*
X0146725Y0125000D02*
X0151875Y0125000D01*
X0151875Y0115000D02*
X0146725Y0115000D01*
X0146725Y0105000D02*
X0151875Y0105000D01*
X0151875Y0095000D02*
X0146725Y0095000D01*
X0146725Y0085000D02*
X0151875Y0085000D01*
X0151875Y0075000D02*
X0146725Y0075000D01*
X0146725Y0065000D02*
X0151875Y0065000D01*
X0151875Y0055000D02*
X0146725Y0055000D01*
X0146725Y0045000D02*
X0151875Y0045000D01*
D17*
X0129300Y0040000D03*
X0129300Y0050000D03*
X0119300Y0050000D03*
X0119300Y0040000D03*
X0109300Y0040000D03*
X0109300Y0050000D03*
D18*
X0174300Y0071378D03*
X0174300Y0079252D03*
X0174300Y0087126D03*
X0174300Y0095000D03*
X0174300Y0102874D03*
X0174300Y0110748D03*
X0174300Y0118622D03*
X0235550Y0118622D03*
X0235550Y0110748D03*
X0235550Y0102874D03*
X0235550Y0095000D03*
X0235550Y0087126D03*
X0235550Y0079252D03*
X0235550Y0071378D03*
D19*
X0226800Y0140000D03*
X0216800Y0140000D03*
X0206800Y0140000D03*
X0196800Y0140000D03*
X0186800Y0140000D03*
X0176800Y0140000D03*
X0176800Y0180000D03*
X0186800Y0180000D03*
X0196800Y0180000D03*
X0206800Y0180000D03*
X0216800Y0180000D03*
X0226800Y0180000D03*
D20*
X0184812Y0204230D02*
X0184292Y0203710D01*
X0184292Y0205432D01*
X0185510Y0206650D01*
X0187232Y0206650D01*
X0188450Y0205432D01*
X0188450Y0203710D01*
X0187232Y0202492D01*
X0185510Y0202492D01*
X0184292Y0203710D01*
X0185072Y0204033D01*
X0185072Y0205109D01*
X0185833Y0205870D01*
X0186909Y0205870D01*
X0187670Y0205109D01*
X0187670Y0204033D01*
X0186909Y0203272D01*
X0185833Y0203272D01*
X0185072Y0204033D01*
X0185852Y0204356D01*
X0185852Y0204786D01*
X0186156Y0205090D01*
X0186586Y0205090D01*
X0186890Y0204786D01*
X0186890Y0204356D01*
X0186586Y0204052D01*
X0186156Y0204052D01*
X0185852Y0204356D01*
X0170670Y0190088D02*
X0170150Y0189568D01*
X0170150Y0191290D01*
X0171368Y0192508D01*
X0173090Y0192508D01*
X0174308Y0191290D01*
X0174308Y0189568D01*
X0173090Y0188350D01*
X0171368Y0188350D01*
X0170150Y0189568D01*
X0170930Y0189891D01*
X0170930Y0190967D01*
X0171691Y0191728D01*
X0172767Y0191728D01*
X0173528Y0190967D01*
X0173528Y0189891D01*
X0172767Y0189130D01*
X0171691Y0189130D01*
X0170930Y0189891D01*
X0171710Y0190214D01*
X0171710Y0190644D01*
X0172014Y0190948D01*
X0172444Y0190948D01*
X0172748Y0190644D01*
X0172748Y0190214D01*
X0172444Y0189910D01*
X0172014Y0189910D01*
X0171710Y0190214D01*
D21*
X0019100Y0052706D02*
X0019100Y0024800D01*
X0021534Y0024800D01*
X0021313Y0025077D01*
X0020722Y0026019D01*
X0020239Y0027020D01*
X0019872Y0028070D01*
X0019624Y0029154D01*
X0019527Y0030015D01*
X0028600Y0030015D01*
X0028600Y0031615D01*
X0028600Y0040687D01*
X0027739Y0040590D01*
X0026655Y0040343D01*
X0025605Y0039976D01*
X0024604Y0039493D01*
X0023662Y0038902D01*
X0022793Y0038208D01*
X0022007Y0037422D01*
X0021313Y0036553D01*
X0020722Y0035611D01*
X0020239Y0034609D01*
X0019872Y0033560D01*
X0019624Y0032476D01*
X0019527Y0031615D01*
X0028600Y0031615D01*
X0030200Y0031615D01*
X0030200Y0040687D01*
X0031061Y0040590D01*
X0032145Y0040343D01*
X0033195Y0039976D01*
X0034196Y0039493D01*
X0035138Y0038902D01*
X0036007Y0038208D01*
X0036793Y0037422D01*
X0037487Y0036553D01*
X0038078Y0035611D01*
X0038561Y0034609D01*
X0038928Y0033560D01*
X0039175Y0032476D01*
X0039272Y0031615D01*
X0030200Y0031615D01*
X0030200Y0030015D01*
X0039272Y0030015D01*
X0039175Y0029154D01*
X0038928Y0028070D01*
X0038561Y0027020D01*
X0038078Y0026019D01*
X0037487Y0025077D01*
X0037266Y0024800D01*
X0238201Y0024800D01*
X0238201Y0065116D01*
X0236903Y0064578D01*
X0234197Y0064578D01*
X0231698Y0065613D01*
X0229785Y0067526D01*
X0228750Y0070025D01*
X0228750Y0072731D01*
X0229785Y0075230D01*
X0229870Y0075315D01*
X0229785Y0075400D01*
X0228750Y0077899D01*
X0228750Y0080605D01*
X0229785Y0083104D01*
X0229870Y0083189D01*
X0229785Y0083274D01*
X0228750Y0085773D01*
X0228750Y0088479D01*
X0229785Y0090978D01*
X0229870Y0091063D01*
X0229785Y0091148D01*
X0228750Y0093647D01*
X0228750Y0096353D01*
X0229308Y0097700D01*
X0205845Y0097700D01*
X0204081Y0098431D01*
X0187400Y0115112D01*
X0187400Y0079820D01*
X0203120Y0064100D01*
X0204534Y0064100D01*
X0208400Y0060234D01*
X0208400Y0054766D01*
X0206600Y0052966D01*
X0206600Y0044045D01*
X0205869Y0042281D01*
X0190869Y0027281D01*
X0189519Y0025931D01*
X0187755Y0025200D01*
X0145845Y0025200D01*
X0144081Y0025931D01*
X0134305Y0035707D01*
X0133024Y0034426D01*
X0130608Y0033425D01*
X0127992Y0033425D01*
X0125576Y0034426D01*
X0124300Y0035702D01*
X0123024Y0034426D01*
X0120608Y0033425D01*
X0117992Y0033425D01*
X0115576Y0034426D01*
X0114300Y0035702D01*
X0113024Y0034426D01*
X0110608Y0033425D01*
X0107992Y0033425D01*
X0105576Y0034426D01*
X0103726Y0036276D01*
X0102725Y0038692D01*
X0102725Y0039400D01*
X0095536Y0039400D01*
X0093183Y0038425D01*
X0092709Y0038425D01*
X0093400Y0037734D01*
X0093400Y0032266D01*
X0089534Y0028400D01*
X0084066Y0028400D01*
X0080200Y0032266D01*
X0080200Y0037734D01*
X0081200Y0038734D01*
X0081200Y0039400D01*
X0078186Y0039400D01*
X0076128Y0040253D01*
X0074553Y0041828D01*
X0064553Y0051828D01*
X0063700Y0053886D01*
X0063700Y0059400D01*
X0055534Y0059400D01*
X0054534Y0058400D01*
X0049066Y0058400D01*
X0045200Y0062266D01*
X0045200Y0067734D01*
X0047466Y0070000D01*
X0045200Y0072266D01*
X0045200Y0077734D01*
X0046200Y0078734D01*
X0046200Y0081266D01*
X0045200Y0082266D01*
X0045200Y0087734D01*
X0049066Y0091600D01*
X0054534Y0091600D01*
X0058400Y0087734D01*
X0058400Y0082266D01*
X0057400Y0081266D01*
X0057400Y0078734D01*
X0058400Y0077734D01*
X0058400Y0072266D01*
X0056734Y0070600D01*
X0063700Y0070600D01*
X0063700Y0115180D01*
X0044480Y0134400D01*
X0037725Y0134400D01*
X0037725Y0133899D01*
X0036442Y0130803D01*
X0034072Y0128433D01*
X0030976Y0127150D01*
X0027624Y0127150D01*
X0024528Y0128433D01*
X0022158Y0130803D01*
X0020875Y0133899D01*
X0020875Y0146101D01*
X0022158Y0149197D01*
X0023700Y0150740D01*
X0023700Y0158614D01*
X0024553Y0160672D01*
X0028700Y0164820D01*
X0028700Y0181501D01*
X0028265Y0181066D01*
X0025692Y0180000D01*
X0022908Y0180000D01*
X0020335Y0181066D01*
X0019100Y0182301D01*
X0019100Y0066568D01*
X0019458Y0067189D01*
X0021748Y0069479D01*
X0022847Y0070113D01*
X0022158Y0070803D01*
X0020875Y0073899D01*
X0020875Y0086101D01*
X0022158Y0089197D01*
X0024528Y0091567D01*
X0027624Y0092850D01*
X0030976Y0092850D01*
X0034072Y0091567D01*
X0036442Y0089197D01*
X0037725Y0086101D01*
X0037725Y0073899D01*
X0036442Y0070803D01*
X0035753Y0070113D01*
X0036852Y0069479D01*
X0039142Y0067189D01*
X0040761Y0064384D01*
X0041599Y0061256D01*
X0041599Y0058018D01*
X0041220Y0056604D01*
X0041364Y0056654D01*
X0042449Y0056901D01*
X0043309Y0056998D01*
X0043309Y0047926D01*
X0043309Y0046326D01*
X0034237Y0046326D01*
X0034334Y0045465D01*
X0034581Y0044381D01*
X0034949Y0043331D01*
X0035431Y0042330D01*
X0036023Y0041388D01*
X0036716Y0040519D01*
X0037502Y0039732D01*
X0038372Y0039039D01*
X0039313Y0038448D01*
X0040315Y0037965D01*
X0041364Y0037598D01*
X0042449Y0037350D01*
X0043309Y0037253D01*
X0043309Y0046326D01*
X0044909Y0046326D01*
X0044909Y0037253D01*
X0045770Y0037350D01*
X0046854Y0037598D01*
X0047904Y0037965D01*
X0048906Y0038448D01*
X0049847Y0039039D01*
X0050717Y0039732D01*
X0051503Y0040519D01*
X0052196Y0041388D01*
X0052788Y0042330D01*
X0053270Y0043331D01*
X0053638Y0044381D01*
X0053885Y0045465D01*
X0053982Y0046326D01*
X0044909Y0046326D01*
X0044909Y0047926D01*
X0043309Y0047926D01*
X0034237Y0047926D01*
X0034280Y0048310D01*
X0034047Y0048176D01*
X0030919Y0047338D01*
X0027681Y0047338D01*
X0024553Y0048176D01*
X0021748Y0049795D01*
X0019458Y0052085D01*
X0019100Y0052706D01*
X0019100Y0051970D02*
X0019573Y0051970D01*
X0019100Y0050372D02*
X0021172Y0050372D01*
X0019100Y0048773D02*
X0023518Y0048773D01*
X0019100Y0047175D02*
X0043309Y0047175D01*
X0043309Y0048773D02*
X0044909Y0048773D01*
X0044909Y0047926D02*
X0044909Y0056998D01*
X0045770Y0056901D01*
X0046854Y0056654D01*
X0047904Y0056287D01*
X0048906Y0055804D01*
X0049847Y0055213D01*
X0050717Y0054519D01*
X0051503Y0053733D01*
X0052196Y0052864D01*
X0052788Y0051922D01*
X0053270Y0050921D01*
X0053638Y0049871D01*
X0053885Y0048787D01*
X0053982Y0047926D01*
X0044909Y0047926D01*
X0044909Y0047175D02*
X0069206Y0047175D01*
X0067607Y0048773D02*
X0053886Y0048773D01*
X0053462Y0050372D02*
X0066009Y0050372D01*
X0064494Y0051970D02*
X0052758Y0051970D01*
X0051634Y0053569D02*
X0063831Y0053569D01*
X0063700Y0055167D02*
X0049904Y0055167D01*
X0046365Y0056766D02*
X0063700Y0056766D01*
X0063700Y0058364D02*
X0041599Y0058364D01*
X0041599Y0059963D02*
X0047503Y0059963D01*
X0045905Y0061561D02*
X0041517Y0061561D01*
X0041089Y0063160D02*
X0045200Y0063160D01*
X0045200Y0064758D02*
X0040545Y0064758D01*
X0039622Y0066357D02*
X0045200Y0066357D01*
X0045422Y0067955D02*
X0038375Y0067955D01*
X0036722Y0069554D02*
X0047020Y0069554D01*
X0046314Y0071152D02*
X0036587Y0071152D01*
X0037249Y0072751D02*
X0045200Y0072751D01*
X0045200Y0074349D02*
X0037725Y0074349D01*
X0037725Y0075948D02*
X0045200Y0075948D01*
X0045200Y0077546D02*
X0037725Y0077546D01*
X0037725Y0079145D02*
X0046200Y0079145D01*
X0046200Y0080743D02*
X0037725Y0080743D01*
X0037725Y0082342D02*
X0045200Y0082342D01*
X0045200Y0083940D02*
X0037725Y0083940D01*
X0037725Y0085539D02*
X0045200Y0085539D01*
X0045200Y0087137D02*
X0037296Y0087137D01*
X0036633Y0088736D02*
X0046202Y0088736D01*
X0047801Y0090334D02*
X0035305Y0090334D01*
X0033190Y0091933D02*
X0063700Y0091933D01*
X0063700Y0090334D02*
X0055799Y0090334D01*
X0057398Y0088736D02*
X0063700Y0088736D01*
X0063700Y0087137D02*
X0058400Y0087137D01*
X0058400Y0085539D02*
X0063700Y0085539D01*
X0063700Y0083940D02*
X0058400Y0083940D01*
X0058400Y0082342D02*
X0063700Y0082342D01*
X0063700Y0080743D02*
X0057400Y0080743D01*
X0057400Y0079145D02*
X0063700Y0079145D01*
X0063700Y0077546D02*
X0058400Y0077546D01*
X0058400Y0075948D02*
X0063700Y0075948D01*
X0063700Y0074349D02*
X0058400Y0074349D01*
X0058400Y0072751D02*
X0063700Y0072751D01*
X0063700Y0071152D02*
X0057286Y0071152D01*
X0044909Y0056766D02*
X0043309Y0056766D01*
X0041854Y0056766D02*
X0041264Y0056766D01*
X0043309Y0055167D02*
X0044909Y0055167D01*
X0044909Y0053569D02*
X0043309Y0053569D01*
X0043309Y0051970D02*
X0044909Y0051970D01*
X0044909Y0050372D02*
X0043309Y0050372D01*
X0043309Y0045576D02*
X0044909Y0045576D01*
X0044909Y0043978D02*
X0043309Y0043978D01*
X0043309Y0042379D02*
X0044909Y0042379D01*
X0044909Y0040781D02*
X0043309Y0040781D01*
X0043309Y0039182D02*
X0044909Y0039182D01*
X0044909Y0037584D02*
X0043309Y0037584D01*
X0041427Y0037584D02*
X0036632Y0037584D01*
X0037843Y0035985D02*
X0062400Y0035985D01*
X0062400Y0036823D02*
X0062400Y0035000D01*
X0066800Y0035000D01*
X0066800Y0032500D01*
X0071800Y0027500D01*
X0126800Y0027500D01*
X0134300Y0035000D01*
X0134300Y0032500D01*
X0135625Y0034387D02*
X0132929Y0034387D01*
X0134300Y0035000D02*
X0134300Y0087500D01*
X0129300Y0092500D01*
X0129300Y0100000D01*
X0129300Y0095600D01*
X0131123Y0095600D01*
X0133700Y0098177D01*
X0133700Y0098812D01*
X0134387Y0098125D01*
X0133981Y0097719D01*
X0133250Y0095955D01*
X0133250Y0090384D01*
X0132034Y0091600D01*
X0126566Y0091600D01*
X0122700Y0087734D01*
X0122700Y0086320D01*
X0119553Y0083172D01*
X0119100Y0082080D01*
X0119100Y0103012D01*
X0121288Y0105200D01*
X0127312Y0105200D01*
X0128112Y0104400D01*
X0127477Y0104400D01*
X0124900Y0101823D01*
X0124900Y0100000D01*
X0129300Y0100000D01*
X0129300Y0100000D01*
X0129300Y0100000D01*
X0129300Y0095600D01*
X0127477Y0095600D01*
X0124900Y0098177D01*
X0124900Y0100000D01*
X0129300Y0100000D01*
X0129300Y0099926D02*
X0129300Y0099926D01*
X0129300Y0098327D02*
X0129300Y0098327D01*
X0129300Y0096729D02*
X0129300Y0096729D01*
X0132251Y0096729D02*
X0133571Y0096729D01*
X0133700Y0098327D02*
X0134185Y0098327D01*
X0133250Y0095130D02*
X0119100Y0095130D01*
X0119100Y0093532D02*
X0133250Y0093532D01*
X0133250Y0091933D02*
X0119100Y0091933D01*
X0119100Y0090334D02*
X0125301Y0090334D01*
X0123702Y0088736D02*
X0119100Y0088736D01*
X0119100Y0087137D02*
X0122700Y0087137D01*
X0121919Y0085539D02*
X0119100Y0085539D01*
X0119100Y0083940D02*
X0120321Y0083940D01*
X0119209Y0082342D02*
X0119100Y0082342D01*
X0109300Y0076250D02*
X0109300Y0096250D01*
X0110550Y0097500D01*
X0110550Y0106250D01*
X0111800Y0107500D01*
X0111800Y0125000D01*
X0109300Y0127500D01*
X0109300Y0145000D01*
X0111800Y0147500D01*
X0121800Y0147500D01*
X0129300Y0155000D01*
X0129300Y0182500D01*
X0126800Y0185000D01*
X0126800Y0195000D01*
X0126800Y0202500D01*
X0129300Y0205000D01*
X0141800Y0205000D01*
X0151800Y0215000D01*
X0151800Y0227500D01*
X0154300Y0230000D01*
X0159300Y0230000D01*
X0161800Y0227500D01*
X0161800Y0202500D01*
X0159300Y0200000D01*
X0151800Y0200000D01*
X0141800Y0190000D01*
X0141800Y0172500D01*
X0144300Y0170000D01*
X0154300Y0170000D01*
X0156800Y0167500D01*
X0184300Y0167500D01*
X0196800Y0180000D01*
X0191800Y0185889D02*
X0191505Y0186185D01*
X0190869Y0187719D01*
X0189519Y0189069D01*
X0188388Y0190200D01*
X0209812Y0190200D01*
X0212000Y0188012D01*
X0212000Y0186089D01*
X0210272Y0184362D01*
X0210245Y0184296D01*
X0209683Y0184704D01*
X0208911Y0185097D01*
X0208088Y0185365D01*
X0207233Y0185500D01*
X0207000Y0185500D01*
X0207000Y0180200D01*
X0206600Y0180200D01*
X0206600Y0185500D01*
X0206367Y0185500D01*
X0205512Y0185365D01*
X0204689Y0185097D01*
X0203917Y0184704D01*
X0203355Y0184296D01*
X0203328Y0184362D01*
X0201162Y0186528D01*
X0198332Y0187700D01*
X0195268Y0187700D01*
X0192438Y0186528D01*
X0191800Y0185889D01*
X0191480Y0186245D02*
X0192156Y0186245D01*
X0191800Y0187500D02*
X0171800Y0207500D01*
X0171800Y0230000D01*
X0166800Y0235000D01*
X0166713Y0235799D02*
X0144723Y0235799D01*
X0143623Y0236900D02*
X0146200Y0234323D01*
X0146200Y0232500D01*
X0141800Y0232500D01*
X0141800Y0232500D01*
X0141800Y0236900D01*
X0143623Y0236900D01*
X0141800Y0236900D02*
X0139977Y0236900D01*
X0137400Y0234323D01*
X0137400Y0232500D01*
X0141800Y0232500D01*
X0141800Y0232500D01*
X0141800Y0232500D01*
X0141800Y0236900D01*
X0141800Y0235799D02*
X0141800Y0235799D01*
X0141800Y0234201D02*
X0141800Y0234201D01*
X0141800Y0232602D02*
X0141800Y0232602D01*
X0141800Y0232500D02*
X0137400Y0232500D01*
X0137400Y0230677D01*
X0138077Y0230000D01*
X0135408Y0230000D01*
X0132835Y0228934D01*
X0131800Y0227899D01*
X0130765Y0228934D01*
X0128868Y0229720D01*
X0128400Y0230188D01*
X0128400Y0235234D01*
X0124534Y0239100D01*
X0119488Y0239100D01*
X0110888Y0247700D01*
X0154812Y0247700D01*
X0172000Y0230512D01*
X0172000Y0228099D01*
X0171800Y0227899D01*
X0170765Y0228934D01*
X0168192Y0230000D01*
X0165960Y0230000D01*
X0165869Y0230219D01*
X0164519Y0231569D01*
X0162019Y0234069D01*
X0160255Y0234800D01*
X0153345Y0234800D01*
X0151581Y0234069D01*
X0150231Y0232719D01*
X0147731Y0230219D01*
X0147000Y0228455D01*
X0147000Y0220200D01*
X0146600Y0220200D01*
X0146600Y0227800D01*
X0146422Y0227800D01*
X0145676Y0227682D01*
X0144957Y0227448D01*
X0144284Y0227105D01*
X0143673Y0226661D01*
X0143139Y0226127D01*
X0143102Y0226077D01*
X0142734Y0226965D01*
X0141599Y0228100D01*
X0141800Y0228100D01*
X0143623Y0228100D01*
X0146200Y0230677D01*
X0146200Y0232500D01*
X0141800Y0232500D01*
X0141800Y0228100D01*
X0141800Y0232500D01*
X0141800Y0232500D01*
X0141800Y0231003D02*
X0141800Y0231003D01*
X0141800Y0229405D02*
X0141800Y0229405D01*
X0141893Y0227806D02*
X0147000Y0227806D01*
X0147000Y0226208D02*
X0146600Y0226208D01*
X0146600Y0224609D02*
X0147000Y0224609D01*
X0147000Y0223011D02*
X0146600Y0223011D01*
X0146600Y0221412D02*
X0147000Y0221412D01*
X0143220Y0226208D02*
X0143048Y0226208D01*
X0144928Y0229405D02*
X0147394Y0229405D01*
X0148515Y0231003D02*
X0146200Y0231003D01*
X0146200Y0232602D02*
X0150114Y0232602D01*
X0151898Y0234201D02*
X0146200Y0234201D01*
X0138877Y0235799D02*
X0127835Y0235799D01*
X0128400Y0234201D02*
X0137400Y0234201D01*
X0137400Y0232602D02*
X0128400Y0232602D01*
X0128400Y0231003D02*
X0137400Y0231003D01*
X0133971Y0229405D02*
X0129629Y0229405D01*
X0126800Y0225000D02*
X0120550Y0231250D01*
X0121800Y0232500D01*
X0120550Y0231250D02*
X0104300Y0247500D01*
X0044300Y0247500D01*
X0034300Y0237500D01*
X0034300Y0235000D01*
X0034300Y0220000D01*
X0029300Y0215000D02*
X0034300Y0210000D01*
X0039300Y0215000D01*
X0039300Y0232500D01*
X0046800Y0240000D01*
X0099300Y0240000D01*
X0109300Y0230000D01*
X0109300Y0212500D01*
X0106800Y0210000D01*
X0106800Y0197500D01*
X0094300Y0185000D01*
X0089300Y0185000D01*
X0084300Y0180000D02*
X0099300Y0180000D01*
X0097449Y0178724D02*
X0096173Y0180000D01*
X0097449Y0181276D01*
X0097509Y0181420D01*
X0109500Y0193412D01*
X0109500Y0169534D01*
X0107700Y0167734D01*
X0107700Y0162266D01*
X0111566Y0158400D01*
X0117034Y0158400D01*
X0119300Y0160666D01*
X0121566Y0158400D01*
X0124500Y0158400D01*
X0124500Y0156988D01*
X0119812Y0152300D01*
X0110845Y0152300D01*
X0109081Y0151569D01*
X0108050Y0150538D01*
X0107019Y0151569D01*
X0100869Y0157719D01*
X0099519Y0159069D01*
X0097755Y0159800D01*
X0096373Y0159800D01*
X0096173Y0160000D01*
X0097449Y0161276D01*
X0098450Y0163692D01*
X0098450Y0166308D01*
X0097449Y0168724D01*
X0096173Y0170000D01*
X0097449Y0171276D01*
X0098450Y0173692D01*
X0098450Y0176308D01*
X0097449Y0178724D01*
X0097644Y0178253D02*
X0109500Y0178253D01*
X0109500Y0179851D02*
X0096322Y0179851D01*
X0097538Y0181450D02*
X0109500Y0181450D01*
X0109500Y0183048D02*
X0099136Y0183048D01*
X0100735Y0184647D02*
X0109500Y0184647D01*
X0109500Y0186245D02*
X0102333Y0186245D01*
X0103932Y0187844D02*
X0109500Y0187844D01*
X0109500Y0189442D02*
X0105530Y0189442D01*
X0107129Y0191041D02*
X0109500Y0191041D01*
X0109500Y0192639D02*
X0108727Y0192639D01*
X0114300Y0192500D02*
X0116800Y0195000D01*
X0114300Y0192500D02*
X0114300Y0165000D01*
X0107700Y0165465D02*
X0098450Y0165465D01*
X0098450Y0163866D02*
X0107700Y0163866D01*
X0107700Y0162268D02*
X0097859Y0162268D01*
X0096842Y0160669D02*
X0109297Y0160669D01*
X0110896Y0159070D02*
X0099516Y0159070D01*
X0101116Y0157472D02*
X0124500Y0157472D01*
X0123385Y0155873D02*
X0102715Y0155873D01*
X0104300Y0155000D02*
X0101800Y0157500D01*
X0104313Y0154275D02*
X0121787Y0154275D01*
X0120188Y0152676D02*
X0105912Y0152676D01*
X0107510Y0151078D02*
X0108590Y0151078D01*
X0104300Y0147500D02*
X0104300Y0126250D01*
X0106800Y0123750D01*
X0106800Y0101250D01*
X0104300Y0098750D01*
X0104300Y0080000D01*
X0081800Y0080000D01*
X0079300Y0077500D01*
X0079300Y0062500D01*
X0081800Y0060000D01*
X0104300Y0060000D01*
X0114300Y0070000D01*
X0114300Y0105000D01*
X0119300Y0110000D01*
X0129300Y0110000D01*
X0139300Y0100000D01*
X0139300Y0096250D01*
X0138050Y0095000D01*
X0138050Y0038750D01*
X0146800Y0030000D01*
X0186800Y0030000D01*
X0201800Y0045000D01*
X0201800Y0057500D01*
X0197000Y0052966D02*
X0197000Y0046988D01*
X0184812Y0034800D01*
X0148788Y0034800D01*
X0144983Y0038605D01*
X0145417Y0038425D01*
X0153183Y0038425D01*
X0155599Y0039426D01*
X0157449Y0041276D01*
X0158450Y0043692D01*
X0158450Y0046308D01*
X0157449Y0048724D01*
X0156173Y0050000D01*
X0157449Y0051276D01*
X0158450Y0053692D01*
X0158450Y0056308D01*
X0157449Y0058724D01*
X0156173Y0060000D01*
X0157449Y0061276D01*
X0158450Y0063692D01*
X0158450Y0066308D01*
X0157449Y0068724D01*
X0155599Y0070574D01*
X0154069Y0071208D01*
X0154168Y0071258D01*
X0154725Y0071663D01*
X0155212Y0072150D01*
X0155616Y0072707D01*
X0155929Y0073321D01*
X0156142Y0073976D01*
X0156250Y0074656D01*
X0156250Y0075000D01*
X0156250Y0075344D01*
X0156142Y0076024D01*
X0155929Y0076679D01*
X0155616Y0077293D01*
X0155212Y0077850D01*
X0154725Y0078337D01*
X0154168Y0078742D01*
X0154069Y0078792D01*
X0155599Y0079426D01*
X0156373Y0080200D01*
X0162755Y0080200D01*
X0164519Y0080931D01*
X0168045Y0084457D01*
X0168535Y0083274D01*
X0168620Y0083189D01*
X0168535Y0083104D01*
X0167500Y0080605D01*
X0167500Y0077899D01*
X0168535Y0075400D01*
X0170292Y0073644D01*
X0170037Y0073144D01*
X0169813Y0072455D01*
X0169700Y0071740D01*
X0169700Y0071378D01*
X0174300Y0071378D01*
X0178900Y0071378D01*
X0178900Y0071740D01*
X0178787Y0072455D01*
X0178720Y0072660D01*
X0195200Y0056180D01*
X0195200Y0054766D01*
X0197000Y0052966D01*
X0196397Y0053569D02*
X0184091Y0053569D01*
X0183623Y0053100D02*
X0186200Y0055677D01*
X0186200Y0057500D01*
X0186200Y0059323D01*
X0183623Y0061900D01*
X0181800Y0061900D01*
X0181800Y0057500D01*
X0186200Y0057500D01*
X0181800Y0057500D01*
X0181800Y0057500D01*
X0181800Y0057500D01*
X0181800Y0053100D01*
X0183623Y0053100D01*
X0181800Y0053100D02*
X0181800Y0057500D01*
X0181800Y0057500D01*
X0181800Y0057500D01*
X0177400Y0057500D01*
X0177400Y0059323D01*
X0179977Y0061900D01*
X0181800Y0061900D01*
X0181800Y0057500D01*
X0177400Y0057500D01*
X0177400Y0055677D01*
X0179977Y0053100D01*
X0181800Y0053100D01*
X0181800Y0053569D02*
X0181800Y0053569D01*
X0181800Y0055167D02*
X0181800Y0055167D01*
X0181800Y0056766D02*
X0181800Y0056766D01*
X0181800Y0058364D02*
X0181800Y0058364D01*
X0181800Y0059963D02*
X0181800Y0059963D01*
X0181800Y0061561D02*
X0181800Y0061561D01*
X0183961Y0061561D02*
X0189819Y0061561D01*
X0191418Y0059963D02*
X0185560Y0059963D01*
X0186200Y0058364D02*
X0193016Y0058364D01*
X0194615Y0056766D02*
X0186200Y0056766D01*
X0185690Y0055167D02*
X0195200Y0055167D01*
X0197000Y0051970D02*
X0157736Y0051970D01*
X0158398Y0053569D02*
X0179509Y0053569D01*
X0177910Y0055167D02*
X0158450Y0055167D01*
X0158260Y0056766D02*
X0177400Y0056766D01*
X0177400Y0058364D02*
X0157598Y0058364D01*
X0156210Y0059963D02*
X0178040Y0059963D01*
X0179639Y0061561D02*
X0157567Y0061561D01*
X0158229Y0063160D02*
X0188221Y0063160D01*
X0186622Y0064758D02*
X0158450Y0064758D01*
X0158429Y0066357D02*
X0185024Y0066357D01*
X0183425Y0067955D02*
X0177383Y0067955D01*
X0177297Y0067869D02*
X0177809Y0068381D01*
X0178234Y0068967D01*
X0178563Y0069612D01*
X0178787Y0070301D01*
X0178900Y0071016D01*
X0178900Y0071378D01*
X0174300Y0071378D01*
X0174300Y0071378D01*
X0174300Y0071378D01*
X0169700Y0071378D01*
X0169700Y0071016D01*
X0169813Y0070301D01*
X0170037Y0069612D01*
X0170366Y0068967D01*
X0170791Y0068381D01*
X0171303Y0067869D01*
X0171889Y0067444D01*
X0172534Y0067115D01*
X0173223Y0066891D01*
X0173938Y0066778D01*
X0174300Y0066778D01*
X0174662Y0066778D01*
X0175377Y0066891D01*
X0176066Y0067115D01*
X0176711Y0067444D01*
X0177297Y0067869D01*
X0178533Y0069554D02*
X0181827Y0069554D01*
X0180228Y0071152D02*
X0178900Y0071152D01*
X0174300Y0071152D02*
X0174300Y0071152D01*
X0174300Y0071378D02*
X0174300Y0066778D01*
X0174300Y0071378D01*
X0174300Y0071378D01*
X0174300Y0069554D02*
X0174300Y0069554D01*
X0174300Y0067955D02*
X0174300Y0067955D01*
X0171217Y0067955D02*
X0157767Y0067955D01*
X0156619Y0069554D02*
X0170067Y0069554D01*
X0169700Y0071152D02*
X0154202Y0071152D01*
X0155639Y0072751D02*
X0169909Y0072751D01*
X0169586Y0074349D02*
X0156201Y0074349D01*
X0156250Y0075000D02*
X0149300Y0075000D01*
X0144300Y0075000D01*
X0141800Y0077500D01*
X0141800Y0087500D01*
X0144300Y0090000D01*
X0159300Y0090000D01*
X0161800Y0092500D01*
X0161945Y0091933D02*
X0157721Y0091933D01*
X0157449Y0091276D02*
X0158450Y0093692D01*
X0158450Y0096308D01*
X0157449Y0098724D01*
X0156173Y0100000D01*
X0157449Y0101276D01*
X0158450Y0103692D01*
X0158450Y0106308D01*
X0157449Y0108724D01*
X0156173Y0110000D01*
X0157449Y0111276D01*
X0158450Y0113692D01*
X0158450Y0116308D01*
X0157449Y0118724D01*
X0156173Y0120000D01*
X0157449Y0121276D01*
X0158450Y0123692D01*
X0158450Y0126308D01*
X0157449Y0128724D01*
X0156173Y0130000D01*
X0157449Y0131276D01*
X0158450Y0133692D01*
X0158450Y0136308D01*
X0157449Y0138724D01*
X0156173Y0140000D01*
X0157449Y0141276D01*
X0157509Y0141420D01*
X0173788Y0157700D01*
X0215255Y0157700D01*
X0217019Y0158431D01*
X0224619Y0166031D01*
X0229519Y0170931D01*
X0230869Y0172281D01*
X0231505Y0173815D01*
X0233328Y0175638D01*
X0234500Y0178468D01*
X0234500Y0181532D01*
X0233328Y0184362D01*
X0231162Y0186528D01*
X0228332Y0187700D01*
X0225268Y0187700D01*
X0222438Y0186528D01*
X0221800Y0185889D01*
X0221600Y0186089D01*
X0221600Y0190955D01*
X0220869Y0192719D01*
X0215869Y0197719D01*
X0214519Y0199069D01*
X0212755Y0199800D01*
X0191288Y0199800D01*
X0191111Y0199977D01*
X0192971Y0201837D01*
X0192971Y0207305D01*
X0191171Y0209105D01*
X0191171Y0211472D01*
X0191800Y0212101D01*
X0192835Y0211066D01*
X0195408Y0210000D01*
X0198192Y0210000D01*
X0200765Y0211066D01*
X0202734Y0213035D01*
X0203800Y0215608D01*
X0203800Y0224392D01*
X0202734Y0226965D01*
X0200765Y0228934D01*
X0198192Y0230000D01*
X0195408Y0230000D01*
X0192835Y0228934D01*
X0191800Y0227899D01*
X0190765Y0228934D01*
X0188192Y0230000D01*
X0185408Y0230000D01*
X0182835Y0228934D01*
X0181800Y0227899D01*
X0181600Y0228099D01*
X0181600Y0233455D01*
X0180869Y0235219D01*
X0179519Y0236569D01*
X0159678Y0256411D01*
X0238201Y0256411D01*
X0238201Y0147887D01*
X0234519Y0151569D01*
X0232755Y0152300D01*
X0230845Y0152300D01*
X0220845Y0152300D01*
X0219081Y0151569D01*
X0217731Y0150219D01*
X0215559Y0148047D01*
X0213628Y0147247D01*
X0213240Y0146860D01*
X0212438Y0146528D01*
X0210272Y0144362D01*
X0210245Y0144296D01*
X0209683Y0144704D01*
X0208911Y0145097D01*
X0208088Y0145365D01*
X0207233Y0145500D01*
X0207000Y0145500D01*
X0207000Y0140200D01*
X0206600Y0140200D01*
X0206600Y0145500D01*
X0206367Y0145500D01*
X0205512Y0145365D01*
X0204689Y0145097D01*
X0203917Y0144704D01*
X0203355Y0144296D01*
X0203328Y0144362D01*
X0202400Y0145289D01*
X0202400Y0146114D01*
X0201547Y0148172D01*
X0199047Y0150672D01*
X0197472Y0152247D01*
X0195414Y0153100D01*
X0173186Y0153100D01*
X0171128Y0152247D01*
X0166128Y0147247D01*
X0164553Y0145672D01*
X0163700Y0143614D01*
X0163700Y0131386D01*
X0164553Y0129328D01*
X0169971Y0123910D01*
X0168535Y0122474D01*
X0167500Y0119975D01*
X0167500Y0117269D01*
X0168535Y0114770D01*
X0168620Y0114685D01*
X0168535Y0114600D01*
X0167500Y0112101D01*
X0167500Y0109395D01*
X0168535Y0106896D01*
X0168620Y0106811D01*
X0168535Y0106726D01*
X0167500Y0104227D01*
X0167500Y0101521D01*
X0168535Y0099022D01*
X0168620Y0098937D01*
X0168535Y0098852D01*
X0168303Y0098291D01*
X0167731Y0097719D01*
X0159812Y0089800D01*
X0156373Y0089800D01*
X0156173Y0090000D01*
X0157449Y0091276D01*
X0156507Y0090334D02*
X0160346Y0090334D01*
X0158383Y0093532D02*
X0163543Y0093532D01*
X0165142Y0095130D02*
X0158450Y0095130D01*
X0158275Y0096729D02*
X0166740Y0096729D01*
X0168318Y0098327D02*
X0157613Y0098327D01*
X0156247Y0099926D02*
X0168161Y0099926D01*
X0167500Y0101524D02*
X0157552Y0101524D01*
X0158214Y0103123D02*
X0167500Y0103123D01*
X0167705Y0104721D02*
X0158450Y0104721D01*
X0158445Y0106320D02*
X0168367Y0106320D01*
X0168112Y0107918D02*
X0157783Y0107918D01*
X0156656Y0109517D02*
X0167500Y0109517D01*
X0167500Y0111115D02*
X0157288Y0111115D01*
X0158044Y0112714D02*
X0167754Y0112714D01*
X0168416Y0114312D02*
X0158450Y0114312D01*
X0158450Y0115911D02*
X0168063Y0115911D01*
X0167500Y0117509D02*
X0157952Y0117509D01*
X0157065Y0119108D02*
X0167500Y0119108D01*
X0167803Y0120706D02*
X0156879Y0120706D01*
X0157875Y0122305D02*
X0168465Y0122305D01*
X0169965Y0123903D02*
X0158450Y0123903D01*
X0158450Y0125502D02*
X0168379Y0125502D01*
X0166780Y0127100D02*
X0158121Y0127100D01*
X0157459Y0128699D02*
X0165182Y0128699D01*
X0164151Y0130297D02*
X0156470Y0130297D01*
X0157705Y0131896D02*
X0163700Y0131896D01*
X0163700Y0133494D02*
X0158368Y0133494D01*
X0158450Y0135093D02*
X0163700Y0135093D01*
X0163700Y0136691D02*
X0158291Y0136691D01*
X0157629Y0138290D02*
X0163700Y0138290D01*
X0163700Y0139888D02*
X0156285Y0139888D01*
X0157575Y0141487D02*
X0163700Y0141487D01*
X0163700Y0143085D02*
X0159174Y0143085D01*
X0160772Y0144684D02*
X0164143Y0144684D01*
X0165163Y0146282D02*
X0162371Y0146282D01*
X0163969Y0147881D02*
X0166761Y0147881D01*
X0165568Y0149479D02*
X0168360Y0149479D01*
X0167166Y0151078D02*
X0169958Y0151078D01*
X0168765Y0152676D02*
X0172164Y0152676D01*
X0170363Y0154275D02*
X0238201Y0154275D01*
X0238201Y0155873D02*
X0171962Y0155873D01*
X0173560Y0157472D02*
X0238201Y0157472D01*
X0238201Y0159070D02*
X0217659Y0159070D01*
X0219257Y0160669D02*
X0238201Y0160669D01*
X0238201Y0162268D02*
X0220856Y0162268D01*
X0222454Y0163866D02*
X0238201Y0163866D01*
X0238201Y0165465D02*
X0224053Y0165465D01*
X0225651Y0167063D02*
X0238201Y0167063D01*
X0238201Y0168662D02*
X0227250Y0168662D01*
X0228848Y0170260D02*
X0238201Y0170260D01*
X0238201Y0171859D02*
X0230447Y0171859D01*
X0231356Y0173457D02*
X0238201Y0173457D01*
X0238201Y0175056D02*
X0232745Y0175056D01*
X0233748Y0176654D02*
X0238201Y0176654D01*
X0238201Y0178253D02*
X0234411Y0178253D01*
X0234500Y0179851D02*
X0238201Y0179851D01*
X0238201Y0181450D02*
X0234500Y0181450D01*
X0233872Y0183048D02*
X0238201Y0183048D01*
X0238201Y0184647D02*
X0233043Y0184647D01*
X0231444Y0186245D02*
X0238201Y0186245D01*
X0238201Y0187844D02*
X0221600Y0187844D01*
X0221600Y0189442D02*
X0238201Y0189442D01*
X0238201Y0191041D02*
X0221564Y0191041D01*
X0220902Y0192639D02*
X0238201Y0192639D01*
X0238201Y0194238D02*
X0219350Y0194238D01*
X0217752Y0195836D02*
X0238201Y0195836D01*
X0238201Y0197435D02*
X0216153Y0197435D01*
X0214555Y0199033D02*
X0238201Y0199033D01*
X0238201Y0200632D02*
X0191766Y0200632D01*
X0192971Y0202230D02*
X0238201Y0202230D01*
X0238201Y0203829D02*
X0192971Y0203829D01*
X0192971Y0205427D02*
X0238201Y0205427D01*
X0238201Y0207026D02*
X0192971Y0207026D01*
X0191652Y0208624D02*
X0238201Y0208624D01*
X0238201Y0210223D02*
X0198730Y0210223D01*
X0201521Y0211821D02*
X0238201Y0211821D01*
X0238201Y0213420D02*
X0202894Y0213420D01*
X0203556Y0215018D02*
X0238201Y0215018D01*
X0238201Y0216617D02*
X0203800Y0216617D01*
X0203800Y0218215D02*
X0238201Y0218215D01*
X0238201Y0219814D02*
X0203800Y0219814D01*
X0203800Y0221412D02*
X0238201Y0221412D01*
X0238201Y0223011D02*
X0203800Y0223011D01*
X0203710Y0224609D02*
X0238201Y0224609D01*
X0238201Y0226208D02*
X0203048Y0226208D01*
X0201893Y0227806D02*
X0238201Y0227806D01*
X0238201Y0229405D02*
X0199629Y0229405D01*
X0193971Y0229405D02*
X0189629Y0229405D01*
X0183971Y0229405D02*
X0181600Y0229405D01*
X0181600Y0231003D02*
X0238201Y0231003D01*
X0238201Y0232602D02*
X0181600Y0232602D01*
X0181291Y0234201D02*
X0238201Y0234201D01*
X0238201Y0235799D02*
X0180289Y0235799D01*
X0178691Y0237398D02*
X0238201Y0237398D01*
X0238201Y0238996D02*
X0177092Y0238996D01*
X0175494Y0240595D02*
X0238201Y0240595D01*
X0238201Y0242193D02*
X0173895Y0242193D01*
X0172297Y0243792D02*
X0238201Y0243792D01*
X0238201Y0245390D02*
X0170698Y0245390D01*
X0169100Y0246989D02*
X0238201Y0246989D01*
X0238201Y0248587D02*
X0167501Y0248587D01*
X0165903Y0250186D02*
X0238201Y0250186D01*
X0238201Y0251784D02*
X0164304Y0251784D01*
X0162706Y0253383D02*
X0238201Y0253383D01*
X0238201Y0254981D02*
X0161107Y0254981D01*
X0156800Y0252500D02*
X0176800Y0232500D01*
X0176800Y0220000D01*
X0176800Y0207500D01*
X0189300Y0195000D01*
X0211800Y0195000D01*
X0216800Y0190000D01*
X0216800Y0180000D01*
X0221800Y0175000D02*
X0219300Y0172500D01*
X0206800Y0172500D01*
X0206800Y0180000D01*
X0206800Y0187500D01*
X0191800Y0187500D01*
X0190745Y0187844D02*
X0212000Y0187844D01*
X0212000Y0186245D02*
X0201444Y0186245D01*
X0203043Y0184647D02*
X0203838Y0184647D01*
X0206600Y0184647D02*
X0207000Y0184647D01*
X0207000Y0183048D02*
X0206600Y0183048D01*
X0206600Y0181450D02*
X0207000Y0181450D01*
X0207000Y0179800D02*
X0207000Y0174500D01*
X0207233Y0174500D01*
X0208088Y0174635D01*
X0208911Y0174903D01*
X0209683Y0175296D01*
X0210245Y0175704D01*
X0210272Y0175638D01*
X0212438Y0173472D01*
X0215268Y0172300D01*
X0217312Y0172300D01*
X0212312Y0167300D01*
X0190888Y0167300D01*
X0195888Y0172300D01*
X0198332Y0172300D01*
X0201162Y0173472D01*
X0203328Y0175638D01*
X0203355Y0175704D01*
X0203917Y0175296D01*
X0204689Y0174903D01*
X0205512Y0174635D01*
X0206367Y0174500D01*
X0206600Y0174500D01*
X0206600Y0179800D01*
X0207000Y0179800D01*
X0207000Y0178253D02*
X0206600Y0178253D01*
X0206600Y0176654D02*
X0207000Y0176654D01*
X0207000Y0175056D02*
X0206600Y0175056D01*
X0204389Y0175056D02*
X0202745Y0175056D01*
X0201125Y0173457D02*
X0212475Y0173457D01*
X0210855Y0175056D02*
X0209211Y0175056D01*
X0215272Y0170260D02*
X0193848Y0170260D01*
X0192250Y0168662D02*
X0213673Y0168662D01*
X0216870Y0171859D02*
X0195447Y0171859D01*
X0186800Y0177500D02*
X0186800Y0180000D01*
X0186800Y0185000D01*
X0166800Y0205000D01*
X0166800Y0220000D01*
X0171800Y0212101D02*
X0172000Y0211901D01*
X0172000Y0206588D01*
X0171600Y0206988D01*
X0171600Y0211901D01*
X0171800Y0212101D01*
X0171600Y0211821D02*
X0172000Y0211821D01*
X0172000Y0210223D02*
X0171600Y0210223D01*
X0171600Y0208624D02*
X0172000Y0208624D01*
X0172000Y0207026D02*
X0171600Y0207026D01*
X0156800Y0212500D02*
X0156800Y0220000D01*
X0156800Y0212500D02*
X0136800Y0192500D01*
X0136800Y0186250D01*
X0138050Y0185000D01*
X0138050Y0170000D01*
X0139300Y0168750D01*
X0139300Y0157500D01*
X0141800Y0155000D01*
X0149300Y0155000D01*
X0149300Y0145000D02*
X0154300Y0145000D01*
X0171800Y0162500D01*
X0214300Y0162500D01*
X0220550Y0168750D01*
X0226800Y0175000D01*
X0226800Y0180000D01*
X0222156Y0186245D02*
X0221600Y0186245D01*
X0210557Y0184647D02*
X0209762Y0184647D01*
X0210570Y0189442D02*
X0189146Y0189442D01*
X0186800Y0177500D02*
X0181800Y0172500D01*
X0169300Y0172500D01*
X0166800Y0175000D01*
X0149300Y0175000D01*
X0149300Y0185000D02*
X0164300Y0185000D01*
X0165550Y0183750D01*
X0172229Y0190429D01*
X0165550Y0183750D02*
X0169300Y0180000D01*
X0176800Y0180000D01*
X0186371Y0204571D02*
X0186371Y0219571D01*
X0186800Y0220000D01*
X0191521Y0211821D02*
X0192079Y0211821D01*
X0191171Y0210223D02*
X0194870Y0210223D01*
X0172000Y0229405D02*
X0169629Y0229405D01*
X0171508Y0231003D02*
X0165085Y0231003D01*
X0163486Y0232602D02*
X0169910Y0232602D01*
X0168311Y0234201D02*
X0161702Y0234201D01*
X0165114Y0237398D02*
X0126236Y0237398D01*
X0124638Y0238996D02*
X0163516Y0238996D01*
X0161917Y0240595D02*
X0117994Y0240595D01*
X0116395Y0242193D02*
X0160319Y0242193D01*
X0158720Y0243792D02*
X0114797Y0243792D01*
X0113198Y0245390D02*
X0157122Y0245390D01*
X0155523Y0246989D02*
X0111600Y0246989D01*
X0098311Y0234201D02*
X0058700Y0234201D01*
X0058700Y0235000D02*
X0054300Y0235000D01*
X0058700Y0235000D01*
X0058700Y0235200D01*
X0097312Y0235200D01*
X0102628Y0229884D01*
X0100335Y0228934D01*
X0099300Y0227899D01*
X0098265Y0228934D01*
X0095692Y0230000D01*
X0092908Y0230000D01*
X0090335Y0228934D01*
X0089300Y0227899D01*
X0088265Y0228934D01*
X0085692Y0230000D01*
X0082908Y0230000D01*
X0080335Y0228934D01*
X0079300Y0227899D01*
X0078265Y0228934D01*
X0075692Y0230000D01*
X0072908Y0230000D01*
X0070335Y0228934D01*
X0069300Y0227899D01*
X0068265Y0228934D01*
X0065692Y0230000D01*
X0062908Y0230000D01*
X0060335Y0228934D01*
X0059300Y0227899D01*
X0058265Y0228934D01*
X0055692Y0230000D01*
X0052908Y0230000D01*
X0050335Y0228934D01*
X0048366Y0226965D01*
X0047998Y0226077D01*
X0047961Y0226127D01*
X0047427Y0226661D01*
X0046816Y0227105D01*
X0046143Y0227448D01*
X0045424Y0227682D01*
X0044678Y0227800D01*
X0044500Y0227800D01*
X0044500Y0220200D01*
X0044100Y0220200D01*
X0044100Y0230512D01*
X0048788Y0235200D01*
X0049900Y0235200D01*
X0049900Y0235000D01*
X0054300Y0235000D01*
X0054300Y0235000D01*
X0054300Y0230600D01*
X0056123Y0230600D01*
X0058700Y0233177D01*
X0058700Y0235000D01*
X0058125Y0232602D02*
X0099910Y0232602D01*
X0101508Y0231003D02*
X0056526Y0231003D01*
X0057129Y0229405D02*
X0061471Y0229405D01*
X0059300Y0230000D02*
X0076800Y0230000D01*
X0079300Y0227500D01*
X0079300Y0210000D01*
X0086800Y0202500D01*
X0094300Y0202500D01*
X0081800Y0190000D01*
X0081800Y0182500D01*
X0084300Y0180000D01*
X0080900Y0188117D02*
X0080900Y0192734D01*
X0079100Y0194534D01*
X0079100Y0197966D01*
X0080900Y0199766D01*
X0080900Y0205234D01*
X0077034Y0209100D01*
X0071566Y0209100D01*
X0067700Y0205234D01*
X0067700Y0199766D01*
X0069500Y0197966D01*
X0069500Y0194800D01*
X0061131Y0194800D01*
X0060234Y0196965D01*
X0058988Y0198211D01*
X0059519Y0198431D01*
X0067019Y0205931D01*
X0068369Y0207281D01*
X0069100Y0209045D01*
X0069100Y0211901D01*
X0069300Y0212101D01*
X0070335Y0211066D01*
X0072908Y0210000D01*
X0075692Y0210000D01*
X0078265Y0211066D01*
X0079300Y0212101D01*
X0080335Y0211066D01*
X0082908Y0210000D01*
X0085692Y0210000D01*
X0088265Y0211066D01*
X0089300Y0212101D01*
X0090335Y0211066D01*
X0092908Y0210000D01*
X0095692Y0210000D01*
X0098265Y0211066D01*
X0099300Y0212101D01*
X0100335Y0211066D01*
X0102000Y0210376D01*
X0102000Y0199488D01*
X0093822Y0191310D01*
X0093183Y0191575D01*
X0085417Y0191575D01*
X0083001Y0190574D01*
X0081151Y0188724D01*
X0080900Y0188117D01*
X0080900Y0189442D02*
X0081869Y0189442D01*
X0080900Y0191041D02*
X0084128Y0191041D01*
X0080900Y0192639D02*
X0095151Y0192639D01*
X0096750Y0194238D02*
X0079396Y0194238D01*
X0079100Y0195836D02*
X0098348Y0195836D01*
X0099947Y0197435D02*
X0079100Y0197435D01*
X0080167Y0199033D02*
X0091544Y0199033D01*
X0092477Y0198100D02*
X0094300Y0198100D01*
X0096123Y0198100D01*
X0098700Y0200677D01*
X0098700Y0202500D01*
X0098700Y0204323D01*
X0096123Y0206900D01*
X0094300Y0206900D01*
X0094300Y0202500D01*
X0098700Y0202500D01*
X0094300Y0202500D01*
X0094300Y0202500D01*
X0094300Y0202500D01*
X0094300Y0198100D01*
X0094300Y0202500D01*
X0094300Y0202500D01*
X0094300Y0202500D01*
X0089900Y0202500D01*
X0089900Y0204323D01*
X0092477Y0206900D01*
X0094300Y0206900D01*
X0094300Y0202500D01*
X0089900Y0202500D01*
X0089900Y0200677D01*
X0092477Y0198100D01*
X0094300Y0199033D02*
X0094300Y0199033D01*
X0094300Y0200632D02*
X0094300Y0200632D01*
X0094300Y0202230D02*
X0094300Y0202230D01*
X0094300Y0203829D02*
X0094300Y0203829D01*
X0094300Y0205427D02*
X0094300Y0205427D01*
X0097595Y0205427D02*
X0102000Y0205427D01*
X0102000Y0203829D02*
X0098700Y0203829D01*
X0098700Y0202230D02*
X0102000Y0202230D01*
X0102000Y0200632D02*
X0098654Y0200632D01*
X0097056Y0199033D02*
X0101545Y0199033D01*
X0102000Y0207026D02*
X0079108Y0207026D01*
X0077509Y0208624D02*
X0102000Y0208624D01*
X0102000Y0210223D02*
X0096230Y0210223D01*
X0099021Y0211821D02*
X0099579Y0211821D01*
X0092370Y0210223D02*
X0086230Y0210223D01*
X0089021Y0211821D02*
X0089579Y0211821D01*
X0091005Y0205427D02*
X0080706Y0205427D01*
X0080900Y0203829D02*
X0089900Y0203829D01*
X0089900Y0202230D02*
X0080900Y0202230D01*
X0080900Y0200632D02*
X0089946Y0200632D01*
X0082370Y0210223D02*
X0076230Y0210223D01*
X0079021Y0211821D02*
X0079579Y0211821D01*
X0072370Y0210223D02*
X0069100Y0210223D01*
X0069100Y0211821D02*
X0069579Y0211821D01*
X0068926Y0208624D02*
X0071091Y0208624D01*
X0069492Y0207026D02*
X0068114Y0207026D01*
X0067894Y0205427D02*
X0066516Y0205427D01*
X0067700Y0203829D02*
X0064917Y0203829D01*
X0063319Y0202230D02*
X0067700Y0202230D01*
X0067700Y0200632D02*
X0061720Y0200632D01*
X0060121Y0199033D02*
X0068433Y0199033D01*
X0069500Y0197435D02*
X0059765Y0197435D01*
X0060702Y0195836D02*
X0069500Y0195836D01*
X0074300Y0190000D02*
X0074300Y0202500D01*
X0064300Y0210000D02*
X0064300Y0220000D01*
X0059300Y0212500D02*
X0059300Y0230000D01*
X0044300Y0230000D01*
X0044300Y0220000D01*
X0044300Y0215000D01*
X0033050Y0203750D01*
X0033345Y0205200D02*
X0035223Y0205200D01*
X0034500Y0203455D01*
X0034500Y0200000D01*
X0032908Y0200000D01*
X0030335Y0198934D01*
X0029300Y0197899D01*
X0028265Y0198934D01*
X0025692Y0200000D01*
X0022908Y0200000D01*
X0020335Y0198934D01*
X0019100Y0197699D01*
X0019100Y0212301D01*
X0020335Y0211066D01*
X0022908Y0210000D01*
X0025692Y0210000D01*
X0026979Y0210533D01*
X0031581Y0205931D01*
X0033345Y0205200D01*
X0032796Y0205427D02*
X0019100Y0205427D01*
X0019100Y0203829D02*
X0034655Y0203829D01*
X0034500Y0202230D02*
X0019100Y0202230D01*
X0019100Y0200632D02*
X0034500Y0200632D01*
X0030574Y0199033D02*
X0028026Y0199033D01*
X0030486Y0207026D02*
X0019100Y0207026D01*
X0019100Y0208624D02*
X0028887Y0208624D01*
X0027289Y0210223D02*
X0026230Y0210223D01*
X0026800Y0207500D02*
X0019300Y0200000D01*
X0019300Y0177500D01*
X0021800Y0175000D01*
X0019100Y0175056D02*
X0028700Y0175056D01*
X0028700Y0176654D02*
X0019100Y0176654D01*
X0019100Y0178253D02*
X0028700Y0178253D01*
X0028700Y0179851D02*
X0019100Y0179851D01*
X0019100Y0181450D02*
X0019951Y0181450D01*
X0019100Y0173457D02*
X0028700Y0173457D01*
X0028700Y0171859D02*
X0019100Y0171859D01*
X0019100Y0170260D02*
X0028700Y0170260D01*
X0028700Y0168662D02*
X0019100Y0168662D01*
X0019100Y0167063D02*
X0028700Y0167063D01*
X0028700Y0165465D02*
X0019100Y0165465D01*
X0019100Y0163866D02*
X0027746Y0163866D01*
X0026148Y0162268D02*
X0019100Y0162268D01*
X0019100Y0160669D02*
X0024551Y0160669D01*
X0023889Y0159070D02*
X0019100Y0159070D01*
X0019100Y0157472D02*
X0023700Y0157472D01*
X0023700Y0155873D02*
X0019100Y0155873D01*
X0019100Y0154275D02*
X0023700Y0154275D01*
X0023700Y0152676D02*
X0019100Y0152676D01*
X0019100Y0151078D02*
X0023700Y0151078D01*
X0022440Y0149479D02*
X0019100Y0149479D01*
X0019100Y0147881D02*
X0021612Y0147881D01*
X0020950Y0146282D02*
X0019100Y0146282D01*
X0019100Y0144684D02*
X0020875Y0144684D01*
X0020875Y0143085D02*
X0019100Y0143085D01*
X0019100Y0141487D02*
X0020875Y0141487D01*
X0020875Y0139888D02*
X0019100Y0139888D01*
X0019100Y0138290D02*
X0020875Y0138290D01*
X0020875Y0136691D02*
X0019100Y0136691D01*
X0019100Y0135093D02*
X0020875Y0135093D01*
X0021043Y0133494D02*
X0019100Y0133494D01*
X0019100Y0131896D02*
X0021705Y0131896D01*
X0022663Y0130297D02*
X0019100Y0130297D01*
X0019100Y0128699D02*
X0024261Y0128699D01*
X0019100Y0127100D02*
X0051780Y0127100D01*
X0053379Y0125502D02*
X0019100Y0125502D01*
X0019100Y0123903D02*
X0054977Y0123903D01*
X0056576Y0122305D02*
X0019100Y0122305D01*
X0019100Y0120706D02*
X0058174Y0120706D01*
X0059773Y0119108D02*
X0053915Y0119108D01*
X0053623Y0119400D02*
X0051800Y0119400D01*
X0051800Y0115000D01*
X0051800Y0115000D01*
X0056200Y0115000D01*
X0056200Y0116823D01*
X0053623Y0119400D01*
X0051800Y0119400D02*
X0051800Y0115000D01*
X0051800Y0115000D01*
X0051800Y0115000D01*
X0047400Y0115000D01*
X0047400Y0116823D01*
X0049977Y0119400D01*
X0051800Y0119400D01*
X0051800Y0119108D02*
X0051800Y0119108D01*
X0051800Y0117509D02*
X0051800Y0117509D01*
X0051800Y0115911D02*
X0051800Y0115911D01*
X0051800Y0115000D02*
X0047400Y0115000D01*
X0047400Y0113177D01*
X0049977Y0110600D01*
X0051800Y0110600D01*
X0053623Y0110600D01*
X0056200Y0113177D01*
X0056200Y0115000D01*
X0051800Y0115000D01*
X0051800Y0110600D01*
X0051800Y0115000D01*
X0051800Y0115000D01*
X0051800Y0114312D02*
X0051800Y0114312D01*
X0051800Y0112714D02*
X0051800Y0112714D01*
X0051800Y0111115D02*
X0051800Y0111115D01*
X0054138Y0111115D02*
X0063700Y0111115D01*
X0063700Y0109517D02*
X0019100Y0109517D01*
X0019100Y0111115D02*
X0049462Y0111115D01*
X0047864Y0112714D02*
X0019100Y0112714D01*
X0019100Y0114312D02*
X0047400Y0114312D01*
X0047400Y0115911D02*
X0019100Y0115911D01*
X0019100Y0117509D02*
X0048087Y0117509D01*
X0049685Y0119108D02*
X0019100Y0119108D01*
X0019100Y0107918D02*
X0063700Y0107918D01*
X0063700Y0106320D02*
X0019100Y0106320D01*
X0019100Y0104721D02*
X0063700Y0104721D01*
X0063700Y0103123D02*
X0019100Y0103123D01*
X0019100Y0101524D02*
X0063700Y0101524D01*
X0063700Y0099926D02*
X0019100Y0099926D01*
X0019100Y0098327D02*
X0063700Y0098327D01*
X0063700Y0096729D02*
X0019100Y0096729D01*
X0019100Y0095130D02*
X0063700Y0095130D01*
X0063700Y0093532D02*
X0019100Y0093532D01*
X0019100Y0091933D02*
X0025410Y0091933D01*
X0023295Y0090334D02*
X0019100Y0090334D01*
X0019100Y0088736D02*
X0021967Y0088736D01*
X0021304Y0087137D02*
X0019100Y0087137D01*
X0019100Y0085539D02*
X0020875Y0085539D01*
X0020875Y0083940D02*
X0019100Y0083940D01*
X0019100Y0082342D02*
X0020875Y0082342D01*
X0020875Y0080743D02*
X0019100Y0080743D01*
X0019100Y0079145D02*
X0020875Y0079145D01*
X0020875Y0077546D02*
X0019100Y0077546D01*
X0019100Y0075948D02*
X0020875Y0075948D01*
X0020875Y0074349D02*
X0019100Y0074349D01*
X0019100Y0072751D02*
X0021351Y0072751D01*
X0022013Y0071152D02*
X0019100Y0071152D01*
X0019100Y0069554D02*
X0021878Y0069554D01*
X0020225Y0067955D02*
X0019100Y0067955D01*
X0019100Y0045576D02*
X0034321Y0045576D01*
X0034723Y0043978D02*
X0019100Y0043978D01*
X0019100Y0042379D02*
X0035407Y0042379D01*
X0036507Y0040781D02*
X0019100Y0040781D01*
X0019100Y0039182D02*
X0024108Y0039182D01*
X0022168Y0037584D02*
X0019100Y0037584D01*
X0019100Y0035985D02*
X0020957Y0035985D01*
X0020161Y0034387D02*
X0019100Y0034387D01*
X0019100Y0032788D02*
X0019696Y0032788D01*
X0019100Y0031190D02*
X0028600Y0031190D01*
X0028600Y0032788D02*
X0030200Y0032788D01*
X0030200Y0031190D02*
X0064388Y0031190D01*
X0064977Y0030600D02*
X0066800Y0030600D01*
X0068623Y0030600D01*
X0071200Y0033177D01*
X0071200Y0035000D01*
X0071200Y0036823D01*
X0068623Y0039400D01*
X0066800Y0039400D01*
X0066800Y0035000D01*
X0071200Y0035000D01*
X0066800Y0035000D01*
X0066800Y0035000D01*
X0066800Y0035000D01*
X0066800Y0030600D01*
X0066800Y0035000D01*
X0066800Y0035000D01*
X0066800Y0035000D01*
X0066800Y0039400D01*
X0064977Y0039400D01*
X0062400Y0036823D01*
X0063161Y0037584D02*
X0046792Y0037584D01*
X0050027Y0039182D02*
X0064760Y0039182D01*
X0066800Y0039182D02*
X0066800Y0039182D01*
X0066800Y0037584D02*
X0066800Y0037584D01*
X0066800Y0035985D02*
X0066800Y0035985D01*
X0066800Y0035000D02*
X0062400Y0035000D01*
X0062400Y0033177D01*
X0064977Y0030600D01*
X0066800Y0031190D02*
X0066800Y0031190D01*
X0066800Y0032788D02*
X0066800Y0032788D01*
X0066800Y0034387D02*
X0066800Y0034387D01*
X0062789Y0032788D02*
X0039104Y0032788D01*
X0038639Y0034387D02*
X0062400Y0034387D01*
X0069212Y0031190D02*
X0081277Y0031190D01*
X0080200Y0032788D02*
X0070811Y0032788D01*
X0071200Y0034387D02*
X0080200Y0034387D01*
X0080200Y0035985D02*
X0071200Y0035985D01*
X0070439Y0037584D02*
X0080200Y0037584D01*
X0081200Y0039182D02*
X0068840Y0039182D01*
X0072403Y0043978D02*
X0053496Y0043978D01*
X0053897Y0045576D02*
X0070804Y0045576D01*
X0074001Y0042379D02*
X0052812Y0042379D01*
X0051712Y0040781D02*
X0075600Y0040781D01*
X0081620Y0050600D02*
X0074900Y0057320D01*
X0074900Y0060580D01*
X0075231Y0059781D01*
X0076581Y0058431D01*
X0079081Y0055931D01*
X0080845Y0055200D01*
X0082350Y0055200D01*
X0082350Y0055000D01*
X0089300Y0055000D01*
X0109300Y0055000D01*
X0114300Y0060000D01*
X0112650Y0061561D02*
X0118700Y0061561D01*
X0118700Y0059963D02*
X0111051Y0059963D01*
X0109452Y0058364D02*
X0118700Y0058364D01*
X0118700Y0056766D02*
X0107854Y0056766D01*
X0107992Y0056575D02*
X0107430Y0056342D01*
X0108369Y0057281D01*
X0118369Y0067281D01*
X0118700Y0068080D01*
X0118700Y0056575D01*
X0117992Y0056575D01*
X0115576Y0055574D01*
X0114300Y0054298D01*
X0113024Y0055574D01*
X0110608Y0056575D01*
X0107992Y0056575D01*
X0105202Y0055200D02*
X0103726Y0053724D01*
X0102725Y0051308D01*
X0102725Y0050600D01*
X0095536Y0050600D01*
X0094069Y0051208D01*
X0094168Y0051258D01*
X0094725Y0051663D01*
X0095212Y0052150D01*
X0095616Y0052707D01*
X0095929Y0053321D01*
X0096142Y0053976D01*
X0096250Y0054656D01*
X0096250Y0055000D01*
X0096250Y0055200D01*
X0105202Y0055200D01*
X0105169Y0055167D02*
X0096250Y0055167D01*
X0096250Y0055000D02*
X0089300Y0055000D01*
X0089300Y0055000D01*
X0089300Y0055000D01*
X0096250Y0055000D01*
X0096010Y0053569D02*
X0103662Y0053569D01*
X0103000Y0051970D02*
X0095032Y0051970D01*
X0089300Y0055000D02*
X0082350Y0055000D01*
X0082350Y0054656D01*
X0082458Y0053976D01*
X0082671Y0053321D01*
X0082984Y0052707D01*
X0083388Y0052150D01*
X0083875Y0051663D01*
X0084432Y0051258D01*
X0084531Y0051208D01*
X0083064Y0050600D01*
X0081620Y0050600D01*
X0080249Y0051970D02*
X0083568Y0051970D01*
X0082590Y0053569D02*
X0078651Y0053569D01*
X0077052Y0055167D02*
X0082350Y0055167D01*
X0078246Y0056766D02*
X0075454Y0056766D01*
X0074900Y0058364D02*
X0076648Y0058364D01*
X0075155Y0059963D02*
X0074900Y0059963D01*
X0089300Y0045000D02*
X0086800Y0042500D01*
X0093400Y0037584D02*
X0103184Y0037584D01*
X0102725Y0039182D02*
X0095010Y0039182D01*
X0093400Y0035985D02*
X0104017Y0035985D01*
X0105671Y0034387D02*
X0093400Y0034387D01*
X0093400Y0032788D02*
X0137224Y0032788D01*
X0138822Y0031190D02*
X0092323Y0031190D01*
X0090725Y0029591D02*
X0140421Y0029591D01*
X0142019Y0027993D02*
X0038901Y0027993D01*
X0039225Y0029591D02*
X0082875Y0029591D01*
X0112929Y0034387D02*
X0115671Y0034387D01*
X0122929Y0034387D02*
X0125671Y0034387D01*
X0143618Y0026394D02*
X0038259Y0026394D01*
X0030200Y0034387D02*
X0028600Y0034387D01*
X0028600Y0035985D02*
X0030200Y0035985D01*
X0030200Y0037584D02*
X0028600Y0037584D01*
X0028600Y0039182D02*
X0030200Y0039182D01*
X0034692Y0039182D02*
X0038192Y0039182D01*
X0019575Y0029591D02*
X0019100Y0029591D01*
X0019100Y0027993D02*
X0019899Y0027993D01*
X0020541Y0026394D02*
X0019100Y0026394D01*
X0089300Y0075000D02*
X0108050Y0075000D01*
X0109300Y0076250D01*
X0117445Y0066357D02*
X0118700Y0066357D01*
X0118649Y0067955D02*
X0118700Y0067955D01*
X0118700Y0064758D02*
X0115847Y0064758D01*
X0114248Y0063160D02*
X0118700Y0063160D01*
X0115169Y0055167D02*
X0113431Y0055167D01*
X0099300Y0085000D02*
X0099300Y0100000D01*
X0099300Y0101250D01*
X0101800Y0103750D01*
X0101800Y0121250D01*
X0099300Y0123750D01*
X0099300Y0140000D01*
X0094300Y0145000D01*
X0089300Y0145000D01*
X0089300Y0155000D02*
X0096800Y0155000D01*
X0104300Y0147500D01*
X0114300Y0135000D02*
X0134300Y0115000D01*
X0149300Y0115000D01*
X0149300Y0125000D02*
X0134300Y0125000D01*
X0124300Y0135000D01*
X0134300Y0135000D02*
X0149300Y0135000D01*
X0176800Y0132500D02*
X0206800Y0102500D01*
X0235176Y0102500D01*
X0235550Y0102874D01*
X0240550Y0097500D02*
X0238050Y0095000D01*
X0235550Y0095000D01*
X0240550Y0097500D02*
X0240550Y0138750D01*
X0231800Y0147500D01*
X0221800Y0147500D01*
X0216800Y0142500D01*
X0216800Y0140000D01*
X0212193Y0146282D02*
X0202330Y0146282D01*
X0201668Y0147881D02*
X0215157Y0147881D01*
X0216991Y0149479D02*
X0200240Y0149479D01*
X0199047Y0150672D02*
X0199047Y0150672D01*
X0198642Y0151078D02*
X0218590Y0151078D01*
X0210594Y0144684D02*
X0209710Y0144684D01*
X0207000Y0144684D02*
X0206600Y0144684D01*
X0206600Y0143085D02*
X0207000Y0143085D01*
X0207000Y0141487D02*
X0206600Y0141487D01*
X0206600Y0139800D02*
X0207000Y0139800D01*
X0207000Y0134500D01*
X0207233Y0134500D01*
X0208088Y0134635D01*
X0208911Y0134903D01*
X0209683Y0135296D01*
X0210245Y0135704D01*
X0210272Y0135638D01*
X0212438Y0133472D01*
X0215268Y0132300D01*
X0218332Y0132300D01*
X0221162Y0133472D01*
X0221200Y0133511D01*
X0221200Y0126386D01*
X0222053Y0124328D01*
X0223628Y0122753D01*
X0225559Y0121953D01*
X0228750Y0118762D01*
X0228750Y0117269D01*
X0229463Y0115548D01*
X0206790Y0115548D01*
X0191600Y0130738D01*
X0191600Y0133911D01*
X0191800Y0134111D01*
X0192438Y0133472D01*
X0195268Y0132300D01*
X0198332Y0132300D01*
X0201162Y0133472D01*
X0203328Y0135638D01*
X0203355Y0135704D01*
X0203917Y0135296D01*
X0204689Y0134903D01*
X0205512Y0134635D01*
X0206367Y0134500D01*
X0206600Y0134500D01*
X0206600Y0139800D01*
X0206600Y0138290D02*
X0207000Y0138290D01*
X0207000Y0136691D02*
X0206600Y0136691D01*
X0206600Y0135093D02*
X0207000Y0135093D01*
X0209284Y0135093D02*
X0210818Y0135093D01*
X0212416Y0133494D02*
X0201184Y0133494D01*
X0202782Y0135093D02*
X0204316Y0135093D01*
X0203890Y0144684D02*
X0203006Y0144684D01*
X0196436Y0152676D02*
X0238201Y0152676D01*
X0238201Y0151078D02*
X0235010Y0151078D01*
X0236609Y0149479D02*
X0238201Y0149479D01*
X0221200Y0133494D02*
X0221184Y0133494D01*
X0221200Y0131896D02*
X0191600Y0131896D01*
X0191600Y0133494D02*
X0192416Y0133494D01*
X0192041Y0130297D02*
X0221200Y0130297D01*
X0221200Y0128699D02*
X0193639Y0128699D01*
X0195238Y0127100D02*
X0221200Y0127100D01*
X0221566Y0125502D02*
X0196836Y0125502D01*
X0198435Y0123903D02*
X0222477Y0123903D01*
X0224709Y0122305D02*
X0200033Y0122305D01*
X0201632Y0120706D02*
X0226806Y0120706D01*
X0228404Y0119108D02*
X0203230Y0119108D01*
X0204829Y0117509D02*
X0228750Y0117509D01*
X0229313Y0115911D02*
X0206428Y0115911D01*
X0204802Y0110748D02*
X0186800Y0128750D01*
X0186800Y0140000D01*
X0176800Y0140000D02*
X0176800Y0132500D01*
X0187400Y0114312D02*
X0188200Y0114312D01*
X0187400Y0112714D02*
X0189798Y0112714D01*
X0191397Y0111115D02*
X0187400Y0111115D01*
X0187400Y0109517D02*
X0192995Y0109517D01*
X0194594Y0107918D02*
X0187400Y0107918D01*
X0187400Y0106320D02*
X0196192Y0106320D01*
X0197791Y0104721D02*
X0187400Y0104721D01*
X0187400Y0103123D02*
X0199389Y0103123D01*
X0200988Y0101524D02*
X0187400Y0101524D01*
X0187400Y0099926D02*
X0202586Y0099926D01*
X0204331Y0098327D02*
X0187400Y0098327D01*
X0187400Y0096729D02*
X0228906Y0096729D01*
X0228750Y0095130D02*
X0187400Y0095130D01*
X0187400Y0093532D02*
X0228798Y0093532D01*
X0229460Y0091933D02*
X0187400Y0091933D01*
X0187400Y0090334D02*
X0229519Y0090334D01*
X0228857Y0088736D02*
X0187400Y0088736D01*
X0187400Y0087137D02*
X0228750Y0087137D01*
X0228847Y0085539D02*
X0187400Y0085539D01*
X0187400Y0083940D02*
X0229509Y0083940D01*
X0229470Y0082342D02*
X0187400Y0082342D01*
X0187400Y0080743D02*
X0228808Y0080743D01*
X0228750Y0079145D02*
X0188075Y0079145D01*
X0189673Y0077546D02*
X0228896Y0077546D01*
X0229558Y0075948D02*
X0191272Y0075948D01*
X0192870Y0074349D02*
X0229421Y0074349D01*
X0228758Y0072751D02*
X0194469Y0072751D01*
X0196067Y0071152D02*
X0228750Y0071152D01*
X0228945Y0069554D02*
X0197666Y0069554D01*
X0199264Y0067955D02*
X0229607Y0067955D01*
X0230954Y0066357D02*
X0200863Y0066357D01*
X0202461Y0064758D02*
X0233762Y0064758D01*
X0237338Y0064758D02*
X0238201Y0064758D01*
X0238201Y0063160D02*
X0205474Y0063160D01*
X0207072Y0061561D02*
X0238201Y0061561D01*
X0238201Y0059963D02*
X0208400Y0059963D01*
X0208400Y0058364D02*
X0238201Y0058364D01*
X0238201Y0056766D02*
X0208400Y0056766D01*
X0208400Y0055167D02*
X0238201Y0055167D01*
X0238201Y0053569D02*
X0207203Y0053569D01*
X0206600Y0051970D02*
X0238201Y0051970D01*
X0238201Y0050372D02*
X0206600Y0050372D01*
X0206600Y0048773D02*
X0238201Y0048773D01*
X0238201Y0047175D02*
X0206600Y0047175D01*
X0206600Y0045576D02*
X0238201Y0045576D01*
X0238201Y0043978D02*
X0206572Y0043978D01*
X0205910Y0042379D02*
X0238201Y0042379D01*
X0238201Y0040781D02*
X0204369Y0040781D01*
X0202770Y0039182D02*
X0238201Y0039182D01*
X0238201Y0037584D02*
X0201172Y0037584D01*
X0199573Y0035985D02*
X0238201Y0035985D01*
X0238201Y0034387D02*
X0197975Y0034387D01*
X0196376Y0032788D02*
X0238201Y0032788D01*
X0238201Y0031190D02*
X0194778Y0031190D01*
X0193179Y0029591D02*
X0238201Y0029591D01*
X0238201Y0027993D02*
X0191581Y0027993D01*
X0189982Y0026394D02*
X0238201Y0026394D01*
X0197000Y0047175D02*
X0158091Y0047175D01*
X0158450Y0045576D02*
X0195588Y0045576D01*
X0193989Y0043978D02*
X0158450Y0043978D01*
X0157906Y0042379D02*
X0192391Y0042379D01*
X0190792Y0040781D02*
X0156954Y0040781D01*
X0155010Y0039182D02*
X0189194Y0039182D01*
X0187595Y0037584D02*
X0146005Y0037584D01*
X0147603Y0035985D02*
X0185997Y0035985D01*
X0197000Y0048773D02*
X0157400Y0048773D01*
X0156545Y0050372D02*
X0197000Y0050372D01*
X0180550Y0078750D02*
X0180048Y0079252D01*
X0168308Y0075948D02*
X0156154Y0075948D01*
X0156250Y0075000D02*
X0149300Y0075000D01*
X0149300Y0075000D01*
X0142850Y0075000D01*
X0142850Y0075000D01*
X0149300Y0075000D01*
X0149300Y0075000D01*
X0155432Y0077546D02*
X0167646Y0077546D01*
X0167500Y0079145D02*
X0154920Y0079145D01*
X0149300Y0085000D02*
X0161800Y0085000D01*
X0171800Y0095000D01*
X0174300Y0095000D01*
X0168259Y0083940D02*
X0167529Y0083940D01*
X0168220Y0082342D02*
X0165930Y0082342D01*
X0167558Y0080743D02*
X0164067Y0080743D01*
X0126349Y0096729D02*
X0119100Y0096729D01*
X0119100Y0098327D02*
X0124900Y0098327D01*
X0124900Y0099926D02*
X0119100Y0099926D01*
X0119100Y0101524D02*
X0124900Y0101524D01*
X0126200Y0103123D02*
X0119211Y0103123D01*
X0120809Y0104721D02*
X0127791Y0104721D01*
X0096800Y0107500D02*
X0094300Y0105000D01*
X0089300Y0105000D01*
X0096800Y0107500D02*
X0096800Y0117500D01*
X0094300Y0120000D01*
X0084300Y0120000D01*
X0049300Y0155000D01*
X0049300Y0197500D01*
X0054300Y0202500D01*
X0056800Y0202500D01*
X0064300Y0210000D01*
X0059456Y0211944D02*
X0054812Y0207300D01*
X0053345Y0207300D01*
X0051581Y0206569D01*
X0050231Y0205219D01*
X0046581Y0201569D01*
X0045231Y0200219D01*
X0044500Y0198455D01*
X0044500Y0190200D01*
X0044100Y0190200D01*
X0044100Y0200512D01*
X0053588Y0210000D01*
X0055692Y0210000D01*
X0058265Y0211066D01*
X0059300Y0212101D01*
X0059456Y0211944D01*
X0059333Y0211821D02*
X0059021Y0211821D01*
X0059300Y0212500D02*
X0054300Y0207500D01*
X0051800Y0207500D01*
X0044300Y0200000D01*
X0044300Y0190000D01*
X0044100Y0189800D02*
X0044500Y0189800D01*
X0044500Y0174400D01*
X0044300Y0174400D01*
X0044300Y0170000D01*
X0044300Y0170000D01*
X0044300Y0174400D01*
X0044100Y0174400D01*
X0044100Y0189800D01*
X0044100Y0189442D02*
X0044500Y0189442D01*
X0044500Y0187844D02*
X0044100Y0187844D01*
X0044100Y0186245D02*
X0044500Y0186245D01*
X0044500Y0184647D02*
X0044100Y0184647D01*
X0044100Y0183048D02*
X0044500Y0183048D01*
X0044500Y0181450D02*
X0044100Y0181450D01*
X0044100Y0179851D02*
X0044500Y0179851D01*
X0044500Y0178253D02*
X0044100Y0178253D01*
X0044100Y0176654D02*
X0044500Y0176654D01*
X0044500Y0175056D02*
X0044100Y0175056D01*
X0044300Y0173457D02*
X0044300Y0173457D01*
X0044300Y0171859D02*
X0044300Y0171859D01*
X0044300Y0170260D02*
X0044300Y0170260D01*
X0044300Y0170000D02*
X0044300Y0165600D01*
X0044500Y0165600D01*
X0044500Y0159088D01*
X0044100Y0159488D01*
X0044100Y0165600D01*
X0044300Y0165600D01*
X0044300Y0170000D01*
X0044300Y0170000D01*
X0044300Y0168662D02*
X0044300Y0168662D01*
X0044300Y0167063D02*
X0044300Y0167063D01*
X0044100Y0165465D02*
X0044500Y0165465D01*
X0044500Y0163866D02*
X0044100Y0163866D01*
X0044100Y0162268D02*
X0044500Y0162268D01*
X0044500Y0160669D02*
X0044100Y0160669D01*
X0039300Y0157500D02*
X0039300Y0202500D01*
X0054300Y0217500D01*
X0054300Y0220000D01*
X0048052Y0226208D02*
X0047880Y0226208D01*
X0049207Y0227806D02*
X0044100Y0227806D01*
X0044100Y0226208D02*
X0044500Y0226208D01*
X0044500Y0224609D02*
X0044100Y0224609D01*
X0044100Y0223011D02*
X0044500Y0223011D01*
X0044500Y0221412D02*
X0044100Y0221412D01*
X0044300Y0220000D02*
X0044300Y0217500D01*
X0044100Y0218215D02*
X0044500Y0218215D01*
X0044500Y0219800D02*
X0044100Y0219800D01*
X0044100Y0214088D01*
X0044500Y0214488D01*
X0044500Y0219800D01*
X0044500Y0216617D02*
X0044100Y0216617D01*
X0044100Y0215018D02*
X0044500Y0215018D01*
X0052213Y0208624D02*
X0056136Y0208624D01*
X0056230Y0210223D02*
X0057735Y0210223D01*
X0052683Y0207026D02*
X0050614Y0207026D01*
X0050439Y0205427D02*
X0049016Y0205427D01*
X0048841Y0203829D02*
X0047417Y0203829D01*
X0047242Y0202230D02*
X0045819Y0202230D01*
X0046581Y0201569D02*
X0046581Y0201569D01*
X0045644Y0200632D02*
X0044220Y0200632D01*
X0044100Y0199033D02*
X0044740Y0199033D01*
X0044500Y0197435D02*
X0044100Y0197435D01*
X0044100Y0195836D02*
X0044500Y0195836D01*
X0044500Y0194238D02*
X0044100Y0194238D01*
X0044100Y0192639D02*
X0044500Y0192639D01*
X0044500Y0191041D02*
X0044100Y0191041D01*
X0054300Y0190000D02*
X0074300Y0190000D01*
X0074300Y0180000D02*
X0074300Y0170000D01*
X0074300Y0155000D02*
X0089300Y0155000D01*
X0098137Y0167063D02*
X0107700Y0167063D01*
X0108628Y0168662D02*
X0097475Y0168662D01*
X0096433Y0170260D02*
X0109500Y0170260D01*
X0109500Y0171859D02*
X0097690Y0171859D01*
X0098352Y0173457D02*
X0109500Y0173457D01*
X0109500Y0175056D02*
X0098450Y0175056D01*
X0098306Y0176654D02*
X0109500Y0176654D01*
X0121800Y0172500D02*
X0121800Y0195000D01*
X0126800Y0195000D02*
X0126800Y0220000D01*
X0126800Y0225000D01*
X0101471Y0229405D02*
X0097129Y0229405D01*
X0091471Y0229405D02*
X0087129Y0229405D01*
X0081471Y0229405D02*
X0077129Y0229405D01*
X0071471Y0229405D02*
X0067129Y0229405D01*
X0054300Y0230600D02*
X0054300Y0235000D01*
X0054300Y0235000D01*
X0054300Y0235000D01*
X0049900Y0235000D01*
X0049900Y0233177D01*
X0052477Y0230600D01*
X0054300Y0230600D01*
X0054300Y0231003D02*
X0054300Y0231003D01*
X0054300Y0232602D02*
X0054300Y0232602D01*
X0054300Y0234201D02*
X0054300Y0234201D01*
X0052074Y0231003D02*
X0044592Y0231003D01*
X0044100Y0229405D02*
X0051471Y0229405D01*
X0050475Y0232602D02*
X0046190Y0232602D01*
X0047789Y0234201D02*
X0049900Y0234201D01*
X0041800Y0252500D02*
X0156800Y0252500D01*
X0131800Y0195000D02*
X0131800Y0185000D01*
X0134300Y0182500D01*
X0134300Y0165000D01*
X0124300Y0165000D02*
X0124300Y0170000D01*
X0121800Y0172500D01*
X0120896Y0159070D02*
X0117704Y0159070D01*
X0089300Y0115000D02*
X0081800Y0115000D01*
X0039300Y0157500D01*
X0054300Y0175000D02*
X0074300Y0155000D01*
X0054300Y0175000D02*
X0054300Y0190000D01*
X0029300Y0215000D02*
X0029300Y0240000D01*
X0041800Y0252500D01*
X0038922Y0256411D02*
X0037731Y0255219D01*
X0026581Y0244069D01*
X0025231Y0242719D01*
X0024500Y0240955D01*
X0024500Y0230000D01*
X0022908Y0230000D01*
X0020335Y0228934D01*
X0019100Y0227699D01*
X0019100Y0256411D01*
X0038922Y0256411D01*
X0037493Y0254981D02*
X0019100Y0254981D01*
X0019100Y0253383D02*
X0035894Y0253383D01*
X0034296Y0251784D02*
X0019100Y0251784D01*
X0019100Y0250186D02*
X0032697Y0250186D01*
X0031099Y0248587D02*
X0019100Y0248587D01*
X0019100Y0246989D02*
X0029500Y0246989D01*
X0027902Y0245390D02*
X0019100Y0245390D01*
X0019100Y0243792D02*
X0026303Y0243792D01*
X0026581Y0244069D02*
X0026581Y0244069D01*
X0025013Y0242193D02*
X0019100Y0242193D01*
X0019100Y0240595D02*
X0024500Y0240595D01*
X0024300Y0240000D02*
X0019300Y0235000D01*
X0019300Y0212500D01*
X0021800Y0210000D01*
X0022370Y0210223D02*
X0019100Y0210223D01*
X0019100Y0211821D02*
X0019579Y0211821D01*
X0019100Y0199033D02*
X0020574Y0199033D01*
X0028649Y0181450D02*
X0028700Y0181450D01*
X0019207Y0227806D02*
X0019100Y0227806D01*
X0019100Y0229405D02*
X0021471Y0229405D01*
X0019100Y0231003D02*
X0024500Y0231003D01*
X0024500Y0232602D02*
X0019100Y0232602D01*
X0019100Y0234201D02*
X0024500Y0234201D01*
X0024500Y0235799D02*
X0019100Y0235799D01*
X0019100Y0237398D02*
X0024500Y0237398D01*
X0024500Y0238996D02*
X0019100Y0238996D01*
X0037557Y0133494D02*
X0045386Y0133494D01*
X0046985Y0131896D02*
X0036895Y0131896D01*
X0035937Y0130297D02*
X0048583Y0130297D01*
X0050182Y0128699D02*
X0034339Y0128699D01*
X0055513Y0117509D02*
X0061371Y0117509D01*
X0062970Y0115911D02*
X0056200Y0115911D01*
X0056200Y0114312D02*
X0063700Y0114312D01*
X0063700Y0112714D02*
X0055736Y0112714D01*
X0204802Y0110748D02*
X0235550Y0110748D01*
X0235550Y0118622D02*
X0235550Y0118750D01*
X0226800Y0127500D01*
X0219300Y0167500D02*
X0220550Y0168750D01*
D22*
X0221800Y0175000D02*
X0221800Y0192500D01*
D23*
X0194300Y0147500D02*
X0174300Y0147500D01*
X0169300Y0142500D01*
X0169300Y0132500D01*
X0181800Y0120000D01*
X0181800Y0080000D01*
X0180550Y0078750D01*
X0201800Y0057500D01*
X0180048Y0079252D02*
X0174300Y0079252D01*
X0129300Y0085000D02*
X0124300Y0080000D01*
X0124300Y0047500D01*
X0121800Y0045000D01*
X0089300Y0045000D01*
X0079300Y0045000D01*
X0069300Y0055000D01*
X0069300Y0065000D01*
X0069300Y0117500D01*
X0046800Y0140000D01*
X0029300Y0140000D01*
X0029300Y0157500D01*
X0034300Y0162500D01*
X0034300Y0190000D01*
X0044300Y0215000D02*
X0044300Y0220000D01*
X0121800Y0092500D02*
X0119300Y0090000D01*
X0119300Y0067500D01*
X0106800Y0055000D01*
X0089300Y0055000D01*
X0086800Y0042500D02*
X0086800Y0035000D01*
X0069300Y0065000D02*
X0051800Y0065000D01*
X0051800Y0075000D02*
X0051800Y0085000D01*
X0029300Y0080000D02*
X0029300Y0059637D01*
X0194300Y0147500D02*
X0196800Y0145000D01*
X0196800Y0140000D01*
X0216800Y0140000D02*
X0216800Y0142500D01*
X0226800Y0140000D02*
X0226800Y0127500D01*
M02*
