G75*
%MOIN*%
%OFA0B0*%
%FSLAX25Y25*%
%IPPOS*%
%LPD*%
%AMOC8*
5,1,8,0,0,1.08239X$1,22.5*
%
%ADD10OC8,0.06000*%
%ADD11C,0.09650*%
%ADD12C,0.05800*%
%ADD13C,0.06800*%
%ADD14C,0.17398*%
%ADD15C,0.17000*%
%ADD16C,0.05950*%
%ADD17C,0.05950*%
%ADD18C,0.06400*%
%ADD19C,0.08200*%
%ADD20C,0.01200*%
D10*
X0051800Y0065000D03*
X0051800Y0075000D03*
X0051800Y0085000D03*
X0051800Y0115000D03*
X0099300Y0100000D03*
X0099300Y0085000D03*
X0129300Y0085000D03*
X0129300Y0100000D03*
X0124300Y0135000D03*
X0114300Y0135000D03*
X0134300Y0135000D03*
X0134300Y0165000D03*
X0124300Y0165000D03*
X0114300Y0165000D03*
X0094300Y0202500D03*
X0074300Y0202500D03*
X0074300Y0190000D03*
X0074300Y0180000D03*
X0074300Y0170000D03*
X0044300Y0170000D03*
X0034300Y0235000D03*
X0054300Y0235000D03*
X0121800Y0232500D03*
X0141800Y0232500D03*
X0181800Y0057500D03*
X0201800Y0057500D03*
X0086800Y0035000D03*
X0066800Y0035000D03*
D11*
X0029300Y0075575D02*
X0029300Y0084425D01*
X0029300Y0135575D02*
X0029300Y0144425D01*
D12*
X0116800Y0192500D02*
X0116800Y0197500D01*
X0121800Y0197500D02*
X0121800Y0192500D01*
X0126800Y0192500D02*
X0126800Y0197500D01*
X0131800Y0197500D02*
X0131800Y0192500D01*
D13*
X0126800Y0217000D02*
X0126800Y0223000D01*
X0136800Y0223000D02*
X0136800Y0217000D01*
X0146800Y0217000D02*
X0146800Y0223000D01*
X0156800Y0223000D02*
X0156800Y0217000D01*
X0166800Y0217000D02*
X0166800Y0223000D01*
X0176800Y0223000D02*
X0176800Y0217000D01*
X0186800Y0217000D02*
X0186800Y0223000D01*
X0196800Y0223000D02*
X0196800Y0217000D01*
X0104300Y0217000D02*
X0104300Y0223000D01*
X0094300Y0223000D02*
X0094300Y0217000D01*
X0084300Y0217000D02*
X0084300Y0223000D01*
X0074300Y0223000D02*
X0074300Y0217000D01*
X0064300Y0217000D02*
X0064300Y0223000D01*
X0054300Y0223000D02*
X0054300Y0217000D01*
X0044300Y0217000D02*
X0044300Y0223000D01*
X0034300Y0223000D02*
X0034300Y0217000D01*
X0024300Y0217000D02*
X0024300Y0223000D01*
X0024300Y0193000D02*
X0024300Y0187000D01*
X0034300Y0187000D02*
X0034300Y0193000D01*
X0044300Y0193000D02*
X0044300Y0187000D01*
X0054300Y0187000D02*
X0054300Y0193000D01*
D14*
X0029300Y0059637D03*
D15*
X0029400Y0030815D03*
X0044109Y0047126D03*
D16*
X0086725Y0045000D02*
X0091875Y0045000D01*
X0091875Y0055000D02*
X0086725Y0055000D01*
X0086725Y0065000D02*
X0091875Y0065000D01*
X0091875Y0075000D02*
X0086725Y0075000D01*
X0086725Y0085000D02*
X0091875Y0085000D01*
X0091875Y0095000D02*
X0086725Y0095000D01*
X0086725Y0105000D02*
X0091875Y0105000D01*
X0091875Y0115000D02*
X0086725Y0115000D01*
X0086725Y0125000D02*
X0091875Y0125000D01*
X0091875Y0135000D02*
X0086725Y0135000D01*
X0086725Y0145000D02*
X0091875Y0145000D01*
X0091875Y0155000D02*
X0086725Y0155000D01*
X0086725Y0165000D02*
X0091875Y0165000D01*
X0091875Y0175000D02*
X0086725Y0175000D01*
X0086725Y0185000D02*
X0091875Y0185000D01*
X0146725Y0185000D02*
X0151875Y0185000D01*
X0151875Y0175000D02*
X0146725Y0175000D01*
X0146725Y0165000D02*
X0151875Y0165000D01*
X0151875Y0155000D02*
X0146725Y0155000D01*
X0146725Y0145000D02*
X0151875Y0145000D01*
X0151875Y0135000D02*
X0146725Y0135000D01*
X0146725Y0125000D02*
X0151875Y0125000D01*
X0151875Y0115000D02*
X0146725Y0115000D01*
X0146725Y0105000D02*
X0151875Y0105000D01*
X0151875Y0095000D02*
X0146725Y0095000D01*
X0146725Y0085000D02*
X0151875Y0085000D01*
X0151875Y0075000D02*
X0146725Y0075000D01*
X0146725Y0065000D02*
X0151875Y0065000D01*
X0151875Y0055000D02*
X0146725Y0055000D01*
X0146725Y0045000D02*
X0151875Y0045000D01*
D17*
X0129300Y0040000D03*
X0129300Y0050000D03*
X0119300Y0050000D03*
X0119300Y0040000D03*
X0109300Y0040000D03*
X0109300Y0050000D03*
D18*
X0174300Y0071378D03*
X0174300Y0079252D03*
X0174300Y0087126D03*
X0174300Y0095000D03*
X0174300Y0102874D03*
X0174300Y0110748D03*
X0174300Y0118622D03*
X0235550Y0118622D03*
X0235550Y0110748D03*
X0235550Y0102874D03*
X0235550Y0095000D03*
X0235550Y0087126D03*
X0235550Y0079252D03*
X0235550Y0071378D03*
D19*
X0226800Y0140000D03*
X0216800Y0140000D03*
X0206800Y0140000D03*
X0196800Y0140000D03*
X0186800Y0140000D03*
X0176800Y0140000D03*
X0176800Y0180000D03*
X0186800Y0180000D03*
X0196800Y0180000D03*
X0206800Y0180000D03*
X0216800Y0180000D03*
X0226800Y0180000D03*
D20*
X0184572Y0204177D02*
X0183972Y0203577D01*
X0183972Y0205565D01*
X0185377Y0206970D01*
X0187365Y0206970D01*
X0188770Y0205565D01*
X0188770Y0203577D01*
X0187365Y0202172D01*
X0185377Y0202172D01*
X0183972Y0203577D01*
X0184872Y0203950D01*
X0184872Y0205192D01*
X0185750Y0206070D01*
X0186992Y0206070D01*
X0187870Y0205192D01*
X0187870Y0203950D01*
X0186992Y0203072D01*
X0185750Y0203072D01*
X0184872Y0203950D01*
X0185772Y0204323D01*
X0185772Y0204819D01*
X0186123Y0205170D01*
X0186619Y0205170D01*
X0186970Y0204819D01*
X0186970Y0204323D01*
X0186619Y0203972D01*
X0186123Y0203972D01*
X0185772Y0204323D01*
X0170430Y0190035D02*
X0169830Y0189435D01*
X0169830Y0191423D01*
X0171235Y0192828D01*
X0173223Y0192828D01*
X0174628Y0191423D01*
X0174628Y0189435D01*
X0173223Y0188030D01*
X0171235Y0188030D01*
X0169830Y0189435D01*
X0170730Y0189808D01*
X0170730Y0191050D01*
X0171608Y0191928D01*
X0172850Y0191928D01*
X0173728Y0191050D01*
X0173728Y0189808D01*
X0172850Y0188930D01*
X0171608Y0188930D01*
X0170730Y0189808D01*
X0171630Y0190181D01*
X0171630Y0190677D01*
X0171981Y0191028D01*
X0172477Y0191028D01*
X0172828Y0190677D01*
X0172828Y0190181D01*
X0172477Y0189830D01*
X0171981Y0189830D01*
X0171630Y0190181D01*
M02*
