%
M48
M72
T01C0.03000
T02C0.03150
T03C0.03200
T04C0.04000
T05C0.05900
T06C0.11800
T07C0.12598
%
T01
X116800Y195000
X121800Y195000
X126800Y195000
X131800Y195000
T02
X149300Y185000
X149300Y175000
X149300Y165000
X149300Y155000
X149300Y145000
X149300Y135000
X149300Y125000
X149300Y115000
X149300Y105000
X149300Y95000
X149300Y85000
X149300Y75000
X149300Y65000
X149300Y55000
X149300Y45000
X129300Y40000
X129300Y50000
X119300Y50000
X119300Y40000
X109300Y40000
X109300Y50000
X89300Y45000
X89300Y55000
X89300Y65000
X89300Y75000
X89300Y85000
X89300Y95000
X89300Y105000
X89300Y115000
X89300Y125000
X89300Y135000
X89300Y145000
X89300Y155000
X89300Y165000
X89300Y175000
X89300Y185000
X174300Y118622
X174300Y110748
X174300Y102874
X174300Y95000
X174300Y87126
X174300Y79252
X174300Y71378
X235550Y71378
X235550Y79252
X235550Y87126
X235550Y95000
X235550Y102874
X235550Y110748
X235550Y118622
T03
X201800Y57500
X181800Y57500
X129300Y85000
X129300Y100000
X99300Y100000
X99300Y85000
X86800Y35000
X66800Y35000
X51800Y65000
X51800Y75000
X51800Y85000
X51800Y115000
X44300Y170000
X74300Y170000
X74300Y180000
X74300Y190000
X74300Y202500
X94300Y202500
X121800Y232500
X141800Y232500
X172229Y190429
X186371Y204571
X134300Y165000
X124300Y165000
X114300Y165000
X114300Y135000
X124300Y135000
X134300Y135000
X54300Y235000
X34300Y235000
T04
X34300Y220000
X44300Y220000
X54300Y220000
X64300Y220000
X74300Y220000
X84300Y220000
X94300Y220000
X104300Y220000
X126800Y220000
X136800Y220000
X146800Y220000
X156800Y220000
X166800Y220000
X176800Y220000
X186800Y220000
X196800Y220000
X196800Y180000
X186800Y180000
X176800Y180000
X206800Y180000
X216800Y180000
X226800Y180000
X226800Y140000
X216800Y140000
X206800Y140000
X196800Y140000
X186800Y140000
X176800Y140000
X54300Y190000
X44300Y190000
X34300Y190000
X24300Y190000
X24300Y220000
T05
X29300Y140000
X29300Y80000
T06
X29400Y30815
X44109Y47126
T07
X29300Y59637
M30
