G75*
%MOIN*%
%OFA0B0*%
%FSLAX25Y25*%
%IPPOS*%
%LPD*%
%AMOC8*
5,1,8,0,0,1.08239X$1,22.5*
%
%ADD10C,0.01200*%
%ADD11C,0.00600*%
%ADD12C,0.00500*%
%ADD13R,0.05000X0.03500*%
%ADD14R,0.21000X0.04000*%
%ADD15C,0.00800*%
%ADD16C,0.01000*%
%ADD17R,0.02000X0.02000*%
%ADD18C,0.02400*%
%ADD19C,0.00400*%
D10*
X0075500Y0032500D02*
X0075500Y0035000D01*
X0075500Y0037500D01*
X0078000Y0037500D02*
X0078000Y0035000D01*
X0078000Y0032500D01*
X0190600Y0055000D02*
X0190600Y0057500D01*
X0190600Y0060000D01*
X0193100Y0060000D02*
X0193100Y0057500D01*
X0193100Y0055000D01*
X0085600Y0200000D02*
X0085600Y0202500D01*
X0085600Y0205000D01*
X0083100Y0205000D02*
X0083100Y0202500D01*
X0083100Y0200000D01*
X0045600Y0232500D02*
X0045600Y0235000D01*
X0045600Y0237500D01*
X0043100Y0237500D02*
X0043100Y0235000D01*
X0043100Y0232500D01*
X0130500Y0232500D02*
X0130500Y0230000D01*
X0130500Y0232500D02*
X0130500Y0235000D01*
X0133000Y0235000D02*
X0133000Y0232500D01*
X0133000Y0230000D01*
D11*
X0133000Y0232500D02*
X0137800Y0232500D01*
X0139300Y0225000D02*
X0134300Y0225000D01*
X0131800Y0222500D01*
X0131800Y0217500D01*
X0134300Y0215000D01*
X0139300Y0215000D01*
X0141800Y0217500D01*
X0141800Y0222500D01*
X0139300Y0225000D01*
X0141800Y0222500D02*
X0144300Y0225000D01*
X0149300Y0225000D01*
X0151800Y0222500D01*
X0154300Y0225000D01*
X0159300Y0225000D01*
X0161800Y0222500D01*
X0164300Y0225000D01*
X0169300Y0225000D01*
X0171800Y0222500D01*
X0171800Y0217500D01*
X0169300Y0215000D01*
X0164300Y0215000D01*
X0161800Y0217500D01*
X0159300Y0215000D01*
X0154300Y0215000D01*
X0151800Y0217500D01*
X0149300Y0215000D01*
X0144300Y0215000D01*
X0141800Y0217500D01*
X0131800Y0217500D02*
X0129300Y0215000D01*
X0124300Y0215000D01*
X0121800Y0217500D01*
X0121800Y0222500D01*
X0124300Y0225000D01*
X0129300Y0225000D01*
X0131800Y0222500D01*
X0130500Y0232500D02*
X0125800Y0232500D01*
X0118300Y0227500D02*
X0118240Y0227502D01*
X0118179Y0227507D01*
X0118120Y0227516D01*
X0118061Y0227529D01*
X0118002Y0227545D01*
X0117945Y0227565D01*
X0117890Y0227588D01*
X0117835Y0227615D01*
X0117783Y0227644D01*
X0117732Y0227677D01*
X0117683Y0227713D01*
X0117637Y0227751D01*
X0117593Y0227793D01*
X0117551Y0227837D01*
X0117513Y0227883D01*
X0117477Y0227932D01*
X0117444Y0227983D01*
X0117415Y0228035D01*
X0117388Y0228090D01*
X0117365Y0228145D01*
X0117345Y0228202D01*
X0117329Y0228261D01*
X0117316Y0228320D01*
X0117307Y0228379D01*
X0117302Y0228440D01*
X0117300Y0228500D01*
X0117300Y0236500D01*
X0117302Y0236560D01*
X0117307Y0236621D01*
X0117316Y0236680D01*
X0117329Y0236739D01*
X0117345Y0236798D01*
X0117365Y0236855D01*
X0117388Y0236910D01*
X0117415Y0236965D01*
X0117444Y0237017D01*
X0117477Y0237068D01*
X0117513Y0237117D01*
X0117551Y0237163D01*
X0117593Y0237207D01*
X0117637Y0237249D01*
X0117683Y0237287D01*
X0117732Y0237323D01*
X0117783Y0237356D01*
X0117835Y0237385D01*
X0117890Y0237412D01*
X0117945Y0237435D01*
X0118002Y0237455D01*
X0118061Y0237471D01*
X0118120Y0237484D01*
X0118179Y0237493D01*
X0118240Y0237498D01*
X0118300Y0237500D01*
X0145300Y0237500D01*
X0145360Y0237498D01*
X0145421Y0237493D01*
X0145480Y0237484D01*
X0145539Y0237471D01*
X0145598Y0237455D01*
X0145655Y0237435D01*
X0145710Y0237412D01*
X0145765Y0237385D01*
X0145817Y0237356D01*
X0145868Y0237323D01*
X0145917Y0237287D01*
X0145963Y0237249D01*
X0146007Y0237207D01*
X0146049Y0237163D01*
X0146087Y0237117D01*
X0146123Y0237068D01*
X0146156Y0237017D01*
X0146185Y0236965D01*
X0146212Y0236910D01*
X0146235Y0236855D01*
X0146255Y0236798D01*
X0146271Y0236739D01*
X0146284Y0236680D01*
X0146293Y0236621D01*
X0146298Y0236560D01*
X0146300Y0236500D01*
X0146300Y0228500D01*
X0146298Y0228440D01*
X0146293Y0228379D01*
X0146284Y0228320D01*
X0146271Y0228261D01*
X0146255Y0228202D01*
X0146235Y0228145D01*
X0146212Y0228090D01*
X0146185Y0228035D01*
X0146156Y0227983D01*
X0146123Y0227932D01*
X0146087Y0227883D01*
X0146049Y0227837D01*
X0146007Y0227793D01*
X0145963Y0227751D01*
X0145917Y0227713D01*
X0145868Y0227677D01*
X0145817Y0227644D01*
X0145765Y0227615D01*
X0145710Y0227588D01*
X0145655Y0227565D01*
X0145598Y0227545D01*
X0145539Y0227529D01*
X0145480Y0227516D01*
X0145421Y0227507D01*
X0145360Y0227502D01*
X0145300Y0227500D01*
X0118300Y0227500D01*
X0109300Y0222500D02*
X0109300Y0217500D01*
X0106800Y0215000D01*
X0101800Y0215000D01*
X0099300Y0217500D01*
X0096800Y0215000D01*
X0091800Y0215000D01*
X0089300Y0217500D01*
X0086800Y0215000D01*
X0081800Y0215000D01*
X0079300Y0217500D01*
X0076800Y0215000D01*
X0071800Y0215000D01*
X0069300Y0217500D01*
X0066800Y0215000D01*
X0061800Y0215000D01*
X0059300Y0217500D01*
X0056800Y0215000D01*
X0051800Y0215000D01*
X0049300Y0217500D01*
X0046800Y0215000D01*
X0041800Y0215000D01*
X0039300Y0217500D01*
X0036800Y0215000D01*
X0031800Y0215000D01*
X0029300Y0217500D01*
X0026800Y0215000D01*
X0021800Y0215000D01*
X0019300Y0217500D01*
X0019300Y0222500D01*
X0021800Y0225000D01*
X0026800Y0225000D01*
X0029300Y0222500D01*
X0031800Y0225000D01*
X0036800Y0225000D01*
X0039300Y0222500D01*
X0039300Y0217500D01*
X0039300Y0222500D02*
X0041800Y0225000D01*
X0046800Y0225000D01*
X0049300Y0222500D01*
X0051800Y0225000D01*
X0056800Y0225000D01*
X0059300Y0222500D01*
X0061800Y0225000D01*
X0066800Y0225000D01*
X0069300Y0222500D01*
X0069300Y0217500D01*
X0069300Y0222500D02*
X0071800Y0225000D01*
X0076800Y0225000D01*
X0079300Y0222500D01*
X0081800Y0225000D01*
X0086800Y0225000D01*
X0089300Y0222500D01*
X0091800Y0225000D01*
X0096800Y0225000D01*
X0099300Y0222500D01*
X0101800Y0225000D01*
X0106800Y0225000D01*
X0109300Y0222500D01*
X0099300Y0222500D02*
X0099300Y0217500D01*
X0089300Y0217500D02*
X0089300Y0222500D01*
X0079300Y0222500D02*
X0079300Y0217500D01*
X0070800Y0207500D02*
X0097800Y0207500D01*
X0097860Y0207498D01*
X0097921Y0207493D01*
X0097980Y0207484D01*
X0098039Y0207471D01*
X0098098Y0207455D01*
X0098155Y0207435D01*
X0098210Y0207412D01*
X0098265Y0207385D01*
X0098317Y0207356D01*
X0098368Y0207323D01*
X0098417Y0207287D01*
X0098463Y0207249D01*
X0098507Y0207207D01*
X0098549Y0207163D01*
X0098587Y0207117D01*
X0098623Y0207068D01*
X0098656Y0207017D01*
X0098685Y0206965D01*
X0098712Y0206910D01*
X0098735Y0206855D01*
X0098755Y0206798D01*
X0098771Y0206739D01*
X0098784Y0206680D01*
X0098793Y0206621D01*
X0098798Y0206560D01*
X0098800Y0206500D01*
X0098800Y0198500D01*
X0098798Y0198440D01*
X0098793Y0198379D01*
X0098784Y0198320D01*
X0098771Y0198261D01*
X0098755Y0198202D01*
X0098735Y0198145D01*
X0098712Y0198090D01*
X0098685Y0198035D01*
X0098656Y0197983D01*
X0098623Y0197932D01*
X0098587Y0197883D01*
X0098549Y0197837D01*
X0098507Y0197793D01*
X0098463Y0197751D01*
X0098417Y0197713D01*
X0098368Y0197677D01*
X0098317Y0197644D01*
X0098265Y0197615D01*
X0098210Y0197588D01*
X0098155Y0197565D01*
X0098098Y0197545D01*
X0098039Y0197529D01*
X0097980Y0197516D01*
X0097921Y0197507D01*
X0097860Y0197502D01*
X0097800Y0197500D01*
X0070800Y0197500D01*
X0070740Y0197502D01*
X0070679Y0197507D01*
X0070620Y0197516D01*
X0070561Y0197529D01*
X0070502Y0197545D01*
X0070445Y0197565D01*
X0070390Y0197588D01*
X0070335Y0197615D01*
X0070283Y0197644D01*
X0070232Y0197677D01*
X0070183Y0197713D01*
X0070137Y0197751D01*
X0070093Y0197793D01*
X0070051Y0197837D01*
X0070013Y0197883D01*
X0069977Y0197932D01*
X0069944Y0197983D01*
X0069915Y0198035D01*
X0069888Y0198090D01*
X0069865Y0198145D01*
X0069845Y0198202D01*
X0069829Y0198261D01*
X0069816Y0198320D01*
X0069807Y0198379D01*
X0069802Y0198440D01*
X0069800Y0198500D01*
X0069800Y0206500D01*
X0069802Y0206560D01*
X0069807Y0206621D01*
X0069816Y0206680D01*
X0069829Y0206739D01*
X0069845Y0206798D01*
X0069865Y0206855D01*
X0069888Y0206910D01*
X0069915Y0206965D01*
X0069944Y0207017D01*
X0069977Y0207068D01*
X0070013Y0207117D01*
X0070051Y0207163D01*
X0070093Y0207207D01*
X0070137Y0207249D01*
X0070183Y0207287D01*
X0070232Y0207323D01*
X0070283Y0207356D01*
X0070335Y0207385D01*
X0070390Y0207412D01*
X0070445Y0207435D01*
X0070502Y0207455D01*
X0070561Y0207471D01*
X0070620Y0207484D01*
X0070679Y0207493D01*
X0070740Y0207498D01*
X0070800Y0207500D01*
X0078300Y0202500D02*
X0083100Y0202500D01*
X0085600Y0202500D02*
X0090300Y0202500D01*
X0080300Y0185000D02*
X0080298Y0184846D01*
X0080292Y0184692D01*
X0080282Y0184538D01*
X0080268Y0184384D01*
X0080251Y0184231D01*
X0080229Y0184079D01*
X0080203Y0183927D01*
X0080174Y0183775D01*
X0080140Y0183625D01*
X0080103Y0183475D01*
X0080062Y0183327D01*
X0080017Y0183179D01*
X0079968Y0183033D01*
X0079916Y0182888D01*
X0079860Y0182745D01*
X0079800Y0182602D01*
X0079737Y0182462D01*
X0079670Y0182323D01*
X0079599Y0182186D01*
X0079525Y0182051D01*
X0079448Y0181918D01*
X0079367Y0181786D01*
X0079283Y0181657D01*
X0079195Y0181530D01*
X0079104Y0181406D01*
X0079011Y0181284D01*
X0078913Y0181164D01*
X0078813Y0181047D01*
X0078710Y0180932D01*
X0078604Y0180820D01*
X0078496Y0180711D01*
X0078384Y0180605D01*
X0078270Y0180501D01*
X0078153Y0180401D01*
X0078034Y0180303D01*
X0077912Y0180209D01*
X0077787Y0180118D01*
X0068300Y0185000D02*
X0068302Y0185152D01*
X0068308Y0185303D01*
X0068317Y0185454D01*
X0068331Y0185606D01*
X0068348Y0185756D01*
X0068369Y0185906D01*
X0068394Y0186056D01*
X0068422Y0186205D01*
X0068455Y0186353D01*
X0068491Y0186500D01*
X0068530Y0186647D01*
X0068574Y0186792D01*
X0068621Y0186936D01*
X0068672Y0187079D01*
X0068726Y0187220D01*
X0068784Y0187361D01*
X0068845Y0187499D01*
X0068910Y0187636D01*
X0068979Y0187772D01*
X0069050Y0187905D01*
X0069125Y0188037D01*
X0069204Y0188167D01*
X0069285Y0188294D01*
X0069370Y0188420D01*
X0069458Y0188544D01*
X0069549Y0188665D01*
X0069643Y0188784D01*
X0069741Y0188900D01*
X0069841Y0189014D01*
X0069943Y0189126D01*
X0070049Y0189234D01*
X0070157Y0189340D01*
X0070268Y0189444D01*
X0070382Y0189544D01*
X0070498Y0189642D01*
X0070617Y0189736D01*
X0068300Y0185000D02*
X0068302Y0184848D01*
X0068308Y0184697D01*
X0068317Y0184546D01*
X0068331Y0184394D01*
X0068348Y0184244D01*
X0068369Y0184094D01*
X0068394Y0183944D01*
X0068422Y0183795D01*
X0068455Y0183647D01*
X0068491Y0183500D01*
X0068530Y0183353D01*
X0068574Y0183208D01*
X0068621Y0183064D01*
X0068672Y0182921D01*
X0068726Y0182780D01*
X0068784Y0182639D01*
X0068845Y0182501D01*
X0068910Y0182364D01*
X0068979Y0182228D01*
X0069050Y0182095D01*
X0069125Y0181963D01*
X0069204Y0181833D01*
X0069285Y0181706D01*
X0069370Y0181580D01*
X0069458Y0181456D01*
X0069549Y0181335D01*
X0069643Y0181216D01*
X0069741Y0181100D01*
X0069841Y0180986D01*
X0069943Y0180874D01*
X0070049Y0180766D01*
X0070157Y0180660D01*
X0070268Y0180556D01*
X0070382Y0180456D01*
X0070498Y0180358D01*
X0070617Y0180264D01*
X0070800Y0174500D02*
X0069300Y0174500D01*
X0068800Y0174000D01*
X0049800Y0174000D01*
X0049300Y0174500D01*
X0047800Y0174500D01*
X0047740Y0174498D01*
X0047679Y0174493D01*
X0047620Y0174484D01*
X0047561Y0174471D01*
X0047502Y0174455D01*
X0047445Y0174435D01*
X0047390Y0174412D01*
X0047335Y0174385D01*
X0047283Y0174356D01*
X0047232Y0174323D01*
X0047183Y0174287D01*
X0047137Y0174249D01*
X0047093Y0174207D01*
X0047051Y0174163D01*
X0047013Y0174117D01*
X0046977Y0174068D01*
X0046944Y0174017D01*
X0046915Y0173965D01*
X0046888Y0173910D01*
X0046865Y0173855D01*
X0046845Y0173798D01*
X0046829Y0173739D01*
X0046816Y0173680D01*
X0046807Y0173621D01*
X0046802Y0173560D01*
X0046800Y0173500D01*
X0046800Y0166500D02*
X0046802Y0166440D01*
X0046807Y0166379D01*
X0046816Y0166320D01*
X0046829Y0166261D01*
X0046845Y0166202D01*
X0046865Y0166145D01*
X0046888Y0166090D01*
X0046915Y0166035D01*
X0046944Y0165983D01*
X0046977Y0165932D01*
X0047013Y0165883D01*
X0047051Y0165837D01*
X0047093Y0165793D01*
X0047137Y0165751D01*
X0047183Y0165713D01*
X0047232Y0165677D01*
X0047283Y0165644D01*
X0047335Y0165615D01*
X0047390Y0165588D01*
X0047445Y0165565D01*
X0047502Y0165545D01*
X0047561Y0165529D01*
X0047620Y0165516D01*
X0047679Y0165507D01*
X0047740Y0165502D01*
X0047800Y0165500D01*
X0049300Y0165500D01*
X0049800Y0166000D01*
X0068800Y0166000D01*
X0069300Y0165500D01*
X0070800Y0165500D01*
X0070860Y0165502D01*
X0070921Y0165507D01*
X0070980Y0165516D01*
X0071039Y0165529D01*
X0071098Y0165545D01*
X0071155Y0165565D01*
X0071210Y0165588D01*
X0071265Y0165615D01*
X0071317Y0165644D01*
X0071368Y0165677D01*
X0071417Y0165713D01*
X0071463Y0165751D01*
X0071507Y0165793D01*
X0071549Y0165837D01*
X0071587Y0165883D01*
X0071623Y0165932D01*
X0071656Y0165983D01*
X0071685Y0166035D01*
X0071712Y0166090D01*
X0071735Y0166145D01*
X0071755Y0166202D01*
X0071771Y0166261D01*
X0071784Y0166320D01*
X0071793Y0166379D01*
X0071798Y0166440D01*
X0071800Y0166500D01*
X0071800Y0173500D02*
X0071798Y0173560D01*
X0071793Y0173621D01*
X0071784Y0173680D01*
X0071771Y0173739D01*
X0071755Y0173798D01*
X0071735Y0173855D01*
X0071712Y0173910D01*
X0071685Y0173965D01*
X0071656Y0174017D01*
X0071623Y0174068D01*
X0071587Y0174117D01*
X0071549Y0174163D01*
X0071507Y0174207D01*
X0071463Y0174249D01*
X0071417Y0174287D01*
X0071368Y0174323D01*
X0071317Y0174356D01*
X0071265Y0174385D01*
X0071210Y0174412D01*
X0071155Y0174435D01*
X0071098Y0174455D01*
X0071039Y0174471D01*
X0070980Y0174484D01*
X0070921Y0174493D01*
X0070860Y0174498D01*
X0070800Y0174500D01*
X0080300Y0185000D02*
X0080298Y0185150D01*
X0080292Y0185301D01*
X0080283Y0185451D01*
X0080270Y0185600D01*
X0080253Y0185750D01*
X0080232Y0185899D01*
X0080208Y0186047D01*
X0080180Y0186195D01*
X0080148Y0186342D01*
X0080113Y0186488D01*
X0080073Y0186633D01*
X0080031Y0186777D01*
X0079984Y0186920D01*
X0079934Y0187062D01*
X0079881Y0187203D01*
X0079824Y0187342D01*
X0079764Y0187480D01*
X0079700Y0187616D01*
X0079633Y0187750D01*
X0079562Y0187883D01*
X0079488Y0188014D01*
X0079411Y0188143D01*
X0079330Y0188270D01*
X0079247Y0188395D01*
X0079160Y0188518D01*
X0079071Y0188639D01*
X0078978Y0188757D01*
X0078882Y0188873D01*
X0078784Y0188987D01*
X0078683Y0189098D01*
X0078578Y0189207D01*
X0078472Y0189312D01*
X0078362Y0189416D01*
X0078250Y0189516D01*
X0078136Y0189614D01*
X0078019Y0189708D01*
X0077900Y0189800D01*
X0059300Y0187500D02*
X0056800Y0185000D01*
X0051800Y0185000D01*
X0049300Y0187500D01*
X0046800Y0185000D01*
X0041800Y0185000D01*
X0039300Y0187500D01*
X0039300Y0192500D01*
X0041800Y0195000D01*
X0046800Y0195000D01*
X0049300Y0192500D01*
X0051800Y0195000D01*
X0056800Y0195000D01*
X0059300Y0192500D01*
X0059300Y0187500D01*
X0049300Y0187500D02*
X0049300Y0192500D01*
X0039300Y0192500D02*
X0036800Y0195000D01*
X0031800Y0195000D01*
X0029300Y0192500D01*
X0026800Y0195000D01*
X0021800Y0195000D01*
X0019300Y0192500D01*
X0019300Y0187500D01*
X0021800Y0185000D01*
X0026800Y0185000D01*
X0029300Y0187500D01*
X0029300Y0192500D01*
X0029300Y0187500D02*
X0031800Y0185000D01*
X0036800Y0185000D01*
X0039300Y0187500D01*
X0029300Y0217500D02*
X0029300Y0222500D01*
X0030800Y0230000D02*
X0057800Y0230000D01*
X0057860Y0230002D01*
X0057921Y0230007D01*
X0057980Y0230016D01*
X0058039Y0230029D01*
X0058098Y0230045D01*
X0058155Y0230065D01*
X0058210Y0230088D01*
X0058265Y0230115D01*
X0058317Y0230144D01*
X0058368Y0230177D01*
X0058417Y0230213D01*
X0058463Y0230251D01*
X0058507Y0230293D01*
X0058549Y0230337D01*
X0058587Y0230383D01*
X0058623Y0230432D01*
X0058656Y0230483D01*
X0058685Y0230535D01*
X0058712Y0230590D01*
X0058735Y0230645D01*
X0058755Y0230702D01*
X0058771Y0230761D01*
X0058784Y0230820D01*
X0058793Y0230879D01*
X0058798Y0230940D01*
X0058800Y0231000D01*
X0058800Y0239000D01*
X0058798Y0239060D01*
X0058793Y0239121D01*
X0058784Y0239180D01*
X0058771Y0239239D01*
X0058755Y0239298D01*
X0058735Y0239355D01*
X0058712Y0239410D01*
X0058685Y0239465D01*
X0058656Y0239517D01*
X0058623Y0239568D01*
X0058587Y0239617D01*
X0058549Y0239663D01*
X0058507Y0239707D01*
X0058463Y0239749D01*
X0058417Y0239787D01*
X0058368Y0239823D01*
X0058317Y0239856D01*
X0058265Y0239885D01*
X0058210Y0239912D01*
X0058155Y0239935D01*
X0058098Y0239955D01*
X0058039Y0239971D01*
X0057980Y0239984D01*
X0057921Y0239993D01*
X0057860Y0239998D01*
X0057800Y0240000D01*
X0030800Y0240000D01*
X0030740Y0239998D01*
X0030679Y0239993D01*
X0030620Y0239984D01*
X0030561Y0239971D01*
X0030502Y0239955D01*
X0030445Y0239935D01*
X0030390Y0239912D01*
X0030335Y0239885D01*
X0030283Y0239856D01*
X0030232Y0239823D01*
X0030183Y0239787D01*
X0030137Y0239749D01*
X0030093Y0239707D01*
X0030051Y0239663D01*
X0030013Y0239617D01*
X0029977Y0239568D01*
X0029944Y0239517D01*
X0029915Y0239465D01*
X0029888Y0239410D01*
X0029865Y0239355D01*
X0029845Y0239298D01*
X0029829Y0239239D01*
X0029816Y0239180D01*
X0029807Y0239121D01*
X0029802Y0239060D01*
X0029800Y0239000D01*
X0029800Y0231000D01*
X0029802Y0230940D01*
X0029807Y0230879D01*
X0029816Y0230820D01*
X0029829Y0230761D01*
X0029845Y0230702D01*
X0029865Y0230645D01*
X0029888Y0230590D01*
X0029915Y0230535D01*
X0029944Y0230483D01*
X0029977Y0230432D01*
X0030013Y0230383D01*
X0030051Y0230337D01*
X0030093Y0230293D01*
X0030137Y0230251D01*
X0030183Y0230213D01*
X0030232Y0230177D01*
X0030283Y0230144D01*
X0030335Y0230115D01*
X0030390Y0230088D01*
X0030445Y0230065D01*
X0030502Y0230045D01*
X0030561Y0230029D01*
X0030620Y0230016D01*
X0030679Y0230007D01*
X0030740Y0230002D01*
X0030800Y0230000D01*
X0038300Y0235000D02*
X0043100Y0235000D01*
X0045600Y0235000D02*
X0050300Y0235000D01*
X0049300Y0222500D02*
X0049300Y0217500D01*
X0059300Y0217500D02*
X0059300Y0222500D01*
X0109800Y0161500D02*
X0109800Y0160000D01*
X0110300Y0159500D01*
X0110300Y0140500D01*
X0109800Y0140000D01*
X0109800Y0138500D01*
X0109802Y0138440D01*
X0109807Y0138379D01*
X0109816Y0138320D01*
X0109829Y0138261D01*
X0109845Y0138202D01*
X0109865Y0138145D01*
X0109888Y0138090D01*
X0109915Y0138035D01*
X0109944Y0137983D01*
X0109977Y0137932D01*
X0110013Y0137883D01*
X0110051Y0137837D01*
X0110093Y0137793D01*
X0110137Y0137751D01*
X0110183Y0137713D01*
X0110232Y0137677D01*
X0110283Y0137644D01*
X0110335Y0137615D01*
X0110390Y0137588D01*
X0110445Y0137565D01*
X0110502Y0137545D01*
X0110561Y0137529D01*
X0110620Y0137516D01*
X0110679Y0137507D01*
X0110740Y0137502D01*
X0110800Y0137500D01*
X0117800Y0137500D02*
X0117860Y0137502D01*
X0117921Y0137507D01*
X0117980Y0137516D01*
X0118039Y0137529D01*
X0118098Y0137545D01*
X0118155Y0137565D01*
X0118210Y0137588D01*
X0118265Y0137615D01*
X0118317Y0137644D01*
X0118368Y0137677D01*
X0118417Y0137713D01*
X0118463Y0137751D01*
X0118507Y0137793D01*
X0118549Y0137837D01*
X0118587Y0137883D01*
X0118623Y0137932D01*
X0118656Y0137983D01*
X0118685Y0138035D01*
X0118712Y0138090D01*
X0118735Y0138145D01*
X0118755Y0138202D01*
X0118771Y0138261D01*
X0118784Y0138320D01*
X0118793Y0138379D01*
X0118798Y0138440D01*
X0118800Y0138500D01*
X0118800Y0140000D01*
X0118300Y0140500D01*
X0118300Y0159500D01*
X0118800Y0160000D01*
X0118800Y0161500D01*
X0118798Y0161560D01*
X0118793Y0161621D01*
X0118784Y0161680D01*
X0118771Y0161739D01*
X0118755Y0161798D01*
X0118735Y0161855D01*
X0118712Y0161910D01*
X0118685Y0161965D01*
X0118656Y0162017D01*
X0118623Y0162068D01*
X0118587Y0162117D01*
X0118549Y0162163D01*
X0118507Y0162207D01*
X0118463Y0162249D01*
X0118417Y0162287D01*
X0118368Y0162323D01*
X0118317Y0162356D01*
X0118265Y0162385D01*
X0118210Y0162412D01*
X0118155Y0162435D01*
X0118098Y0162455D01*
X0118039Y0162471D01*
X0117980Y0162484D01*
X0117921Y0162493D01*
X0117860Y0162498D01*
X0117800Y0162500D01*
X0119800Y0161500D02*
X0119800Y0160000D01*
X0120300Y0159500D01*
X0120300Y0140500D01*
X0119800Y0140000D01*
X0119800Y0138500D01*
X0119802Y0138440D01*
X0119807Y0138379D01*
X0119816Y0138320D01*
X0119829Y0138261D01*
X0119845Y0138202D01*
X0119865Y0138145D01*
X0119888Y0138090D01*
X0119915Y0138035D01*
X0119944Y0137983D01*
X0119977Y0137932D01*
X0120013Y0137883D01*
X0120051Y0137837D01*
X0120093Y0137793D01*
X0120137Y0137751D01*
X0120183Y0137713D01*
X0120232Y0137677D01*
X0120283Y0137644D01*
X0120335Y0137615D01*
X0120390Y0137588D01*
X0120445Y0137565D01*
X0120502Y0137545D01*
X0120561Y0137529D01*
X0120620Y0137516D01*
X0120679Y0137507D01*
X0120740Y0137502D01*
X0120800Y0137500D01*
X0127800Y0137500D02*
X0127860Y0137502D01*
X0127921Y0137507D01*
X0127980Y0137516D01*
X0128039Y0137529D01*
X0128098Y0137545D01*
X0128155Y0137565D01*
X0128210Y0137588D01*
X0128265Y0137615D01*
X0128317Y0137644D01*
X0128368Y0137677D01*
X0128417Y0137713D01*
X0128463Y0137751D01*
X0128507Y0137793D01*
X0128549Y0137837D01*
X0128587Y0137883D01*
X0128623Y0137932D01*
X0128656Y0137983D01*
X0128685Y0138035D01*
X0128712Y0138090D01*
X0128735Y0138145D01*
X0128755Y0138202D01*
X0128771Y0138261D01*
X0128784Y0138320D01*
X0128793Y0138379D01*
X0128798Y0138440D01*
X0128800Y0138500D01*
X0128800Y0140000D01*
X0128300Y0140500D01*
X0128300Y0159500D01*
X0128800Y0160000D01*
X0128800Y0161500D01*
X0129800Y0161500D02*
X0129800Y0160000D01*
X0130300Y0159500D01*
X0130300Y0140500D01*
X0129800Y0140000D01*
X0129800Y0138500D01*
X0129802Y0138440D01*
X0129807Y0138379D01*
X0129816Y0138320D01*
X0129829Y0138261D01*
X0129845Y0138202D01*
X0129865Y0138145D01*
X0129888Y0138090D01*
X0129915Y0138035D01*
X0129944Y0137983D01*
X0129977Y0137932D01*
X0130013Y0137883D01*
X0130051Y0137837D01*
X0130093Y0137793D01*
X0130137Y0137751D01*
X0130183Y0137713D01*
X0130232Y0137677D01*
X0130283Y0137644D01*
X0130335Y0137615D01*
X0130390Y0137588D01*
X0130445Y0137565D01*
X0130502Y0137545D01*
X0130561Y0137529D01*
X0130620Y0137516D01*
X0130679Y0137507D01*
X0130740Y0137502D01*
X0130800Y0137500D01*
X0137800Y0137500D02*
X0137860Y0137502D01*
X0137921Y0137507D01*
X0137980Y0137516D01*
X0138039Y0137529D01*
X0138098Y0137545D01*
X0138155Y0137565D01*
X0138210Y0137588D01*
X0138265Y0137615D01*
X0138317Y0137644D01*
X0138368Y0137677D01*
X0138417Y0137713D01*
X0138463Y0137751D01*
X0138507Y0137793D01*
X0138549Y0137837D01*
X0138587Y0137883D01*
X0138623Y0137932D01*
X0138656Y0137983D01*
X0138685Y0138035D01*
X0138712Y0138090D01*
X0138735Y0138145D01*
X0138755Y0138202D01*
X0138771Y0138261D01*
X0138784Y0138320D01*
X0138793Y0138379D01*
X0138798Y0138440D01*
X0138800Y0138500D01*
X0138800Y0140000D01*
X0138300Y0140500D01*
X0138300Y0159500D01*
X0138800Y0160000D01*
X0138800Y0161500D01*
X0138798Y0161560D01*
X0138793Y0161621D01*
X0138784Y0161680D01*
X0138771Y0161739D01*
X0138755Y0161798D01*
X0138735Y0161855D01*
X0138712Y0161910D01*
X0138685Y0161965D01*
X0138656Y0162017D01*
X0138623Y0162068D01*
X0138587Y0162117D01*
X0138549Y0162163D01*
X0138507Y0162207D01*
X0138463Y0162249D01*
X0138417Y0162287D01*
X0138368Y0162323D01*
X0138317Y0162356D01*
X0138265Y0162385D01*
X0138210Y0162412D01*
X0138155Y0162435D01*
X0138098Y0162455D01*
X0138039Y0162471D01*
X0137980Y0162484D01*
X0137921Y0162493D01*
X0137860Y0162498D01*
X0137800Y0162500D01*
X0130800Y0162500D02*
X0130740Y0162498D01*
X0130679Y0162493D01*
X0130620Y0162484D01*
X0130561Y0162471D01*
X0130502Y0162455D01*
X0130445Y0162435D01*
X0130390Y0162412D01*
X0130335Y0162385D01*
X0130283Y0162356D01*
X0130232Y0162323D01*
X0130183Y0162287D01*
X0130137Y0162249D01*
X0130093Y0162207D01*
X0130051Y0162163D01*
X0130013Y0162117D01*
X0129977Y0162068D01*
X0129944Y0162017D01*
X0129915Y0161965D01*
X0129888Y0161910D01*
X0129865Y0161855D01*
X0129845Y0161798D01*
X0129829Y0161739D01*
X0129816Y0161680D01*
X0129807Y0161621D01*
X0129802Y0161560D01*
X0129800Y0161500D01*
X0128800Y0161500D02*
X0128798Y0161560D01*
X0128793Y0161621D01*
X0128784Y0161680D01*
X0128771Y0161739D01*
X0128755Y0161798D01*
X0128735Y0161855D01*
X0128712Y0161910D01*
X0128685Y0161965D01*
X0128656Y0162017D01*
X0128623Y0162068D01*
X0128587Y0162117D01*
X0128549Y0162163D01*
X0128507Y0162207D01*
X0128463Y0162249D01*
X0128417Y0162287D01*
X0128368Y0162323D01*
X0128317Y0162356D01*
X0128265Y0162385D01*
X0128210Y0162412D01*
X0128155Y0162435D01*
X0128098Y0162455D01*
X0128039Y0162471D01*
X0127980Y0162484D01*
X0127921Y0162493D01*
X0127860Y0162498D01*
X0127800Y0162500D01*
X0120800Y0162500D02*
X0120740Y0162498D01*
X0120679Y0162493D01*
X0120620Y0162484D01*
X0120561Y0162471D01*
X0120502Y0162455D01*
X0120445Y0162435D01*
X0120390Y0162412D01*
X0120335Y0162385D01*
X0120283Y0162356D01*
X0120232Y0162323D01*
X0120183Y0162287D01*
X0120137Y0162249D01*
X0120093Y0162207D01*
X0120051Y0162163D01*
X0120013Y0162117D01*
X0119977Y0162068D01*
X0119944Y0162017D01*
X0119915Y0161965D01*
X0119888Y0161910D01*
X0119865Y0161855D01*
X0119845Y0161798D01*
X0119829Y0161739D01*
X0119816Y0161680D01*
X0119807Y0161621D01*
X0119802Y0161560D01*
X0119800Y0161500D01*
X0110800Y0162500D02*
X0110740Y0162498D01*
X0110679Y0162493D01*
X0110620Y0162484D01*
X0110561Y0162471D01*
X0110502Y0162455D01*
X0110445Y0162435D01*
X0110390Y0162412D01*
X0110335Y0162385D01*
X0110283Y0162356D01*
X0110232Y0162323D01*
X0110183Y0162287D01*
X0110137Y0162249D01*
X0110093Y0162207D01*
X0110051Y0162163D01*
X0110013Y0162117D01*
X0109977Y0162068D01*
X0109944Y0162017D01*
X0109915Y0161965D01*
X0109888Y0161910D01*
X0109865Y0161855D01*
X0109845Y0161798D01*
X0109829Y0161739D01*
X0109816Y0161680D01*
X0109807Y0161621D01*
X0109802Y0161560D01*
X0109800Y0161500D01*
X0104300Y0104500D02*
X0102800Y0104500D01*
X0102740Y0104498D01*
X0102679Y0104493D01*
X0102620Y0104484D01*
X0102561Y0104471D01*
X0102502Y0104455D01*
X0102445Y0104435D01*
X0102390Y0104412D01*
X0102335Y0104385D01*
X0102283Y0104356D01*
X0102232Y0104323D01*
X0102183Y0104287D01*
X0102137Y0104249D01*
X0102093Y0104207D01*
X0102051Y0104163D01*
X0102013Y0104117D01*
X0101977Y0104068D01*
X0101944Y0104017D01*
X0101915Y0103965D01*
X0101888Y0103910D01*
X0101865Y0103855D01*
X0101845Y0103798D01*
X0101829Y0103739D01*
X0101816Y0103680D01*
X0101807Y0103621D01*
X0101802Y0103560D01*
X0101800Y0103500D01*
X0104300Y0104500D02*
X0104800Y0104000D01*
X0123800Y0104000D01*
X0124300Y0104500D01*
X0125800Y0104500D01*
X0125860Y0104498D01*
X0125921Y0104493D01*
X0125980Y0104484D01*
X0126039Y0104471D01*
X0126098Y0104455D01*
X0126155Y0104435D01*
X0126210Y0104412D01*
X0126265Y0104385D01*
X0126317Y0104356D01*
X0126368Y0104323D01*
X0126417Y0104287D01*
X0126463Y0104249D01*
X0126507Y0104207D01*
X0126549Y0104163D01*
X0126587Y0104117D01*
X0126623Y0104068D01*
X0126656Y0104017D01*
X0126685Y0103965D01*
X0126712Y0103910D01*
X0126735Y0103855D01*
X0126755Y0103798D01*
X0126771Y0103739D01*
X0126784Y0103680D01*
X0126793Y0103621D01*
X0126798Y0103560D01*
X0126800Y0103500D01*
X0126800Y0096500D02*
X0126798Y0096440D01*
X0126793Y0096379D01*
X0126784Y0096320D01*
X0126771Y0096261D01*
X0126755Y0096202D01*
X0126735Y0096145D01*
X0126712Y0096090D01*
X0126685Y0096035D01*
X0126656Y0095983D01*
X0126623Y0095932D01*
X0126587Y0095883D01*
X0126549Y0095837D01*
X0126507Y0095793D01*
X0126463Y0095751D01*
X0126417Y0095713D01*
X0126368Y0095677D01*
X0126317Y0095644D01*
X0126265Y0095615D01*
X0126210Y0095588D01*
X0126155Y0095565D01*
X0126098Y0095545D01*
X0126039Y0095529D01*
X0125980Y0095516D01*
X0125921Y0095507D01*
X0125860Y0095502D01*
X0125800Y0095500D01*
X0124300Y0095500D01*
X0123800Y0096000D01*
X0104800Y0096000D01*
X0104300Y0095500D01*
X0102800Y0095500D01*
X0102740Y0095502D01*
X0102679Y0095507D01*
X0102620Y0095516D01*
X0102561Y0095529D01*
X0102502Y0095545D01*
X0102445Y0095565D01*
X0102390Y0095588D01*
X0102335Y0095615D01*
X0102283Y0095644D01*
X0102232Y0095677D01*
X0102183Y0095713D01*
X0102137Y0095751D01*
X0102093Y0095793D01*
X0102051Y0095837D01*
X0102013Y0095883D01*
X0101977Y0095932D01*
X0101944Y0095983D01*
X0101915Y0096035D01*
X0101888Y0096090D01*
X0101865Y0096145D01*
X0101845Y0096202D01*
X0101829Y0096261D01*
X0101816Y0096320D01*
X0101807Y0096379D01*
X0101802Y0096440D01*
X0101800Y0096500D01*
X0102800Y0089500D02*
X0104300Y0089500D01*
X0104800Y0089000D01*
X0123800Y0089000D01*
X0124300Y0089500D01*
X0125800Y0089500D01*
X0125860Y0089498D01*
X0125921Y0089493D01*
X0125980Y0089484D01*
X0126039Y0089471D01*
X0126098Y0089455D01*
X0126155Y0089435D01*
X0126210Y0089412D01*
X0126265Y0089385D01*
X0126317Y0089356D01*
X0126368Y0089323D01*
X0126417Y0089287D01*
X0126463Y0089249D01*
X0126507Y0089207D01*
X0126549Y0089163D01*
X0126587Y0089117D01*
X0126623Y0089068D01*
X0126656Y0089017D01*
X0126685Y0088965D01*
X0126712Y0088910D01*
X0126735Y0088855D01*
X0126755Y0088798D01*
X0126771Y0088739D01*
X0126784Y0088680D01*
X0126793Y0088621D01*
X0126798Y0088560D01*
X0126800Y0088500D01*
X0126800Y0081500D02*
X0126798Y0081440D01*
X0126793Y0081379D01*
X0126784Y0081320D01*
X0126771Y0081261D01*
X0126755Y0081202D01*
X0126735Y0081145D01*
X0126712Y0081090D01*
X0126685Y0081035D01*
X0126656Y0080983D01*
X0126623Y0080932D01*
X0126587Y0080883D01*
X0126549Y0080837D01*
X0126507Y0080793D01*
X0126463Y0080751D01*
X0126417Y0080713D01*
X0126368Y0080677D01*
X0126317Y0080644D01*
X0126265Y0080615D01*
X0126210Y0080588D01*
X0126155Y0080565D01*
X0126098Y0080545D01*
X0126039Y0080529D01*
X0125980Y0080516D01*
X0125921Y0080507D01*
X0125860Y0080502D01*
X0125800Y0080500D01*
X0124300Y0080500D01*
X0123800Y0081000D01*
X0104800Y0081000D01*
X0104300Y0080500D01*
X0102800Y0080500D01*
X0102740Y0080502D01*
X0102679Y0080507D01*
X0102620Y0080516D01*
X0102561Y0080529D01*
X0102502Y0080545D01*
X0102445Y0080565D01*
X0102390Y0080588D01*
X0102335Y0080615D01*
X0102283Y0080644D01*
X0102232Y0080677D01*
X0102183Y0080713D01*
X0102137Y0080751D01*
X0102093Y0080793D01*
X0102051Y0080837D01*
X0102013Y0080883D01*
X0101977Y0080932D01*
X0101944Y0080983D01*
X0101915Y0081035D01*
X0101888Y0081090D01*
X0101865Y0081145D01*
X0101845Y0081202D01*
X0101829Y0081261D01*
X0101816Y0081320D01*
X0101807Y0081379D01*
X0101802Y0081440D01*
X0101800Y0081500D01*
X0101800Y0088500D02*
X0101802Y0088560D01*
X0101807Y0088621D01*
X0101816Y0088680D01*
X0101829Y0088739D01*
X0101845Y0088798D01*
X0101865Y0088855D01*
X0101888Y0088910D01*
X0101915Y0088965D01*
X0101944Y0089017D01*
X0101977Y0089068D01*
X0102013Y0089117D01*
X0102051Y0089163D01*
X0102093Y0089207D01*
X0102137Y0089249D01*
X0102183Y0089287D01*
X0102232Y0089323D01*
X0102283Y0089356D01*
X0102335Y0089385D01*
X0102390Y0089412D01*
X0102445Y0089435D01*
X0102502Y0089455D01*
X0102561Y0089471D01*
X0102620Y0089484D01*
X0102679Y0089493D01*
X0102740Y0089498D01*
X0102800Y0089500D01*
X0090300Y0040000D02*
X0063300Y0040000D01*
X0063240Y0039998D01*
X0063179Y0039993D01*
X0063120Y0039984D01*
X0063061Y0039971D01*
X0063002Y0039955D01*
X0062945Y0039935D01*
X0062890Y0039912D01*
X0062835Y0039885D01*
X0062783Y0039856D01*
X0062732Y0039823D01*
X0062683Y0039787D01*
X0062637Y0039749D01*
X0062593Y0039707D01*
X0062551Y0039663D01*
X0062513Y0039617D01*
X0062477Y0039568D01*
X0062444Y0039517D01*
X0062415Y0039465D01*
X0062388Y0039410D01*
X0062365Y0039355D01*
X0062345Y0039298D01*
X0062329Y0039239D01*
X0062316Y0039180D01*
X0062307Y0039121D01*
X0062302Y0039060D01*
X0062300Y0039000D01*
X0062300Y0031000D01*
X0062302Y0030940D01*
X0062307Y0030879D01*
X0062316Y0030820D01*
X0062329Y0030761D01*
X0062345Y0030702D01*
X0062365Y0030645D01*
X0062388Y0030590D01*
X0062415Y0030535D01*
X0062444Y0030483D01*
X0062477Y0030432D01*
X0062513Y0030383D01*
X0062551Y0030337D01*
X0062593Y0030293D01*
X0062637Y0030251D01*
X0062683Y0030213D01*
X0062732Y0030177D01*
X0062783Y0030144D01*
X0062835Y0030115D01*
X0062890Y0030088D01*
X0062945Y0030065D01*
X0063002Y0030045D01*
X0063061Y0030029D01*
X0063120Y0030016D01*
X0063179Y0030007D01*
X0063240Y0030002D01*
X0063300Y0030000D01*
X0090300Y0030000D01*
X0090360Y0030002D01*
X0090421Y0030007D01*
X0090480Y0030016D01*
X0090539Y0030029D01*
X0090598Y0030045D01*
X0090655Y0030065D01*
X0090710Y0030088D01*
X0090765Y0030115D01*
X0090817Y0030144D01*
X0090868Y0030177D01*
X0090917Y0030213D01*
X0090963Y0030251D01*
X0091007Y0030293D01*
X0091049Y0030337D01*
X0091087Y0030383D01*
X0091123Y0030432D01*
X0091156Y0030483D01*
X0091185Y0030535D01*
X0091212Y0030590D01*
X0091235Y0030645D01*
X0091255Y0030702D01*
X0091271Y0030761D01*
X0091284Y0030820D01*
X0091293Y0030879D01*
X0091298Y0030940D01*
X0091300Y0031000D01*
X0091300Y0039000D01*
X0091298Y0039060D01*
X0091293Y0039121D01*
X0091284Y0039180D01*
X0091271Y0039239D01*
X0091255Y0039298D01*
X0091235Y0039355D01*
X0091212Y0039410D01*
X0091185Y0039465D01*
X0091156Y0039517D01*
X0091123Y0039568D01*
X0091087Y0039617D01*
X0091049Y0039663D01*
X0091007Y0039707D01*
X0090963Y0039749D01*
X0090917Y0039787D01*
X0090868Y0039823D01*
X0090817Y0039856D01*
X0090765Y0039885D01*
X0090710Y0039912D01*
X0090655Y0039935D01*
X0090598Y0039955D01*
X0090539Y0039971D01*
X0090480Y0039984D01*
X0090421Y0039993D01*
X0090360Y0039998D01*
X0090300Y0040000D01*
X0082800Y0035000D02*
X0078000Y0035000D01*
X0075500Y0035000D02*
X0070800Y0035000D01*
X0045800Y0070000D02*
X0045802Y0070154D01*
X0045808Y0070308D01*
X0045818Y0070462D01*
X0045832Y0070616D01*
X0045849Y0070769D01*
X0045871Y0070921D01*
X0045897Y0071073D01*
X0045926Y0071225D01*
X0045960Y0071375D01*
X0045997Y0071525D01*
X0046038Y0071673D01*
X0046083Y0071821D01*
X0046132Y0071967D01*
X0046184Y0072112D01*
X0046240Y0072255D01*
X0046300Y0072398D01*
X0046363Y0072538D01*
X0046430Y0072677D01*
X0046501Y0072814D01*
X0046575Y0072949D01*
X0046652Y0073082D01*
X0046733Y0073214D01*
X0046817Y0073343D01*
X0046905Y0073470D01*
X0046996Y0073594D01*
X0047089Y0073716D01*
X0047187Y0073836D01*
X0047287Y0073953D01*
X0047390Y0074068D01*
X0047496Y0074180D01*
X0047604Y0074289D01*
X0047716Y0074395D01*
X0047830Y0074499D01*
X0047947Y0074599D01*
X0048066Y0074697D01*
X0048188Y0074791D01*
X0048313Y0074882D01*
X0057800Y0070000D02*
X0057798Y0069848D01*
X0057792Y0069697D01*
X0057783Y0069546D01*
X0057769Y0069394D01*
X0057752Y0069244D01*
X0057731Y0069094D01*
X0057706Y0068944D01*
X0057678Y0068795D01*
X0057645Y0068647D01*
X0057609Y0068500D01*
X0057570Y0068353D01*
X0057526Y0068208D01*
X0057479Y0068064D01*
X0057428Y0067921D01*
X0057374Y0067780D01*
X0057316Y0067639D01*
X0057255Y0067501D01*
X0057190Y0067364D01*
X0057121Y0067228D01*
X0057050Y0067095D01*
X0056975Y0066963D01*
X0056896Y0066833D01*
X0056815Y0066706D01*
X0056730Y0066580D01*
X0056642Y0066456D01*
X0056551Y0066335D01*
X0056457Y0066216D01*
X0056359Y0066100D01*
X0056259Y0065986D01*
X0056157Y0065874D01*
X0056051Y0065766D01*
X0055943Y0065660D01*
X0055832Y0065556D01*
X0055718Y0065456D01*
X0055602Y0065358D01*
X0055483Y0065264D01*
X0057800Y0070000D02*
X0057798Y0070152D01*
X0057792Y0070303D01*
X0057783Y0070454D01*
X0057769Y0070606D01*
X0057752Y0070756D01*
X0057731Y0070906D01*
X0057706Y0071056D01*
X0057678Y0071205D01*
X0057645Y0071353D01*
X0057609Y0071500D01*
X0057570Y0071647D01*
X0057526Y0071792D01*
X0057479Y0071936D01*
X0057428Y0072079D01*
X0057374Y0072220D01*
X0057316Y0072361D01*
X0057255Y0072499D01*
X0057190Y0072636D01*
X0057121Y0072772D01*
X0057050Y0072905D01*
X0056975Y0073037D01*
X0056896Y0073167D01*
X0056815Y0073294D01*
X0056730Y0073420D01*
X0056642Y0073544D01*
X0056551Y0073665D01*
X0056457Y0073784D01*
X0056359Y0073900D01*
X0056259Y0074014D01*
X0056157Y0074126D01*
X0056051Y0074234D01*
X0055943Y0074340D01*
X0055832Y0074444D01*
X0055718Y0074544D01*
X0055602Y0074642D01*
X0055483Y0074736D01*
X0045800Y0070000D02*
X0045802Y0069850D01*
X0045808Y0069699D01*
X0045817Y0069549D01*
X0045830Y0069400D01*
X0045847Y0069250D01*
X0045868Y0069101D01*
X0045892Y0068953D01*
X0045920Y0068805D01*
X0045952Y0068658D01*
X0045987Y0068512D01*
X0046027Y0068367D01*
X0046069Y0068223D01*
X0046116Y0068080D01*
X0046166Y0067938D01*
X0046219Y0067797D01*
X0046276Y0067658D01*
X0046336Y0067520D01*
X0046400Y0067384D01*
X0046467Y0067250D01*
X0046538Y0067117D01*
X0046612Y0066986D01*
X0046689Y0066857D01*
X0046770Y0066730D01*
X0046853Y0066605D01*
X0046940Y0066482D01*
X0047029Y0066361D01*
X0047122Y0066243D01*
X0047218Y0066127D01*
X0047316Y0066013D01*
X0047417Y0065902D01*
X0047522Y0065793D01*
X0047628Y0065688D01*
X0047738Y0065584D01*
X0047850Y0065484D01*
X0047964Y0065386D01*
X0048081Y0065292D01*
X0048200Y0065200D01*
X0048300Y0087500D02*
X0048240Y0087502D01*
X0048179Y0087507D01*
X0048120Y0087516D01*
X0048061Y0087529D01*
X0048002Y0087545D01*
X0047945Y0087565D01*
X0047890Y0087588D01*
X0047835Y0087615D01*
X0047783Y0087644D01*
X0047732Y0087677D01*
X0047683Y0087713D01*
X0047637Y0087751D01*
X0047593Y0087793D01*
X0047551Y0087837D01*
X0047513Y0087883D01*
X0047477Y0087932D01*
X0047444Y0087983D01*
X0047415Y0088035D01*
X0047388Y0088090D01*
X0047365Y0088145D01*
X0047345Y0088202D01*
X0047329Y0088261D01*
X0047316Y0088320D01*
X0047307Y0088379D01*
X0047302Y0088440D01*
X0047300Y0088500D01*
X0047300Y0090000D01*
X0047800Y0090500D01*
X0047800Y0109500D01*
X0047300Y0110000D01*
X0047300Y0111500D01*
X0047302Y0111560D01*
X0047307Y0111621D01*
X0047316Y0111680D01*
X0047329Y0111739D01*
X0047345Y0111798D01*
X0047365Y0111855D01*
X0047388Y0111910D01*
X0047415Y0111965D01*
X0047444Y0112017D01*
X0047477Y0112068D01*
X0047513Y0112117D01*
X0047551Y0112163D01*
X0047593Y0112207D01*
X0047637Y0112249D01*
X0047683Y0112287D01*
X0047732Y0112323D01*
X0047783Y0112356D01*
X0047835Y0112385D01*
X0047890Y0112412D01*
X0047945Y0112435D01*
X0048002Y0112455D01*
X0048061Y0112471D01*
X0048120Y0112484D01*
X0048179Y0112493D01*
X0048240Y0112498D01*
X0048300Y0112500D01*
X0055300Y0112500D02*
X0055360Y0112498D01*
X0055421Y0112493D01*
X0055480Y0112484D01*
X0055539Y0112471D01*
X0055598Y0112455D01*
X0055655Y0112435D01*
X0055710Y0112412D01*
X0055765Y0112385D01*
X0055817Y0112356D01*
X0055868Y0112323D01*
X0055917Y0112287D01*
X0055963Y0112249D01*
X0056007Y0112207D01*
X0056049Y0112163D01*
X0056087Y0112117D01*
X0056123Y0112068D01*
X0056156Y0112017D01*
X0056185Y0111965D01*
X0056212Y0111910D01*
X0056235Y0111855D01*
X0056255Y0111798D01*
X0056271Y0111739D01*
X0056284Y0111680D01*
X0056293Y0111621D01*
X0056298Y0111560D01*
X0056300Y0111500D01*
X0056300Y0110000D01*
X0055800Y0109500D01*
X0055800Y0090500D01*
X0056300Y0090000D01*
X0056300Y0088500D01*
X0056298Y0088440D01*
X0056293Y0088379D01*
X0056284Y0088320D01*
X0056271Y0088261D01*
X0056255Y0088202D01*
X0056235Y0088145D01*
X0056212Y0088090D01*
X0056185Y0088035D01*
X0056156Y0087983D01*
X0056123Y0087932D01*
X0056087Y0087883D01*
X0056049Y0087837D01*
X0056007Y0087793D01*
X0055963Y0087751D01*
X0055917Y0087713D01*
X0055868Y0087677D01*
X0055817Y0087644D01*
X0055765Y0087615D01*
X0055710Y0087588D01*
X0055655Y0087565D01*
X0055598Y0087545D01*
X0055539Y0087529D01*
X0055480Y0087516D01*
X0055421Y0087507D01*
X0055360Y0087502D01*
X0055300Y0087500D01*
X0039800Y0090000D02*
X0039800Y0130000D01*
X0018800Y0130000D01*
X0018800Y0090000D01*
X0039800Y0090000D01*
X0029300Y0100000D02*
X0029300Y0110000D01*
X0031600Y0110000D01*
X0031600Y0111500D01*
X0029300Y0110000D02*
X0027000Y0110000D01*
X0027000Y0108500D01*
X0029300Y0110000D02*
X0027000Y0105000D01*
X0031600Y0105000D01*
X0029300Y0110000D01*
X0029300Y0115000D01*
X0151800Y0217500D02*
X0151800Y0222500D01*
X0161800Y0222500D02*
X0161800Y0217500D01*
X0171800Y0217500D02*
X0174300Y0215000D01*
X0179300Y0215000D01*
X0181800Y0217500D01*
X0184300Y0215000D01*
X0189300Y0215000D01*
X0191800Y0217500D01*
X0194300Y0215000D01*
X0199300Y0215000D01*
X0201800Y0217500D01*
X0201800Y0222500D01*
X0199300Y0225000D01*
X0194300Y0225000D01*
X0191800Y0222500D01*
X0191800Y0217500D01*
X0191800Y0222500D02*
X0189300Y0225000D01*
X0184300Y0225000D01*
X0181800Y0222500D01*
X0181800Y0217500D01*
X0181800Y0222500D02*
X0179300Y0225000D01*
X0174300Y0225000D01*
X0171800Y0222500D01*
X0176500Y0175428D02*
X0176500Y0173693D01*
X0176500Y0174560D02*
X0173898Y0174560D01*
X0174765Y0173693D01*
X0175633Y0172481D02*
X0173898Y0172481D01*
X0173898Y0170747D02*
X0175633Y0170747D01*
X0176500Y0171614D01*
X0175633Y0172481D01*
X0175199Y0169535D02*
X0175199Y0167800D01*
X0176500Y0167800D02*
X0173898Y0167800D01*
X0173898Y0169535D02*
X0176500Y0169535D01*
X0183898Y0169535D02*
X0186500Y0169535D01*
X0185199Y0169535D02*
X0185199Y0167800D01*
X0186500Y0167800D02*
X0183898Y0167800D01*
X0183898Y0170747D02*
X0185633Y0170747D01*
X0186500Y0171614D01*
X0185633Y0172481D01*
X0183898Y0172481D01*
X0184331Y0173693D02*
X0183898Y0174127D01*
X0183898Y0174994D01*
X0184331Y0175428D01*
X0184765Y0175428D01*
X0186500Y0173693D01*
X0186500Y0175428D01*
X0193898Y0174981D02*
X0195633Y0174981D01*
X0196500Y0174114D01*
X0195633Y0173247D01*
X0193898Y0173247D01*
X0193898Y0172035D02*
X0196500Y0172035D01*
X0195199Y0172035D02*
X0195199Y0170300D01*
X0196500Y0170300D02*
X0193898Y0170300D01*
X0203898Y0170747D02*
X0206500Y0172481D01*
X0203898Y0172481D01*
X0203898Y0173693D02*
X0203898Y0174994D01*
X0204331Y0175428D01*
X0206066Y0175428D01*
X0206500Y0174994D01*
X0206500Y0173693D01*
X0203898Y0173693D01*
X0203898Y0170747D02*
X0206500Y0170747D01*
X0206066Y0169535D02*
X0205199Y0169535D01*
X0205199Y0168667D01*
X0206066Y0167800D02*
X0206500Y0168234D01*
X0206500Y0169101D01*
X0206066Y0169535D01*
X0204331Y0169535D02*
X0203898Y0169101D01*
X0203898Y0168234D01*
X0204331Y0167800D01*
X0206066Y0167800D01*
X0213898Y0167800D02*
X0216500Y0167800D01*
X0215199Y0167800D02*
X0215199Y0169535D01*
X0215633Y0170747D02*
X0213898Y0170747D01*
X0213898Y0169535D02*
X0216500Y0169535D01*
X0215633Y0170747D02*
X0216500Y0171614D01*
X0215633Y0172481D01*
X0213898Y0172481D01*
X0214331Y0173693D02*
X0213898Y0174127D01*
X0213898Y0174994D01*
X0214331Y0175428D01*
X0214765Y0175428D01*
X0215199Y0174994D01*
X0215633Y0175428D01*
X0216066Y0175428D01*
X0216500Y0174994D01*
X0216500Y0174127D01*
X0216066Y0173693D01*
X0215199Y0174560D02*
X0215199Y0174994D01*
X0223898Y0174994D02*
X0225199Y0173693D01*
X0225199Y0175428D01*
X0226500Y0174994D02*
X0223898Y0174994D01*
X0223898Y0172481D02*
X0225633Y0172481D01*
X0226500Y0171614D01*
X0225633Y0170747D01*
X0223898Y0170747D01*
X0223898Y0169535D02*
X0226500Y0169535D01*
X0225199Y0169535D02*
X0225199Y0167800D01*
X0226500Y0167800D02*
X0223898Y0167800D01*
X0225199Y0152928D02*
X0225199Y0151193D01*
X0223898Y0152494D01*
X0226500Y0152494D01*
X0225633Y0149981D02*
X0223898Y0149981D01*
X0223898Y0148247D02*
X0225633Y0148247D01*
X0226500Y0149114D01*
X0225633Y0149981D01*
X0226500Y0147035D02*
X0226500Y0145300D01*
X0223898Y0145300D01*
X0216500Y0145300D02*
X0216500Y0147035D01*
X0215633Y0148247D02*
X0213898Y0148247D01*
X0213898Y0149981D02*
X0215633Y0149981D01*
X0216500Y0149114D01*
X0215633Y0148247D01*
X0216066Y0151193D02*
X0216500Y0151627D01*
X0216500Y0152494D01*
X0216066Y0152928D01*
X0215633Y0152928D01*
X0215199Y0152494D01*
X0215199Y0152060D01*
X0215199Y0152494D02*
X0214765Y0152928D01*
X0214331Y0152928D01*
X0213898Y0152494D01*
X0213898Y0151627D01*
X0214331Y0151193D01*
X0213898Y0145300D02*
X0216500Y0145300D01*
X0206500Y0145734D02*
X0206500Y0146601D01*
X0206066Y0147035D01*
X0205199Y0147035D01*
X0205199Y0146167D01*
X0206066Y0145300D02*
X0206500Y0145734D01*
X0206066Y0145300D02*
X0204331Y0145300D01*
X0203898Y0145734D01*
X0203898Y0146601D01*
X0204331Y0147035D01*
X0203898Y0148247D02*
X0206500Y0149981D01*
X0203898Y0149981D01*
X0203898Y0151193D02*
X0203898Y0152494D01*
X0204331Y0152928D01*
X0206066Y0152928D01*
X0206500Y0152494D01*
X0206500Y0151193D01*
X0203898Y0151193D01*
X0203898Y0148247D02*
X0206500Y0148247D01*
X0196500Y0149114D02*
X0195633Y0149981D01*
X0193898Y0149981D01*
X0193898Y0148247D02*
X0195633Y0148247D01*
X0196500Y0149114D01*
X0196500Y0147035D02*
X0196500Y0145300D01*
X0193898Y0145300D01*
X0186500Y0145300D02*
X0186500Y0147035D01*
X0185633Y0148247D02*
X0183898Y0148247D01*
X0183898Y0149981D02*
X0185633Y0149981D01*
X0186500Y0149114D01*
X0185633Y0148247D01*
X0186500Y0151193D02*
X0184765Y0152928D01*
X0184331Y0152928D01*
X0183898Y0152494D01*
X0183898Y0151627D01*
X0184331Y0151193D01*
X0186500Y0151193D02*
X0186500Y0152928D01*
X0186500Y0145300D02*
X0183898Y0145300D01*
X0176500Y0145300D02*
X0176500Y0147035D01*
X0175633Y0148247D02*
X0173898Y0148247D01*
X0173898Y0149981D02*
X0175633Y0149981D01*
X0176500Y0149114D01*
X0175633Y0148247D01*
X0176500Y0151193D02*
X0176500Y0152928D01*
X0176500Y0152060D02*
X0173898Y0152060D01*
X0174765Y0151193D01*
X0173898Y0145300D02*
X0176500Y0145300D01*
X0178300Y0062500D02*
X0205300Y0062500D01*
X0205360Y0062498D01*
X0205421Y0062493D01*
X0205480Y0062484D01*
X0205539Y0062471D01*
X0205598Y0062455D01*
X0205655Y0062435D01*
X0205710Y0062412D01*
X0205765Y0062385D01*
X0205817Y0062356D01*
X0205868Y0062323D01*
X0205917Y0062287D01*
X0205963Y0062249D01*
X0206007Y0062207D01*
X0206049Y0062163D01*
X0206087Y0062117D01*
X0206123Y0062068D01*
X0206156Y0062017D01*
X0206185Y0061965D01*
X0206212Y0061910D01*
X0206235Y0061855D01*
X0206255Y0061798D01*
X0206271Y0061739D01*
X0206284Y0061680D01*
X0206293Y0061621D01*
X0206298Y0061560D01*
X0206300Y0061500D01*
X0206300Y0053500D01*
X0206298Y0053440D01*
X0206293Y0053379D01*
X0206284Y0053320D01*
X0206271Y0053261D01*
X0206255Y0053202D01*
X0206235Y0053145D01*
X0206212Y0053090D01*
X0206185Y0053035D01*
X0206156Y0052983D01*
X0206123Y0052932D01*
X0206087Y0052883D01*
X0206049Y0052837D01*
X0206007Y0052793D01*
X0205963Y0052751D01*
X0205917Y0052713D01*
X0205868Y0052677D01*
X0205817Y0052644D01*
X0205765Y0052615D01*
X0205710Y0052588D01*
X0205655Y0052565D01*
X0205598Y0052545D01*
X0205539Y0052529D01*
X0205480Y0052516D01*
X0205421Y0052507D01*
X0205360Y0052502D01*
X0205300Y0052500D01*
X0178300Y0052500D01*
X0178240Y0052502D01*
X0178179Y0052507D01*
X0178120Y0052516D01*
X0178061Y0052529D01*
X0178002Y0052545D01*
X0177945Y0052565D01*
X0177890Y0052588D01*
X0177835Y0052615D01*
X0177783Y0052644D01*
X0177732Y0052677D01*
X0177683Y0052713D01*
X0177637Y0052751D01*
X0177593Y0052793D01*
X0177551Y0052837D01*
X0177513Y0052883D01*
X0177477Y0052932D01*
X0177444Y0052983D01*
X0177415Y0053035D01*
X0177388Y0053090D01*
X0177365Y0053145D01*
X0177345Y0053202D01*
X0177329Y0053261D01*
X0177316Y0053320D01*
X0177307Y0053379D01*
X0177302Y0053440D01*
X0177300Y0053500D01*
X0177300Y0061500D01*
X0177302Y0061560D01*
X0177307Y0061621D01*
X0177316Y0061680D01*
X0177329Y0061739D01*
X0177345Y0061798D01*
X0177365Y0061855D01*
X0177388Y0061910D01*
X0177415Y0061965D01*
X0177444Y0062017D01*
X0177477Y0062068D01*
X0177513Y0062117D01*
X0177551Y0062163D01*
X0177593Y0062207D01*
X0177637Y0062249D01*
X0177683Y0062287D01*
X0177732Y0062323D01*
X0177783Y0062356D01*
X0177835Y0062385D01*
X0177890Y0062412D01*
X0177945Y0062435D01*
X0178002Y0062455D01*
X0178061Y0062471D01*
X0178120Y0062484D01*
X0178179Y0062493D01*
X0178240Y0062498D01*
X0178300Y0062500D01*
X0185800Y0057500D02*
X0190600Y0057500D01*
X0193100Y0057500D02*
X0197800Y0057500D01*
D12*
X0186156Y0064250D02*
X0183154Y0064250D01*
X0184655Y0064250D02*
X0184655Y0068754D01*
X0183154Y0067253D01*
X0181553Y0068003D02*
X0180802Y0068754D01*
X0179301Y0068754D01*
X0178550Y0068003D01*
X0178550Y0065001D01*
X0179301Y0064250D01*
X0180802Y0064250D01*
X0181553Y0065001D01*
X0122949Y0089750D02*
X0119946Y0089750D01*
X0122949Y0092753D01*
X0122949Y0093503D01*
X0122198Y0094254D01*
X0120697Y0094254D01*
X0119946Y0093503D01*
X0118345Y0093503D02*
X0118345Y0092002D01*
X0117594Y0091251D01*
X0115342Y0091251D01*
X0115342Y0089750D02*
X0115342Y0094254D01*
X0117594Y0094254D01*
X0118345Y0093503D01*
X0116843Y0091251D02*
X0118345Y0089750D01*
X0112156Y0090750D02*
X0109154Y0090750D01*
X0110655Y0090750D02*
X0110655Y0095254D01*
X0109154Y0093753D01*
X0107553Y0094503D02*
X0107553Y0093002D01*
X0106802Y0092251D01*
X0104550Y0092251D01*
X0104550Y0090750D02*
X0104550Y0095254D01*
X0106802Y0095254D01*
X0107553Y0094503D01*
X0106051Y0092251D02*
X0107553Y0090750D01*
X0062050Y0101042D02*
X0057546Y0101042D01*
X0057546Y0103294D01*
X0058297Y0104045D01*
X0059798Y0104045D01*
X0060549Y0103294D01*
X0060549Y0101042D01*
X0060549Y0102543D02*
X0062050Y0104045D01*
X0061299Y0105646D02*
X0062050Y0106397D01*
X0062050Y0107898D01*
X0061299Y0108649D01*
X0060549Y0108649D01*
X0059798Y0107898D01*
X0059798Y0107147D01*
X0059798Y0107898D02*
X0059047Y0108649D01*
X0058297Y0108649D01*
X0057546Y0107898D01*
X0057546Y0106397D01*
X0058297Y0105646D01*
X0050050Y0094564D02*
X0050050Y0091562D01*
X0050050Y0093063D02*
X0045546Y0093063D01*
X0047047Y0091562D01*
X0046297Y0089960D02*
X0045546Y0089210D01*
X0045546Y0086958D01*
X0050050Y0086958D01*
X0050050Y0089210D01*
X0049299Y0089960D01*
X0046297Y0089960D01*
X0045546Y0085356D02*
X0045546Y0082354D01*
X0050050Y0082354D01*
X0050050Y0085356D01*
X0047798Y0083855D02*
X0047798Y0082354D01*
X0050050Y0080753D02*
X0050050Y0077750D01*
X0045546Y0077750D01*
X0045550Y0121042D02*
X0041046Y0121042D01*
X0041046Y0123294D01*
X0041797Y0124045D01*
X0044799Y0124045D01*
X0045550Y0123294D01*
X0045550Y0121042D01*
X0045550Y0125646D02*
X0045550Y0128649D01*
X0045550Y0127147D02*
X0041046Y0127147D01*
X0042547Y0125646D01*
X0076046Y0159334D02*
X0080550Y0159334D01*
X0080550Y0162337D01*
X0080550Y0163938D02*
X0080550Y0166941D01*
X0080550Y0168542D02*
X0076046Y0168542D01*
X0076046Y0170794D01*
X0076797Y0171545D01*
X0079799Y0171545D01*
X0080550Y0170794D01*
X0080550Y0168542D01*
X0078298Y0165439D02*
X0078298Y0163938D01*
X0076046Y0163938D02*
X0080550Y0163938D01*
X0076046Y0163938D02*
X0076046Y0166941D01*
X0076797Y0173146D02*
X0076046Y0173897D01*
X0076046Y0175398D01*
X0076797Y0176149D01*
X0077547Y0176149D01*
X0080550Y0173146D01*
X0080550Y0176149D01*
X0058249Y0178050D02*
X0056747Y0179551D01*
X0057498Y0179551D02*
X0055246Y0179551D01*
X0056406Y0180254D02*
X0054154Y0178002D01*
X0057156Y0178002D01*
X0057498Y0179551D02*
X0058249Y0180302D01*
X0058249Y0181803D01*
X0057498Y0182554D01*
X0055246Y0182554D01*
X0055246Y0178050D01*
X0053645Y0178050D02*
X0050642Y0178050D01*
X0050642Y0182554D01*
X0053645Y0182554D01*
X0052143Y0180302D02*
X0050642Y0180302D01*
X0049550Y0180254D02*
X0051802Y0180254D01*
X0052553Y0179503D01*
X0052553Y0178002D01*
X0051802Y0177251D01*
X0049550Y0177251D01*
X0049550Y0175750D02*
X0049550Y0180254D01*
X0049041Y0182554D02*
X0046038Y0182554D01*
X0047539Y0182554D02*
X0047539Y0178050D01*
X0044437Y0178050D02*
X0042935Y0179551D01*
X0043686Y0179551D02*
X0041434Y0179551D01*
X0041434Y0178050D02*
X0041434Y0182554D01*
X0043686Y0182554D01*
X0044437Y0181803D01*
X0044437Y0180302D01*
X0043686Y0179551D01*
X0039833Y0178050D02*
X0036830Y0178050D01*
X0036830Y0182554D01*
X0039833Y0182554D01*
X0038332Y0180302D02*
X0036830Y0180302D01*
X0035229Y0179551D02*
X0035229Y0182554D01*
X0032226Y0182554D02*
X0032226Y0179551D01*
X0033728Y0178050D01*
X0035229Y0179551D01*
X0030625Y0178050D02*
X0030625Y0182554D01*
X0027622Y0182554D02*
X0030625Y0178050D01*
X0027622Y0178050D02*
X0027622Y0182554D01*
X0026021Y0181803D02*
X0025270Y0182554D01*
X0023769Y0182554D01*
X0023018Y0181803D01*
X0023018Y0178801D01*
X0023769Y0178050D01*
X0025270Y0178050D01*
X0026021Y0178801D01*
X0026021Y0181803D01*
X0021417Y0181803D02*
X0020666Y0182554D01*
X0019165Y0182554D01*
X0018415Y0181803D01*
X0018415Y0178801D01*
X0019165Y0178050D01*
X0020666Y0178050D01*
X0021417Y0178801D01*
X0016813Y0178801D02*
X0016063Y0178050D01*
X0014561Y0178050D01*
X0013811Y0178801D01*
X0013811Y0181803D01*
X0014561Y0182554D01*
X0016063Y0182554D01*
X0016813Y0181803D01*
X0012209Y0181803D02*
X0012209Y0178801D01*
X0011459Y0178050D01*
X0009207Y0178050D01*
X0009207Y0182554D01*
X0011459Y0182554D01*
X0012209Y0181803D01*
X0051051Y0177251D02*
X0052553Y0175750D01*
X0056406Y0175750D02*
X0056406Y0180254D01*
X0071801Y0209250D02*
X0073302Y0209250D01*
X0074053Y0210001D01*
X0075654Y0210001D02*
X0075654Y0209250D01*
X0075654Y0210001D02*
X0078656Y0213003D01*
X0078656Y0213754D01*
X0075654Y0213754D01*
X0074053Y0213003D02*
X0073302Y0213754D01*
X0071801Y0213754D01*
X0071050Y0213003D01*
X0071050Y0210001D01*
X0071801Y0209250D01*
X0063688Y0227450D02*
X0062187Y0228951D01*
X0062937Y0228951D02*
X0060685Y0228951D01*
X0060685Y0227450D02*
X0060685Y0231954D01*
X0062937Y0231954D01*
X0063688Y0231203D01*
X0063688Y0229702D01*
X0062937Y0228951D01*
X0059084Y0227450D02*
X0056081Y0227450D01*
X0056081Y0231954D01*
X0059084Y0231954D01*
X0057583Y0229702D02*
X0056081Y0229702D01*
X0054480Y0231954D02*
X0051477Y0231954D01*
X0052979Y0231954D02*
X0052979Y0227450D01*
X0049876Y0227450D02*
X0046874Y0227450D01*
X0046874Y0231954D01*
X0049876Y0231954D01*
X0048375Y0229702D02*
X0046874Y0229702D01*
X0045272Y0231954D02*
X0045272Y0227450D01*
X0042270Y0227450D02*
X0042270Y0231954D01*
X0043771Y0230453D01*
X0045272Y0231954D01*
X0040668Y0231203D02*
X0040668Y0228201D01*
X0039918Y0227450D01*
X0038416Y0227450D01*
X0037666Y0228201D01*
X0037666Y0231203D01*
X0038416Y0231954D01*
X0039918Y0231954D01*
X0040668Y0231203D01*
X0036064Y0231954D02*
X0036064Y0227450D01*
X0033062Y0227450D02*
X0033062Y0231954D01*
X0034563Y0230453D01*
X0036064Y0231954D01*
X0031460Y0231203D02*
X0031460Y0229702D01*
X0030710Y0228951D01*
X0028458Y0228951D01*
X0028458Y0227450D02*
X0028458Y0231954D01*
X0030710Y0231954D01*
X0031460Y0231203D01*
X0029959Y0228951D02*
X0031460Y0227450D01*
X0026856Y0227450D02*
X0023854Y0227450D01*
X0023854Y0231954D01*
X0026856Y0231954D01*
X0025355Y0229702D02*
X0023854Y0229702D01*
X0022253Y0231954D02*
X0019250Y0231954D01*
X0020751Y0231954D02*
X0020751Y0227450D01*
X0031801Y0241750D02*
X0031050Y0242501D01*
X0031050Y0245503D01*
X0031801Y0246254D01*
X0033302Y0246254D01*
X0034053Y0245503D01*
X0035654Y0245503D02*
X0036405Y0246254D01*
X0037906Y0246254D01*
X0038656Y0245503D01*
X0038656Y0244753D01*
X0035654Y0241750D01*
X0038656Y0241750D01*
X0034053Y0242501D02*
X0033302Y0241750D01*
X0031801Y0241750D01*
X0104046Y0147856D02*
X0104797Y0146355D01*
X0106298Y0144854D01*
X0106298Y0147106D01*
X0107049Y0147856D01*
X0107799Y0147856D01*
X0108550Y0147106D01*
X0108550Y0145605D01*
X0107799Y0144854D01*
X0106298Y0144854D01*
X0106298Y0143253D02*
X0107049Y0142502D01*
X0107049Y0140250D01*
X0108550Y0140250D02*
X0104046Y0140250D01*
X0104046Y0142502D01*
X0104797Y0143253D01*
X0106298Y0143253D01*
X0107049Y0141751D02*
X0108550Y0143253D01*
X0114046Y0142502D02*
X0114046Y0140250D01*
X0118550Y0140250D01*
X0117049Y0140250D02*
X0117049Y0142502D01*
X0116298Y0143253D01*
X0114797Y0143253D01*
X0114046Y0142502D01*
X0114046Y0144854D02*
X0116298Y0144854D01*
X0115547Y0146355D01*
X0115547Y0147106D01*
X0116298Y0147856D01*
X0117799Y0147856D01*
X0118550Y0147106D01*
X0118550Y0145605D01*
X0117799Y0144854D01*
X0118550Y0143253D02*
X0117049Y0141751D01*
X0114046Y0144854D02*
X0114046Y0147856D01*
X0124046Y0147856D02*
X0124046Y0144854D01*
X0124797Y0143253D02*
X0126298Y0143253D01*
X0127049Y0142502D01*
X0127049Y0140250D01*
X0128550Y0140250D02*
X0124046Y0140250D01*
X0124046Y0142502D01*
X0124797Y0143253D01*
X0127049Y0141751D02*
X0128550Y0143253D01*
X0128550Y0144854D02*
X0127799Y0144854D01*
X0124797Y0147856D01*
X0124046Y0147856D01*
X0134143Y0191063D02*
X0134143Y0198937D01*
X0125818Y0206500D02*
X0124550Y0206500D01*
X0125818Y0207768D01*
X0125818Y0208085D01*
X0125501Y0208402D01*
X0124867Y0208402D01*
X0124550Y0208085D01*
X0123608Y0208085D02*
X0123291Y0208402D01*
X0122340Y0208402D01*
X0122340Y0206500D01*
X0123291Y0206500D01*
X0123608Y0206817D01*
X0123608Y0208085D01*
X0134143Y0198937D02*
X0134043Y0199177D01*
X0133938Y0199415D01*
X0133826Y0199651D01*
X0133709Y0199883D01*
X0133587Y0200112D01*
X0133459Y0200339D01*
X0133325Y0200562D01*
X0133186Y0200782D01*
X0133041Y0200998D01*
X0132891Y0201211D01*
X0132736Y0201420D01*
X0132576Y0201625D01*
X0132411Y0201826D01*
X0132241Y0202023D01*
X0132066Y0202216D01*
X0131887Y0202404D01*
X0131703Y0202588D01*
X0131515Y0202767D01*
X0131322Y0202942D01*
X0131125Y0203112D01*
X0130924Y0203277D01*
X0130718Y0203437D01*
X0130510Y0203592D01*
X0130297Y0203742D01*
X0130080Y0203886D01*
X0129861Y0204026D01*
X0129637Y0204159D01*
X0129411Y0204288D01*
X0129182Y0204410D01*
X0128949Y0204527D01*
X0128714Y0204638D01*
X0128476Y0204744D01*
X0128236Y0204843D01*
X0127993Y0204937D01*
X0127748Y0205025D01*
X0127501Y0205106D01*
X0127252Y0205182D01*
X0127001Y0205251D01*
X0126749Y0205314D01*
X0126495Y0205371D01*
X0126240Y0205422D01*
X0125984Y0205466D01*
X0125726Y0205505D01*
X0125468Y0205536D01*
X0125209Y0205562D01*
X0124950Y0205581D01*
X0124690Y0205594D01*
X0124430Y0205600D01*
X0124169Y0205600D01*
X0123909Y0205594D01*
X0123649Y0205581D01*
X0123390Y0205562D01*
X0123131Y0205536D01*
X0122873Y0205505D01*
X0122616Y0205466D01*
X0122359Y0205422D01*
X0122104Y0205371D01*
X0121850Y0205314D01*
X0121598Y0205251D01*
X0121347Y0205181D01*
X0121098Y0205106D01*
X0120851Y0205024D01*
X0120606Y0204937D01*
X0120363Y0204843D01*
X0120123Y0204743D01*
X0119885Y0204638D01*
X0119650Y0204527D01*
X0119418Y0204410D01*
X0119188Y0204287D01*
X0118962Y0204159D01*
X0118739Y0204025D01*
X0118519Y0203886D01*
X0118302Y0203741D01*
X0118090Y0203591D01*
X0117881Y0203436D01*
X0117676Y0203276D01*
X0117475Y0203111D01*
X0117278Y0202941D01*
X0117085Y0202767D01*
X0116896Y0202587D01*
X0116712Y0202403D01*
X0116533Y0202215D01*
X0116358Y0202022D01*
X0116188Y0201825D01*
X0116023Y0201624D01*
X0115863Y0201419D01*
X0115708Y0201210D01*
X0115558Y0200997D01*
X0115414Y0200781D01*
X0115275Y0200561D01*
X0115141Y0200338D01*
X0115013Y0200111D01*
X0114890Y0199882D01*
X0114773Y0199650D01*
X0114662Y0199414D01*
X0114556Y0199177D01*
X0114457Y0198936D01*
X0114363Y0198693D01*
X0114276Y0198449D01*
X0114194Y0198201D01*
X0114118Y0197953D01*
X0114049Y0197702D01*
X0113986Y0197449D01*
X0113929Y0197196D01*
X0113878Y0196940D01*
X0113834Y0196684D01*
X0113795Y0196427D01*
X0113764Y0196168D01*
X0113738Y0195910D01*
X0113719Y0195650D01*
X0113706Y0195390D01*
X0113700Y0195130D01*
X0113700Y0194870D01*
X0113706Y0194610D01*
X0113719Y0194350D01*
X0113738Y0194090D01*
X0113764Y0193832D01*
X0113795Y0193573D01*
X0113834Y0193316D01*
X0113878Y0193060D01*
X0113929Y0192804D01*
X0113986Y0192551D01*
X0114049Y0192298D01*
X0114118Y0192047D01*
X0114194Y0191799D01*
X0114276Y0191551D01*
X0114363Y0191307D01*
X0114457Y0191064D01*
X0114556Y0190823D01*
X0114662Y0190586D01*
X0114773Y0190350D01*
X0114890Y0190118D01*
X0115013Y0189889D01*
X0115141Y0189662D01*
X0115275Y0189439D01*
X0115414Y0189219D01*
X0115558Y0189003D01*
X0115708Y0188790D01*
X0115863Y0188581D01*
X0116023Y0188376D01*
X0116188Y0188175D01*
X0116358Y0187978D01*
X0116533Y0187785D01*
X0116712Y0187597D01*
X0116896Y0187413D01*
X0117085Y0187233D01*
X0117278Y0187059D01*
X0117475Y0186889D01*
X0117676Y0186724D01*
X0117881Y0186564D01*
X0118090Y0186409D01*
X0118302Y0186259D01*
X0118519Y0186114D01*
X0118739Y0185975D01*
X0118962Y0185841D01*
X0119188Y0185713D01*
X0119418Y0185590D01*
X0119650Y0185473D01*
X0119885Y0185362D01*
X0120123Y0185257D01*
X0120363Y0185157D01*
X0120606Y0185063D01*
X0120851Y0184976D01*
X0121098Y0184894D01*
X0121347Y0184819D01*
X0121598Y0184749D01*
X0121850Y0184686D01*
X0122104Y0184629D01*
X0122359Y0184578D01*
X0122616Y0184534D01*
X0122873Y0184495D01*
X0123131Y0184464D01*
X0123390Y0184438D01*
X0123649Y0184419D01*
X0123909Y0184406D01*
X0124169Y0184400D01*
X0124430Y0184400D01*
X0124690Y0184406D01*
X0124950Y0184419D01*
X0125209Y0184438D01*
X0125468Y0184464D01*
X0125726Y0184495D01*
X0125984Y0184534D01*
X0126240Y0184578D01*
X0126495Y0184629D01*
X0126749Y0184686D01*
X0127001Y0184749D01*
X0127252Y0184818D01*
X0127501Y0184894D01*
X0127748Y0184975D01*
X0127993Y0185063D01*
X0128236Y0185157D01*
X0128476Y0185256D01*
X0128714Y0185362D01*
X0128949Y0185473D01*
X0129182Y0185590D01*
X0129411Y0185712D01*
X0129637Y0185841D01*
X0129861Y0185974D01*
X0130080Y0186114D01*
X0130297Y0186258D01*
X0130510Y0186408D01*
X0130718Y0186563D01*
X0130924Y0186723D01*
X0131125Y0186888D01*
X0131322Y0187058D01*
X0131515Y0187233D01*
X0131703Y0187412D01*
X0131887Y0187596D01*
X0132066Y0187784D01*
X0132241Y0187977D01*
X0132411Y0188174D01*
X0132576Y0188375D01*
X0132736Y0188580D01*
X0132891Y0188789D01*
X0133041Y0189002D01*
X0133186Y0189218D01*
X0133325Y0189438D01*
X0133459Y0189661D01*
X0133587Y0189888D01*
X0133709Y0190117D01*
X0133826Y0190349D01*
X0133938Y0190585D01*
X0134043Y0190823D01*
X0134143Y0191063D01*
X0137093Y0221250D02*
X0138594Y0221250D01*
X0139345Y0222001D01*
X0140946Y0222001D02*
X0141697Y0221250D01*
X0143198Y0221250D01*
X0143949Y0222001D01*
X0143949Y0222751D01*
X0143198Y0223502D01*
X0142447Y0223502D01*
X0143198Y0223502D02*
X0143949Y0224253D01*
X0143949Y0225003D01*
X0143198Y0225754D01*
X0141697Y0225754D01*
X0140946Y0225003D01*
X0139345Y0225003D02*
X0138594Y0225754D01*
X0137093Y0225754D01*
X0136342Y0225003D01*
X0136342Y0222001D01*
X0137093Y0221250D01*
X0137030Y0227450D02*
X0135528Y0228951D01*
X0136279Y0228951D02*
X0134027Y0228951D01*
X0134027Y0227450D02*
X0134027Y0231954D01*
X0136279Y0231954D01*
X0137030Y0231203D01*
X0137030Y0229702D01*
X0136279Y0228951D01*
X0138631Y0228201D02*
X0138631Y0231203D01*
X0139382Y0231954D01*
X0140883Y0231954D01*
X0141634Y0231203D01*
X0141634Y0228201D01*
X0140883Y0227450D01*
X0139382Y0227450D01*
X0138631Y0228201D01*
X0143235Y0228201D02*
X0143986Y0227450D01*
X0145487Y0227450D01*
X0146238Y0228201D01*
X0146238Y0228951D01*
X0145487Y0229702D01*
X0143986Y0229702D01*
X0143235Y0230453D01*
X0143235Y0231203D01*
X0143986Y0231954D01*
X0145487Y0231954D01*
X0146238Y0231203D01*
X0147839Y0231954D02*
X0150091Y0231954D01*
X0150841Y0231203D01*
X0150841Y0228201D01*
X0150091Y0227450D01*
X0147839Y0227450D01*
X0147839Y0231954D01*
X0132426Y0231203D02*
X0131675Y0231954D01*
X0130174Y0231954D01*
X0129423Y0231203D01*
X0129423Y0228201D01*
X0130174Y0227450D01*
X0131675Y0227450D01*
X0132426Y0228201D01*
X0127855Y0227450D02*
X0126354Y0227450D01*
X0127105Y0227450D02*
X0127105Y0231954D01*
X0127855Y0231954D02*
X0126354Y0231954D01*
X0124753Y0231954D02*
X0124753Y0227450D01*
X0121750Y0227450D02*
X0121750Y0231954D01*
X0123251Y0230453D01*
X0124753Y0231954D01*
X0171800Y0185000D02*
X0231800Y0185000D01*
X0231800Y0135000D01*
X0171800Y0135000D01*
X0171800Y0185000D01*
X0178797Y0191699D02*
X0180389Y0193291D01*
X0181451Y0193291D01*
X0182512Y0192230D01*
X0182512Y0191168D01*
X0180920Y0189576D01*
X0181981Y0190637D02*
X0184105Y0190637D01*
X0184706Y0192300D02*
X0184175Y0192831D01*
X0184175Y0193893D01*
X0185237Y0194954D01*
X0186298Y0194954D01*
X0186829Y0194424D01*
X0186829Y0193362D01*
X0185768Y0192300D01*
X0184706Y0192300D01*
X0184175Y0193893D02*
X0183114Y0193893D01*
X0182583Y0194424D01*
X0182583Y0195485D01*
X0183645Y0196547D01*
X0184706Y0196547D01*
X0185237Y0196016D01*
X0185237Y0194954D01*
X0178797Y0191699D02*
X0181981Y0188514D01*
X0170550Y0161518D02*
X0170550Y0160250D01*
X0170550Y0160884D02*
X0168648Y0160884D01*
X0169282Y0160250D01*
X0169282Y0159308D02*
X0169599Y0158991D01*
X0169599Y0158040D01*
X0168648Y0158040D02*
X0168648Y0158991D01*
X0168965Y0159308D01*
X0169282Y0159308D01*
X0169599Y0158991D02*
X0169916Y0159308D01*
X0170233Y0159308D01*
X0170550Y0158991D01*
X0170550Y0158040D01*
X0168648Y0158040D01*
X0233048Y0156413D02*
X0233048Y0155779D01*
X0233365Y0155462D01*
X0234633Y0155462D01*
X0234950Y0155779D01*
X0234950Y0156413D01*
X0234633Y0156730D01*
X0235267Y0157672D02*
X0235267Y0158939D01*
X0234950Y0159882D02*
X0234950Y0161149D01*
X0234950Y0162091D02*
X0234950Y0163359D01*
X0234316Y0164301D02*
X0234950Y0164935D01*
X0234316Y0165569D01*
X0233048Y0165569D01*
X0233048Y0166511D02*
X0234950Y0166511D01*
X0234950Y0167779D01*
X0234950Y0168721D02*
X0234950Y0169989D01*
X0235267Y0170931D02*
X0235267Y0172199D01*
X0234633Y0173141D02*
X0234950Y0173458D01*
X0234950Y0174092D01*
X0234633Y0174409D01*
X0234633Y0175351D02*
X0234950Y0175668D01*
X0234950Y0176302D01*
X0234633Y0176618D01*
X0233365Y0176618D01*
X0233048Y0176302D01*
X0233048Y0175668D01*
X0233365Y0175351D01*
X0234633Y0175351D01*
X0233365Y0174409D02*
X0233048Y0174092D01*
X0233048Y0173458D01*
X0233365Y0173141D01*
X0234633Y0173141D01*
X0234950Y0168721D02*
X0233048Y0168721D01*
X0233048Y0167779D02*
X0233048Y0166511D01*
X0233999Y0166511D02*
X0233999Y0167145D01*
X0234316Y0164301D02*
X0233048Y0164301D01*
X0233048Y0163359D02*
X0233048Y0162091D01*
X0234950Y0162091D01*
X0233999Y0162091D02*
X0233999Y0162725D01*
X0233048Y0159882D02*
X0234950Y0159882D01*
X0233365Y0156730D02*
X0233048Y0156413D01*
X0233048Y0154622D02*
X0233048Y0153989D01*
X0233048Y0154305D02*
X0234950Y0154305D01*
X0234950Y0153989D02*
X0234950Y0154622D01*
X0234633Y0153046D02*
X0233999Y0153046D01*
X0233999Y0152413D01*
X0233365Y0153046D02*
X0233048Y0152729D01*
X0233048Y0152096D01*
X0233365Y0151779D01*
X0234633Y0151779D01*
X0234950Y0152096D01*
X0234950Y0152729D01*
X0234633Y0153046D01*
X0234633Y0150837D02*
X0233365Y0150837D01*
X0233048Y0150520D01*
X0233048Y0149886D01*
X0233365Y0149569D01*
X0234633Y0149569D01*
X0234950Y0149886D01*
X0234950Y0150520D01*
X0234633Y0150837D01*
X0234950Y0148627D02*
X0234950Y0147359D01*
X0233048Y0147359D01*
X0235267Y0146417D02*
X0235267Y0145149D01*
X0234950Y0144207D02*
X0233048Y0144207D01*
X0233048Y0142939D02*
X0234950Y0144207D01*
X0234950Y0142939D02*
X0233048Y0142939D01*
X0233048Y0141997D02*
X0234633Y0141997D01*
X0234950Y0141680D01*
X0234950Y0141046D01*
X0234633Y0140729D01*
X0233048Y0140729D01*
X0233048Y0139787D02*
X0233048Y0138519D01*
X0234950Y0138519D01*
X0234950Y0137577D02*
X0233999Y0136626D01*
X0234316Y0136310D02*
X0233048Y0137577D01*
X0233048Y0136310D02*
X0234950Y0136310D01*
X0234950Y0135367D02*
X0234316Y0134734D01*
X0234316Y0135050D02*
X0234316Y0134100D01*
X0234950Y0134100D02*
X0233048Y0134100D01*
X0233048Y0135050D01*
X0233365Y0135367D01*
X0233999Y0135367D01*
X0234316Y0135050D01*
X0233999Y0133157D02*
X0233999Y0131890D01*
X0233682Y0131890D02*
X0233048Y0132524D01*
X0233682Y0133157D01*
X0234950Y0133157D01*
X0234950Y0131890D02*
X0233682Y0131890D01*
X0233365Y0130948D02*
X0233999Y0130948D01*
X0234316Y0130631D01*
X0234316Y0129680D01*
X0234950Y0129680D02*
X0233048Y0129680D01*
X0233048Y0130631D01*
X0233365Y0130948D01*
X0233365Y0128738D02*
X0233048Y0128421D01*
X0233048Y0127787D01*
X0233365Y0127470D01*
X0233682Y0127470D01*
X0233999Y0127787D01*
X0233999Y0128421D01*
X0234316Y0128738D01*
X0234633Y0128738D01*
X0234950Y0128421D01*
X0234950Y0127787D01*
X0234633Y0127470D01*
X0233999Y0138519D02*
X0233999Y0139153D01*
X0233048Y0177561D02*
X0234950Y0178828D01*
X0233048Y0178828D01*
X0233048Y0179770D02*
X0234316Y0179770D01*
X0234950Y0180404D01*
X0234316Y0181038D01*
X0233048Y0181038D01*
X0233048Y0181980D02*
X0234950Y0181980D01*
X0234950Y0183248D01*
X0234950Y0184190D02*
X0233048Y0184190D01*
X0233048Y0185141D01*
X0233365Y0185458D01*
X0233999Y0185458D01*
X0234316Y0185141D01*
X0234316Y0184190D01*
X0234316Y0184824D02*
X0234950Y0185458D01*
X0234950Y0187034D02*
X0233048Y0187034D01*
X0233048Y0186400D02*
X0233048Y0187668D01*
X0233048Y0188610D02*
X0234950Y0188610D01*
X0234950Y0189878D01*
X0234950Y0190820D02*
X0233048Y0190820D01*
X0233048Y0191771D01*
X0233365Y0192088D01*
X0233999Y0192088D01*
X0234316Y0191771D01*
X0234316Y0190820D01*
X0234316Y0191454D02*
X0234950Y0192088D01*
X0233048Y0189878D02*
X0233048Y0188610D01*
X0233999Y0188610D02*
X0233999Y0189244D01*
X0233048Y0183248D02*
X0233048Y0181980D01*
X0233999Y0181980D02*
X0233999Y0182614D01*
X0234950Y0177561D02*
X0233048Y0177561D01*
X0088949Y0028254D02*
X0087447Y0027503D01*
X0085946Y0026002D01*
X0088198Y0026002D01*
X0088949Y0025251D01*
X0088949Y0024501D01*
X0088198Y0023750D01*
X0086697Y0023750D01*
X0085946Y0024501D01*
X0085946Y0026002D01*
X0084345Y0027503D02*
X0083594Y0028254D01*
X0082093Y0028254D01*
X0081342Y0027503D01*
X0081342Y0024501D01*
X0082093Y0023750D01*
X0083594Y0023750D01*
X0084345Y0024501D01*
X0026828Y0015335D02*
X0026511Y0015652D01*
X0025877Y0015652D01*
X0025560Y0015335D01*
X0024618Y0015652D02*
X0023984Y0015652D01*
X0024301Y0015652D02*
X0024301Y0014067D01*
X0023984Y0013750D01*
X0023667Y0013750D01*
X0023350Y0014067D01*
X0025560Y0013750D02*
X0026828Y0015018D01*
X0026828Y0015335D01*
X0026828Y0013750D02*
X0025560Y0013750D01*
D13*
X0029300Y0088250D03*
X0029300Y0131750D03*
D14*
X0029300Y0125000D03*
D15*
X0012183Y0017811D02*
X0046417Y0017811D01*
X0046417Y0037677D01*
X0046417Y0056181D02*
X0046417Y0061137D01*
X0038749Y0061137D01*
X0019851Y0061137D02*
X0012183Y0061137D01*
X0012183Y0017811D01*
D16*
X0055769Y0063054D02*
X0055938Y0063153D01*
X0056104Y0063257D01*
X0056268Y0063364D01*
X0056429Y0063475D01*
X0056587Y0063590D01*
X0056742Y0063709D01*
X0056895Y0063832D01*
X0057044Y0063958D01*
X0057190Y0064088D01*
X0057333Y0064222D01*
X0057473Y0064359D01*
X0057609Y0064499D01*
X0057742Y0064643D01*
X0057871Y0064790D01*
X0057997Y0064940D01*
X0058118Y0065093D01*
X0058237Y0065249D01*
X0058351Y0065408D01*
X0058461Y0065569D01*
X0058567Y0065734D01*
X0058670Y0065900D01*
X0058768Y0066070D01*
X0058862Y0066241D01*
X0058952Y0066415D01*
X0059037Y0066591D01*
X0059119Y0066769D01*
X0059195Y0066949D01*
X0059268Y0067131D01*
X0059336Y0067314D01*
X0059399Y0067499D01*
X0059458Y0067686D01*
X0059512Y0067874D01*
X0059562Y0068063D01*
X0059607Y0068253D01*
X0059647Y0068445D01*
X0059683Y0068637D01*
X0059714Y0068830D01*
X0059740Y0069024D01*
X0059762Y0069219D01*
X0059778Y0069414D01*
X0059790Y0069609D01*
X0059798Y0069805D01*
X0059800Y0070000D01*
X0048035Y0062941D02*
X0047867Y0063034D01*
X0047701Y0063130D01*
X0047537Y0063230D01*
X0047376Y0063335D01*
X0047217Y0063443D01*
X0047061Y0063555D01*
X0046907Y0063671D01*
X0046757Y0063790D01*
X0046609Y0063913D01*
X0046464Y0064039D01*
X0046323Y0064169D01*
X0046184Y0064302D01*
X0046049Y0064439D01*
X0045917Y0064579D01*
X0045789Y0064721D01*
X0045664Y0064867D01*
X0045542Y0065016D01*
X0045424Y0065168D01*
X0045310Y0065322D01*
X0045200Y0065480D01*
X0045093Y0065639D01*
X0044990Y0065802D01*
X0044891Y0065967D01*
X0044796Y0066134D01*
X0044706Y0066303D01*
X0044619Y0066474D01*
X0044536Y0066648D01*
X0044458Y0066823D01*
X0044384Y0067001D01*
X0044314Y0067180D01*
X0044248Y0067360D01*
X0044187Y0067542D01*
X0044130Y0067726D01*
X0044078Y0067911D01*
X0044030Y0068097D01*
X0043986Y0068284D01*
X0043947Y0068472D01*
X0043913Y0068661D01*
X0043883Y0068851D01*
X0043858Y0069041D01*
X0043837Y0069232D01*
X0043821Y0069424D01*
X0043809Y0069616D01*
X0043802Y0069808D01*
X0043800Y0070000D01*
X0056968Y0076107D02*
X0057114Y0075980D01*
X0057256Y0075851D01*
X0057396Y0075717D01*
X0057532Y0075581D01*
X0057665Y0075441D01*
X0057795Y0075298D01*
X0057921Y0075151D01*
X0058043Y0075002D01*
X0058162Y0074850D01*
X0058277Y0074695D01*
X0058389Y0074538D01*
X0058496Y0074378D01*
X0058600Y0074215D01*
X0058699Y0074049D01*
X0058795Y0073882D01*
X0058887Y0073712D01*
X0058974Y0073540D01*
X0059058Y0073366D01*
X0059137Y0073190D01*
X0059211Y0073012D01*
X0059282Y0072832D01*
X0059348Y0072651D01*
X0059410Y0072468D01*
X0059467Y0072284D01*
X0059520Y0072098D01*
X0059568Y0071911D01*
X0059612Y0071723D01*
X0059651Y0071534D01*
X0059686Y0071344D01*
X0059716Y0071154D01*
X0059742Y0070963D01*
X0059763Y0070771D01*
X0059779Y0070578D01*
X0059791Y0070386D01*
X0059798Y0070193D01*
X0059800Y0070000D01*
X0046678Y0076146D02*
X0046530Y0076019D01*
X0046385Y0075889D01*
X0046244Y0075756D01*
X0046105Y0075619D01*
X0045970Y0075479D01*
X0045839Y0075335D01*
X0045711Y0075188D01*
X0045586Y0075039D01*
X0045465Y0074886D01*
X0045348Y0074731D01*
X0045235Y0074572D01*
X0045126Y0074411D01*
X0045021Y0074247D01*
X0044919Y0074081D01*
X0044822Y0073912D01*
X0044729Y0073742D01*
X0044640Y0073568D01*
X0044555Y0073393D01*
X0044475Y0073216D01*
X0044399Y0073037D01*
X0044327Y0072856D01*
X0044260Y0072673D01*
X0044197Y0072489D01*
X0044139Y0072303D01*
X0044085Y0072116D01*
X0044036Y0071928D01*
X0043991Y0071738D01*
X0043951Y0071548D01*
X0043916Y0071356D01*
X0043885Y0071164D01*
X0043859Y0070971D01*
X0043838Y0070777D01*
X0043821Y0070583D01*
X0043809Y0070389D01*
X0043802Y0070195D01*
X0043800Y0070000D01*
X0082300Y0185000D02*
X0082298Y0185192D01*
X0082291Y0185384D01*
X0082279Y0185576D01*
X0082263Y0185768D01*
X0082242Y0185959D01*
X0082217Y0186149D01*
X0082187Y0186339D01*
X0082153Y0186528D01*
X0082114Y0186716D01*
X0082070Y0186903D01*
X0082022Y0187089D01*
X0081970Y0187274D01*
X0081913Y0187458D01*
X0081852Y0187640D01*
X0081786Y0187820D01*
X0081716Y0187999D01*
X0081642Y0188177D01*
X0081564Y0188352D01*
X0081481Y0188526D01*
X0081394Y0188697D01*
X0081304Y0188866D01*
X0081209Y0189033D01*
X0081110Y0189198D01*
X0081007Y0189361D01*
X0080900Y0189520D01*
X0080790Y0189678D01*
X0080676Y0189832D01*
X0080558Y0189984D01*
X0080436Y0190133D01*
X0080311Y0190279D01*
X0080183Y0190421D01*
X0080051Y0190561D01*
X0079916Y0190698D01*
X0079777Y0190831D01*
X0079636Y0190961D01*
X0079491Y0191087D01*
X0079343Y0191210D01*
X0079193Y0191329D01*
X0079039Y0191445D01*
X0078883Y0191557D01*
X0078724Y0191665D01*
X0078563Y0191770D01*
X0078399Y0191870D01*
X0078233Y0191966D01*
X0078065Y0192059D01*
X0070331Y0191946D02*
X0070162Y0191847D01*
X0069996Y0191743D01*
X0069832Y0191636D01*
X0069671Y0191525D01*
X0069513Y0191410D01*
X0069358Y0191291D01*
X0069205Y0191168D01*
X0069056Y0191042D01*
X0068910Y0190912D01*
X0068767Y0190778D01*
X0068627Y0190641D01*
X0068491Y0190501D01*
X0068358Y0190357D01*
X0068229Y0190210D01*
X0068103Y0190060D01*
X0067982Y0189907D01*
X0067863Y0189751D01*
X0067749Y0189592D01*
X0067639Y0189431D01*
X0067533Y0189266D01*
X0067430Y0189100D01*
X0067332Y0188930D01*
X0067238Y0188759D01*
X0067148Y0188585D01*
X0067063Y0188409D01*
X0066981Y0188231D01*
X0066905Y0188051D01*
X0066832Y0187869D01*
X0066764Y0187686D01*
X0066701Y0187501D01*
X0066642Y0187314D01*
X0066588Y0187126D01*
X0066538Y0186937D01*
X0066493Y0186747D01*
X0066453Y0186555D01*
X0066417Y0186363D01*
X0066386Y0186170D01*
X0066360Y0185976D01*
X0066338Y0185781D01*
X0066322Y0185586D01*
X0066310Y0185391D01*
X0066302Y0185195D01*
X0066300Y0185000D01*
X0066302Y0184807D01*
X0066309Y0184614D01*
X0066321Y0184422D01*
X0066337Y0184229D01*
X0066358Y0184037D01*
X0066384Y0183846D01*
X0066414Y0183656D01*
X0066449Y0183466D01*
X0066488Y0183277D01*
X0066532Y0183089D01*
X0066580Y0182902D01*
X0066633Y0182716D01*
X0066690Y0182532D01*
X0066752Y0182349D01*
X0066818Y0182168D01*
X0066889Y0181988D01*
X0066963Y0181810D01*
X0067042Y0181634D01*
X0067126Y0181460D01*
X0067213Y0181288D01*
X0067305Y0181118D01*
X0067401Y0180951D01*
X0067500Y0180785D01*
X0067604Y0180622D01*
X0067711Y0180462D01*
X0067823Y0180305D01*
X0067938Y0180150D01*
X0068057Y0179998D01*
X0068179Y0179849D01*
X0068305Y0179702D01*
X0068435Y0179559D01*
X0068568Y0179419D01*
X0068704Y0179283D01*
X0068844Y0179149D01*
X0068986Y0179020D01*
X0069132Y0178893D01*
X0079422Y0178854D02*
X0079570Y0178981D01*
X0079715Y0179111D01*
X0079856Y0179244D01*
X0079995Y0179381D01*
X0080130Y0179521D01*
X0080261Y0179665D01*
X0080389Y0179812D01*
X0080514Y0179961D01*
X0080635Y0180114D01*
X0080752Y0180269D01*
X0080865Y0180428D01*
X0080974Y0180589D01*
X0081079Y0180753D01*
X0081181Y0180919D01*
X0081278Y0181088D01*
X0081371Y0181258D01*
X0081460Y0181432D01*
X0081545Y0181607D01*
X0081625Y0181784D01*
X0081701Y0181963D01*
X0081773Y0182144D01*
X0081840Y0182327D01*
X0081903Y0182511D01*
X0081961Y0182697D01*
X0082015Y0182884D01*
X0082064Y0183072D01*
X0082109Y0183262D01*
X0082149Y0183452D01*
X0082184Y0183644D01*
X0082215Y0183836D01*
X0082241Y0184029D01*
X0082262Y0184223D01*
X0082279Y0184417D01*
X0082291Y0184611D01*
X0082298Y0184805D01*
X0082300Y0185000D01*
D17*
X0174300Y0118622D03*
X0174300Y0110748D03*
X0174300Y0102874D03*
X0174300Y0095000D03*
X0174300Y0087126D03*
X0174300Y0079252D03*
X0174300Y0071378D03*
X0235550Y0071378D03*
X0235550Y0079252D03*
X0235550Y0087126D03*
X0235550Y0095000D03*
X0235550Y0102874D03*
X0235550Y0110748D03*
X0235550Y0118622D03*
D18*
X0177179Y0195379D02*
X0181421Y0199621D01*
D19*
X0181371Y0204571D02*
X0181373Y0204712D01*
X0181379Y0204853D01*
X0181389Y0204993D01*
X0181403Y0205133D01*
X0181421Y0205273D01*
X0181442Y0205412D01*
X0181468Y0205551D01*
X0181497Y0205689D01*
X0181531Y0205825D01*
X0181568Y0205961D01*
X0181609Y0206096D01*
X0181654Y0206230D01*
X0181703Y0206362D01*
X0181755Y0206493D01*
X0181811Y0206622D01*
X0181871Y0206749D01*
X0181934Y0206875D01*
X0182000Y0206999D01*
X0182071Y0207122D01*
X0182144Y0207242D01*
X0182221Y0207360D01*
X0182301Y0207476D01*
X0182385Y0207589D01*
X0182471Y0207700D01*
X0182561Y0207809D01*
X0182654Y0207915D01*
X0182749Y0208018D01*
X0182848Y0208119D01*
X0182949Y0208217D01*
X0183053Y0208312D01*
X0183160Y0208404D01*
X0183269Y0208493D01*
X0183381Y0208578D01*
X0183495Y0208661D01*
X0183611Y0208741D01*
X0183730Y0208817D01*
X0183851Y0208889D01*
X0183973Y0208959D01*
X0184098Y0209024D01*
X0184224Y0209087D01*
X0184352Y0209145D01*
X0184482Y0209200D01*
X0184613Y0209252D01*
X0184746Y0209299D01*
X0184880Y0209343D01*
X0185015Y0209384D01*
X0185151Y0209420D01*
X0185288Y0209452D01*
X0185426Y0209481D01*
X0185564Y0209506D01*
X0185704Y0209526D01*
X0185844Y0209543D01*
X0185984Y0209556D01*
X0186125Y0209565D01*
X0186265Y0209570D01*
X0186406Y0209571D01*
X0186547Y0209568D01*
X0186688Y0209561D01*
X0186828Y0209550D01*
X0186968Y0209535D01*
X0187108Y0209516D01*
X0187247Y0209494D01*
X0187385Y0209467D01*
X0187523Y0209437D01*
X0187659Y0209402D01*
X0187795Y0209364D01*
X0187929Y0209322D01*
X0188063Y0209276D01*
X0188195Y0209227D01*
X0188325Y0209173D01*
X0188454Y0209116D01*
X0188581Y0209056D01*
X0188707Y0208992D01*
X0188830Y0208924D01*
X0188952Y0208853D01*
X0189072Y0208779D01*
X0189189Y0208701D01*
X0189304Y0208620D01*
X0189417Y0208536D01*
X0189528Y0208449D01*
X0189636Y0208358D01*
X0189741Y0208265D01*
X0189844Y0208168D01*
X0189944Y0208069D01*
X0190041Y0207967D01*
X0190135Y0207862D01*
X0190226Y0207755D01*
X0190314Y0207645D01*
X0190399Y0207533D01*
X0190481Y0207418D01*
X0190560Y0207301D01*
X0190635Y0207182D01*
X0190707Y0207061D01*
X0190775Y0206938D01*
X0190840Y0206813D01*
X0190902Y0206686D01*
X0190959Y0206557D01*
X0191014Y0206427D01*
X0191064Y0206296D01*
X0191111Y0206163D01*
X0191154Y0206029D01*
X0191193Y0205893D01*
X0191228Y0205757D01*
X0191260Y0205620D01*
X0191287Y0205482D01*
X0191311Y0205343D01*
X0191331Y0205203D01*
X0191347Y0205063D01*
X0191359Y0204923D01*
X0191367Y0204782D01*
X0191371Y0204641D01*
X0191371Y0204501D01*
X0191367Y0204360D01*
X0191359Y0204219D01*
X0191347Y0204079D01*
X0191331Y0203939D01*
X0191311Y0203799D01*
X0191287Y0203660D01*
X0191260Y0203522D01*
X0191228Y0203385D01*
X0191193Y0203249D01*
X0191154Y0203113D01*
X0191111Y0202979D01*
X0191064Y0202846D01*
X0191014Y0202715D01*
X0190959Y0202585D01*
X0190902Y0202456D01*
X0190840Y0202329D01*
X0190775Y0202204D01*
X0190707Y0202081D01*
X0190635Y0201960D01*
X0190560Y0201841D01*
X0190481Y0201724D01*
X0190399Y0201609D01*
X0190314Y0201497D01*
X0190226Y0201387D01*
X0190135Y0201280D01*
X0190041Y0201175D01*
X0189944Y0201073D01*
X0189844Y0200974D01*
X0189741Y0200877D01*
X0189636Y0200784D01*
X0189528Y0200693D01*
X0189417Y0200606D01*
X0189304Y0200522D01*
X0189189Y0200441D01*
X0189072Y0200363D01*
X0188952Y0200289D01*
X0188830Y0200218D01*
X0188707Y0200150D01*
X0188581Y0200086D01*
X0188454Y0200026D01*
X0188325Y0199969D01*
X0188195Y0199915D01*
X0188063Y0199866D01*
X0187929Y0199820D01*
X0187795Y0199778D01*
X0187659Y0199740D01*
X0187523Y0199705D01*
X0187385Y0199675D01*
X0187247Y0199648D01*
X0187108Y0199626D01*
X0186968Y0199607D01*
X0186828Y0199592D01*
X0186688Y0199581D01*
X0186547Y0199574D01*
X0186406Y0199571D01*
X0186265Y0199572D01*
X0186125Y0199577D01*
X0185984Y0199586D01*
X0185844Y0199599D01*
X0185704Y0199616D01*
X0185564Y0199636D01*
X0185426Y0199661D01*
X0185288Y0199690D01*
X0185151Y0199722D01*
X0185015Y0199758D01*
X0184880Y0199799D01*
X0184746Y0199843D01*
X0184613Y0199890D01*
X0184482Y0199942D01*
X0184352Y0199997D01*
X0184224Y0200055D01*
X0184098Y0200118D01*
X0183973Y0200183D01*
X0183851Y0200253D01*
X0183730Y0200325D01*
X0183611Y0200401D01*
X0183495Y0200481D01*
X0183381Y0200564D01*
X0183269Y0200649D01*
X0183160Y0200738D01*
X0183053Y0200830D01*
X0182949Y0200925D01*
X0182848Y0201023D01*
X0182749Y0201124D01*
X0182654Y0201227D01*
X0182561Y0201333D01*
X0182471Y0201442D01*
X0182385Y0201553D01*
X0182301Y0201666D01*
X0182221Y0201782D01*
X0182144Y0201900D01*
X0182071Y0202020D01*
X0182000Y0202143D01*
X0181934Y0202267D01*
X0181871Y0202393D01*
X0181811Y0202520D01*
X0181755Y0202649D01*
X0181703Y0202780D01*
X0181654Y0202912D01*
X0181609Y0203046D01*
X0181568Y0203181D01*
X0181531Y0203317D01*
X0181497Y0203453D01*
X0181468Y0203591D01*
X0181442Y0203730D01*
X0181421Y0203869D01*
X0181403Y0204009D01*
X0181389Y0204149D01*
X0181379Y0204289D01*
X0181373Y0204430D01*
X0181371Y0204571D01*
M02*
