G75*
%MOIN*%
%OFA0B0*%
%FSLAX25Y25*%
%IPPOS*%
%LPD*%
%AMOC8*
5,1,8,0,0,1.08239X$1,22.5*
%
%ADD10OC8,0.05200*%
%ADD11C,0.08850*%
%ADD12C,0.05000*%
%ADD13C,0.06000*%
%ADD14C,0.16598*%
%ADD15C,0.16200*%
%ADD16C,0.05150*%
%ADD17C,0.05150*%
%ADD18C,0.05600*%
%ADD19C,0.07400*%
%ADD20C,0.01040*%
D10*
X0051800Y0065000D03*
X0051800Y0075000D03*
X0051800Y0085000D03*
X0051800Y0115000D03*
X0099300Y0100000D03*
X0099300Y0085000D03*
X0129300Y0085000D03*
X0129300Y0100000D03*
X0124300Y0135000D03*
X0114300Y0135000D03*
X0134300Y0135000D03*
X0134300Y0165000D03*
X0124300Y0165000D03*
X0114300Y0165000D03*
X0094300Y0202500D03*
X0074300Y0202500D03*
X0074300Y0190000D03*
X0074300Y0180000D03*
X0074300Y0170000D03*
X0044300Y0170000D03*
X0034300Y0235000D03*
X0054300Y0235000D03*
X0121800Y0232500D03*
X0141800Y0232500D03*
X0181800Y0057500D03*
X0201800Y0057500D03*
X0086800Y0035000D03*
X0066800Y0035000D03*
D11*
X0029300Y0075575D02*
X0029300Y0084425D01*
X0029300Y0135575D02*
X0029300Y0144425D01*
D12*
X0116800Y0192500D02*
X0116800Y0197500D01*
X0121800Y0197500D02*
X0121800Y0192500D01*
X0126800Y0192500D02*
X0126800Y0197500D01*
X0131800Y0197500D02*
X0131800Y0192500D01*
D13*
X0126800Y0217000D02*
X0126800Y0223000D01*
X0136800Y0223000D02*
X0136800Y0217000D01*
X0146800Y0217000D02*
X0146800Y0223000D01*
X0156800Y0223000D02*
X0156800Y0217000D01*
X0166800Y0217000D02*
X0166800Y0223000D01*
X0176800Y0223000D02*
X0176800Y0217000D01*
X0186800Y0217000D02*
X0186800Y0223000D01*
X0196800Y0223000D02*
X0196800Y0217000D01*
X0104300Y0217000D02*
X0104300Y0223000D01*
X0094300Y0223000D02*
X0094300Y0217000D01*
X0084300Y0217000D02*
X0084300Y0223000D01*
X0074300Y0223000D02*
X0074300Y0217000D01*
X0064300Y0217000D02*
X0064300Y0223000D01*
X0054300Y0223000D02*
X0054300Y0217000D01*
X0044300Y0217000D02*
X0044300Y0223000D01*
X0034300Y0223000D02*
X0034300Y0217000D01*
X0024300Y0217000D02*
X0024300Y0223000D01*
X0024300Y0193000D02*
X0024300Y0187000D01*
X0034300Y0187000D02*
X0034300Y0193000D01*
X0044300Y0193000D02*
X0044300Y0187000D01*
X0054300Y0187000D02*
X0054300Y0193000D01*
D14*
X0029300Y0059637D03*
D15*
X0029400Y0030815D03*
X0044109Y0047126D03*
D16*
X0086725Y0045000D02*
X0091875Y0045000D01*
X0091875Y0055000D02*
X0086725Y0055000D01*
X0086725Y0065000D02*
X0091875Y0065000D01*
X0091875Y0075000D02*
X0086725Y0075000D01*
X0086725Y0085000D02*
X0091875Y0085000D01*
X0091875Y0095000D02*
X0086725Y0095000D01*
X0086725Y0105000D02*
X0091875Y0105000D01*
X0091875Y0115000D02*
X0086725Y0115000D01*
X0086725Y0125000D02*
X0091875Y0125000D01*
X0091875Y0135000D02*
X0086725Y0135000D01*
X0086725Y0145000D02*
X0091875Y0145000D01*
X0091875Y0155000D02*
X0086725Y0155000D01*
X0086725Y0165000D02*
X0091875Y0165000D01*
X0091875Y0175000D02*
X0086725Y0175000D01*
X0086725Y0185000D02*
X0091875Y0185000D01*
X0146725Y0185000D02*
X0151875Y0185000D01*
X0151875Y0175000D02*
X0146725Y0175000D01*
X0146725Y0165000D02*
X0151875Y0165000D01*
X0151875Y0155000D02*
X0146725Y0155000D01*
X0146725Y0145000D02*
X0151875Y0145000D01*
X0151875Y0135000D02*
X0146725Y0135000D01*
X0146725Y0125000D02*
X0151875Y0125000D01*
X0151875Y0115000D02*
X0146725Y0115000D01*
X0146725Y0105000D02*
X0151875Y0105000D01*
X0151875Y0095000D02*
X0146725Y0095000D01*
X0146725Y0085000D02*
X0151875Y0085000D01*
X0151875Y0075000D02*
X0146725Y0075000D01*
X0146725Y0065000D02*
X0151875Y0065000D01*
X0151875Y0055000D02*
X0146725Y0055000D01*
X0146725Y0045000D02*
X0151875Y0045000D01*
D17*
X0129300Y0040000D03*
X0129300Y0050000D03*
X0119300Y0050000D03*
X0119300Y0040000D03*
X0109300Y0040000D03*
X0109300Y0050000D03*
D18*
X0174300Y0071378D03*
X0174300Y0079252D03*
X0174300Y0087126D03*
X0174300Y0095000D03*
X0174300Y0102874D03*
X0174300Y0110748D03*
X0174300Y0118622D03*
X0235550Y0118622D03*
X0235550Y0110748D03*
X0235550Y0102874D03*
X0235550Y0095000D03*
X0235550Y0087126D03*
X0235550Y0079252D03*
X0235550Y0071378D03*
D19*
X0226800Y0140000D03*
X0216800Y0140000D03*
X0206800Y0140000D03*
X0196800Y0140000D03*
X0186800Y0140000D03*
X0176800Y0140000D03*
X0176800Y0180000D03*
X0186800Y0180000D03*
X0196800Y0180000D03*
X0206800Y0180000D03*
X0216800Y0180000D03*
X0226800Y0180000D03*
D20*
X0184812Y0204230D02*
X0184292Y0203710D01*
X0184292Y0205432D01*
X0185510Y0206650D01*
X0187232Y0206650D01*
X0188450Y0205432D01*
X0188450Y0203710D01*
X0187232Y0202492D01*
X0185510Y0202492D01*
X0184292Y0203710D01*
X0185072Y0204033D01*
X0185072Y0205109D01*
X0185833Y0205870D01*
X0186909Y0205870D01*
X0187670Y0205109D01*
X0187670Y0204033D01*
X0186909Y0203272D01*
X0185833Y0203272D01*
X0185072Y0204033D01*
X0185852Y0204356D01*
X0185852Y0204786D01*
X0186156Y0205090D01*
X0186586Y0205090D01*
X0186890Y0204786D01*
X0186890Y0204356D01*
X0186586Y0204052D01*
X0186156Y0204052D01*
X0185852Y0204356D01*
X0170670Y0190088D02*
X0170150Y0189568D01*
X0170150Y0191290D01*
X0171368Y0192508D01*
X0173090Y0192508D01*
X0174308Y0191290D01*
X0174308Y0189568D01*
X0173090Y0188350D01*
X0171368Y0188350D01*
X0170150Y0189568D01*
X0170930Y0189891D01*
X0170930Y0190967D01*
X0171691Y0191728D01*
X0172767Y0191728D01*
X0173528Y0190967D01*
X0173528Y0189891D01*
X0172767Y0189130D01*
X0171691Y0189130D01*
X0170930Y0189891D01*
X0171710Y0190214D01*
X0171710Y0190644D01*
X0172014Y0190948D01*
X0172444Y0190948D01*
X0172748Y0190644D01*
X0172748Y0190214D01*
X0172444Y0189910D01*
X0172014Y0189910D01*
X0171710Y0190214D01*
M02*
