%
M48
M72
T01C0.02362
T02C0.03150
T03C0.03200
T04C0.03937
T05C0.04000
T06C0.11811
%
T01
X94925Y61175
X103050Y56800
X114300Y73675
X124300Y73675
X94300Y77425
X167425Y80550
X184300Y89925
X197425Y104300
X205550Y107425
X179300Y121800
X165550Y128675
X156800Y126800
X128050Y124300
X119300Y128050
X169300Y104300
X205550Y126800
X197425Y129925
X229300Y85550
X200550Y68050
X161800Y29925
X161800Y24925
X57425Y130550
T02
X220678Y126800
X228552Y126800
X236426Y126800
X244300Y126800
X252174Y126800
X260048Y126800
X267922Y126800
X267922Y65550
X260048Y65550
X252174Y65550
X244300Y65550
X236426Y65550
X228552Y65550
X220678Y65550
T03
X124300Y59925
X114300Y59925
X114300Y89925
X124300Y89925
T04
X122253Y141131
X112253Y141131
X102253Y141131
X92253Y141131
X82253Y141131
X72253Y141131
X62253Y141131
X52253Y141131
X52253Y151131
X62253Y151131
X72253Y151131
X82253Y151131
X92253Y151131
X102253Y151131
X112253Y151131
X122253Y151131
X132253Y151131
X142253Y151131
X152253Y151131
X162253Y151131
X172253Y151131
X182253Y151131
X192253Y151131
X202253Y151131
X212253Y151131
X222253Y151131
X232253Y151131
X242253Y151131
X242253Y141131
X232253Y141131
X222253Y141131
X212253Y141131
X202253Y141131
X192253Y141131
X182253Y141131
X172253Y141131
X162253Y141131
X152253Y141131
X142253Y141131
X132253Y141131
T05
X53050Y29300
X53050Y39300
X53050Y49300
X53050Y59300
X53050Y74300
X53050Y84300
X53050Y94300
X53050Y104300
X66800Y123050
X76800Y123050
X86800Y123050
X96800Y123050
X119300Y104300
X129300Y104300
X139300Y104300
X149300Y104300
X159300Y104300
X170550Y50550
X180550Y50550
X190550Y50550
X200550Y50550
X198050Y29300
X208050Y29300
X218050Y29300
X228050Y29300
X238050Y29300
X248050Y29300
X258050Y29300
X268050Y29300
X188050Y29300
X178050Y29300
X148050Y29300
X138050Y29300
X128050Y29300
X118050Y29300
X108050Y29300
X98050Y29300
X88050Y29300
X28050Y54300
X28050Y64300
X28050Y74300
T06
X30550Y91800
X30550Y133050
M30
