G75*
%MOIN*%
%OFA0B0*%
%FSLAX25Y25*%
%IPPOS*%
%LPD*%
%AMOC8*
5,1,8,0,0,1.08239X$1,22.5*
%
%ADD10C,0.00000*%
D10*
X0018050Y0019300D02*
X0018050Y0161761D01*
X0276751Y0161761D01*
X0276751Y0019300D01*
X0018050Y0019300D01*
X0024644Y0091800D02*
X0024646Y0091953D01*
X0024652Y0092107D01*
X0024662Y0092260D01*
X0024676Y0092412D01*
X0024694Y0092565D01*
X0024716Y0092716D01*
X0024741Y0092867D01*
X0024771Y0093018D01*
X0024805Y0093168D01*
X0024842Y0093316D01*
X0024883Y0093464D01*
X0024928Y0093610D01*
X0024977Y0093756D01*
X0025030Y0093900D01*
X0025086Y0094042D01*
X0025146Y0094183D01*
X0025210Y0094323D01*
X0025277Y0094461D01*
X0025348Y0094597D01*
X0025423Y0094731D01*
X0025500Y0094863D01*
X0025582Y0094993D01*
X0025666Y0095121D01*
X0025754Y0095247D01*
X0025845Y0095370D01*
X0025939Y0095491D01*
X0026037Y0095609D01*
X0026137Y0095725D01*
X0026241Y0095838D01*
X0026347Y0095949D01*
X0026456Y0096057D01*
X0026568Y0096162D01*
X0026682Y0096263D01*
X0026800Y0096362D01*
X0026919Y0096458D01*
X0027041Y0096551D01*
X0027166Y0096640D01*
X0027293Y0096727D01*
X0027422Y0096809D01*
X0027553Y0096889D01*
X0027686Y0096965D01*
X0027821Y0097038D01*
X0027958Y0097107D01*
X0028097Y0097172D01*
X0028237Y0097234D01*
X0028379Y0097292D01*
X0028522Y0097347D01*
X0028667Y0097398D01*
X0028813Y0097445D01*
X0028960Y0097488D01*
X0029108Y0097527D01*
X0029257Y0097563D01*
X0029407Y0097594D01*
X0029558Y0097622D01*
X0029709Y0097646D01*
X0029862Y0097666D01*
X0030014Y0097682D01*
X0030167Y0097694D01*
X0030320Y0097702D01*
X0030473Y0097706D01*
X0030627Y0097706D01*
X0030780Y0097702D01*
X0030933Y0097694D01*
X0031086Y0097682D01*
X0031238Y0097666D01*
X0031391Y0097646D01*
X0031542Y0097622D01*
X0031693Y0097594D01*
X0031843Y0097563D01*
X0031992Y0097527D01*
X0032140Y0097488D01*
X0032287Y0097445D01*
X0032433Y0097398D01*
X0032578Y0097347D01*
X0032721Y0097292D01*
X0032863Y0097234D01*
X0033003Y0097172D01*
X0033142Y0097107D01*
X0033279Y0097038D01*
X0033414Y0096965D01*
X0033547Y0096889D01*
X0033678Y0096809D01*
X0033807Y0096727D01*
X0033934Y0096640D01*
X0034059Y0096551D01*
X0034181Y0096458D01*
X0034300Y0096362D01*
X0034418Y0096263D01*
X0034532Y0096162D01*
X0034644Y0096057D01*
X0034753Y0095949D01*
X0034859Y0095838D01*
X0034963Y0095725D01*
X0035063Y0095609D01*
X0035161Y0095491D01*
X0035255Y0095370D01*
X0035346Y0095247D01*
X0035434Y0095121D01*
X0035518Y0094993D01*
X0035600Y0094863D01*
X0035677Y0094731D01*
X0035752Y0094597D01*
X0035823Y0094461D01*
X0035890Y0094323D01*
X0035954Y0094183D01*
X0036014Y0094042D01*
X0036070Y0093900D01*
X0036123Y0093756D01*
X0036172Y0093610D01*
X0036217Y0093464D01*
X0036258Y0093316D01*
X0036295Y0093168D01*
X0036329Y0093018D01*
X0036359Y0092867D01*
X0036384Y0092716D01*
X0036406Y0092565D01*
X0036424Y0092412D01*
X0036438Y0092260D01*
X0036448Y0092107D01*
X0036454Y0091953D01*
X0036456Y0091800D01*
X0036454Y0091647D01*
X0036448Y0091493D01*
X0036438Y0091340D01*
X0036424Y0091188D01*
X0036406Y0091035D01*
X0036384Y0090884D01*
X0036359Y0090733D01*
X0036329Y0090582D01*
X0036295Y0090432D01*
X0036258Y0090284D01*
X0036217Y0090136D01*
X0036172Y0089990D01*
X0036123Y0089844D01*
X0036070Y0089700D01*
X0036014Y0089558D01*
X0035954Y0089417D01*
X0035890Y0089277D01*
X0035823Y0089139D01*
X0035752Y0089003D01*
X0035677Y0088869D01*
X0035600Y0088737D01*
X0035518Y0088607D01*
X0035434Y0088479D01*
X0035346Y0088353D01*
X0035255Y0088230D01*
X0035161Y0088109D01*
X0035063Y0087991D01*
X0034963Y0087875D01*
X0034859Y0087762D01*
X0034753Y0087651D01*
X0034644Y0087543D01*
X0034532Y0087438D01*
X0034418Y0087337D01*
X0034300Y0087238D01*
X0034181Y0087142D01*
X0034059Y0087049D01*
X0033934Y0086960D01*
X0033807Y0086873D01*
X0033678Y0086791D01*
X0033547Y0086711D01*
X0033414Y0086635D01*
X0033279Y0086562D01*
X0033142Y0086493D01*
X0033003Y0086428D01*
X0032863Y0086366D01*
X0032721Y0086308D01*
X0032578Y0086253D01*
X0032433Y0086202D01*
X0032287Y0086155D01*
X0032140Y0086112D01*
X0031992Y0086073D01*
X0031843Y0086037D01*
X0031693Y0086006D01*
X0031542Y0085978D01*
X0031391Y0085954D01*
X0031238Y0085934D01*
X0031086Y0085918D01*
X0030933Y0085906D01*
X0030780Y0085898D01*
X0030627Y0085894D01*
X0030473Y0085894D01*
X0030320Y0085898D01*
X0030167Y0085906D01*
X0030014Y0085918D01*
X0029862Y0085934D01*
X0029709Y0085954D01*
X0029558Y0085978D01*
X0029407Y0086006D01*
X0029257Y0086037D01*
X0029108Y0086073D01*
X0028960Y0086112D01*
X0028813Y0086155D01*
X0028667Y0086202D01*
X0028522Y0086253D01*
X0028379Y0086308D01*
X0028237Y0086366D01*
X0028097Y0086428D01*
X0027958Y0086493D01*
X0027821Y0086562D01*
X0027686Y0086635D01*
X0027553Y0086711D01*
X0027422Y0086791D01*
X0027293Y0086873D01*
X0027166Y0086960D01*
X0027041Y0087049D01*
X0026919Y0087142D01*
X0026800Y0087238D01*
X0026682Y0087337D01*
X0026568Y0087438D01*
X0026456Y0087543D01*
X0026347Y0087651D01*
X0026241Y0087762D01*
X0026137Y0087875D01*
X0026037Y0087991D01*
X0025939Y0088109D01*
X0025845Y0088230D01*
X0025754Y0088353D01*
X0025666Y0088479D01*
X0025582Y0088607D01*
X0025500Y0088737D01*
X0025423Y0088869D01*
X0025348Y0089003D01*
X0025277Y0089139D01*
X0025210Y0089277D01*
X0025146Y0089417D01*
X0025086Y0089558D01*
X0025030Y0089700D01*
X0024977Y0089844D01*
X0024928Y0089990D01*
X0024883Y0090136D01*
X0024842Y0090284D01*
X0024805Y0090432D01*
X0024771Y0090582D01*
X0024741Y0090733D01*
X0024716Y0090884D01*
X0024694Y0091035D01*
X0024676Y0091188D01*
X0024662Y0091340D01*
X0024652Y0091493D01*
X0024646Y0091647D01*
X0024644Y0091800D01*
X0024644Y0133050D02*
X0024646Y0133203D01*
X0024652Y0133357D01*
X0024662Y0133510D01*
X0024676Y0133662D01*
X0024694Y0133815D01*
X0024716Y0133966D01*
X0024741Y0134117D01*
X0024771Y0134268D01*
X0024805Y0134418D01*
X0024842Y0134566D01*
X0024883Y0134714D01*
X0024928Y0134860D01*
X0024977Y0135006D01*
X0025030Y0135150D01*
X0025086Y0135292D01*
X0025146Y0135433D01*
X0025210Y0135573D01*
X0025277Y0135711D01*
X0025348Y0135847D01*
X0025423Y0135981D01*
X0025500Y0136113D01*
X0025582Y0136243D01*
X0025666Y0136371D01*
X0025754Y0136497D01*
X0025845Y0136620D01*
X0025939Y0136741D01*
X0026037Y0136859D01*
X0026137Y0136975D01*
X0026241Y0137088D01*
X0026347Y0137199D01*
X0026456Y0137307D01*
X0026568Y0137412D01*
X0026682Y0137513D01*
X0026800Y0137612D01*
X0026919Y0137708D01*
X0027041Y0137801D01*
X0027166Y0137890D01*
X0027293Y0137977D01*
X0027422Y0138059D01*
X0027553Y0138139D01*
X0027686Y0138215D01*
X0027821Y0138288D01*
X0027958Y0138357D01*
X0028097Y0138422D01*
X0028237Y0138484D01*
X0028379Y0138542D01*
X0028522Y0138597D01*
X0028667Y0138648D01*
X0028813Y0138695D01*
X0028960Y0138738D01*
X0029108Y0138777D01*
X0029257Y0138813D01*
X0029407Y0138844D01*
X0029558Y0138872D01*
X0029709Y0138896D01*
X0029862Y0138916D01*
X0030014Y0138932D01*
X0030167Y0138944D01*
X0030320Y0138952D01*
X0030473Y0138956D01*
X0030627Y0138956D01*
X0030780Y0138952D01*
X0030933Y0138944D01*
X0031086Y0138932D01*
X0031238Y0138916D01*
X0031391Y0138896D01*
X0031542Y0138872D01*
X0031693Y0138844D01*
X0031843Y0138813D01*
X0031992Y0138777D01*
X0032140Y0138738D01*
X0032287Y0138695D01*
X0032433Y0138648D01*
X0032578Y0138597D01*
X0032721Y0138542D01*
X0032863Y0138484D01*
X0033003Y0138422D01*
X0033142Y0138357D01*
X0033279Y0138288D01*
X0033414Y0138215D01*
X0033547Y0138139D01*
X0033678Y0138059D01*
X0033807Y0137977D01*
X0033934Y0137890D01*
X0034059Y0137801D01*
X0034181Y0137708D01*
X0034300Y0137612D01*
X0034418Y0137513D01*
X0034532Y0137412D01*
X0034644Y0137307D01*
X0034753Y0137199D01*
X0034859Y0137088D01*
X0034963Y0136975D01*
X0035063Y0136859D01*
X0035161Y0136741D01*
X0035255Y0136620D01*
X0035346Y0136497D01*
X0035434Y0136371D01*
X0035518Y0136243D01*
X0035600Y0136113D01*
X0035677Y0135981D01*
X0035752Y0135847D01*
X0035823Y0135711D01*
X0035890Y0135573D01*
X0035954Y0135433D01*
X0036014Y0135292D01*
X0036070Y0135150D01*
X0036123Y0135006D01*
X0036172Y0134860D01*
X0036217Y0134714D01*
X0036258Y0134566D01*
X0036295Y0134418D01*
X0036329Y0134268D01*
X0036359Y0134117D01*
X0036384Y0133966D01*
X0036406Y0133815D01*
X0036424Y0133662D01*
X0036438Y0133510D01*
X0036448Y0133357D01*
X0036454Y0133203D01*
X0036456Y0133050D01*
X0036454Y0132897D01*
X0036448Y0132743D01*
X0036438Y0132590D01*
X0036424Y0132438D01*
X0036406Y0132285D01*
X0036384Y0132134D01*
X0036359Y0131983D01*
X0036329Y0131832D01*
X0036295Y0131682D01*
X0036258Y0131534D01*
X0036217Y0131386D01*
X0036172Y0131240D01*
X0036123Y0131094D01*
X0036070Y0130950D01*
X0036014Y0130808D01*
X0035954Y0130667D01*
X0035890Y0130527D01*
X0035823Y0130389D01*
X0035752Y0130253D01*
X0035677Y0130119D01*
X0035600Y0129987D01*
X0035518Y0129857D01*
X0035434Y0129729D01*
X0035346Y0129603D01*
X0035255Y0129480D01*
X0035161Y0129359D01*
X0035063Y0129241D01*
X0034963Y0129125D01*
X0034859Y0129012D01*
X0034753Y0128901D01*
X0034644Y0128793D01*
X0034532Y0128688D01*
X0034418Y0128587D01*
X0034300Y0128488D01*
X0034181Y0128392D01*
X0034059Y0128299D01*
X0033934Y0128210D01*
X0033807Y0128123D01*
X0033678Y0128041D01*
X0033547Y0127961D01*
X0033414Y0127885D01*
X0033279Y0127812D01*
X0033142Y0127743D01*
X0033003Y0127678D01*
X0032863Y0127616D01*
X0032721Y0127558D01*
X0032578Y0127503D01*
X0032433Y0127452D01*
X0032287Y0127405D01*
X0032140Y0127362D01*
X0031992Y0127323D01*
X0031843Y0127287D01*
X0031693Y0127256D01*
X0031542Y0127228D01*
X0031391Y0127204D01*
X0031238Y0127184D01*
X0031086Y0127168D01*
X0030933Y0127156D01*
X0030780Y0127148D01*
X0030627Y0127144D01*
X0030473Y0127144D01*
X0030320Y0127148D01*
X0030167Y0127156D01*
X0030014Y0127168D01*
X0029862Y0127184D01*
X0029709Y0127204D01*
X0029558Y0127228D01*
X0029407Y0127256D01*
X0029257Y0127287D01*
X0029108Y0127323D01*
X0028960Y0127362D01*
X0028813Y0127405D01*
X0028667Y0127452D01*
X0028522Y0127503D01*
X0028379Y0127558D01*
X0028237Y0127616D01*
X0028097Y0127678D01*
X0027958Y0127743D01*
X0027821Y0127812D01*
X0027686Y0127885D01*
X0027553Y0127961D01*
X0027422Y0128041D01*
X0027293Y0128123D01*
X0027166Y0128210D01*
X0027041Y0128299D01*
X0026919Y0128392D01*
X0026800Y0128488D01*
X0026682Y0128587D01*
X0026568Y0128688D01*
X0026456Y0128793D01*
X0026347Y0128901D01*
X0026241Y0129012D01*
X0026137Y0129125D01*
X0026037Y0129241D01*
X0025939Y0129359D01*
X0025845Y0129480D01*
X0025754Y0129603D01*
X0025666Y0129729D01*
X0025582Y0129857D01*
X0025500Y0129987D01*
X0025423Y0130119D01*
X0025348Y0130253D01*
X0025277Y0130389D01*
X0025210Y0130527D01*
X0025146Y0130667D01*
X0025086Y0130808D01*
X0025030Y0130950D01*
X0024977Y0131094D01*
X0024928Y0131240D01*
X0024883Y0131386D01*
X0024842Y0131534D01*
X0024805Y0131682D01*
X0024771Y0131832D01*
X0024741Y0131983D01*
X0024716Y0132134D01*
X0024694Y0132285D01*
X0024676Y0132438D01*
X0024662Y0132590D01*
X0024652Y0132743D01*
X0024646Y0132897D01*
X0024644Y0133050D01*
M02*
