G75*
%MOIN*%
%OFA0B0*%
%FSLAX25Y25*%
%IPPOS*%
%LPD*%
%AMOC8*
5,1,8,0,0,1.08239X$1,22.5*
%
%ADD10C,0.00400*%
%ADD11C,0.00600*%
%ADD12C,0.00500*%
D10*
X0029500Y0047792D02*
X0029500Y0050094D01*
X0030267Y0050861D01*
X0033337Y0050861D01*
X0034104Y0050094D01*
X0034104Y0047792D01*
X0029500Y0047792D01*
X0029500Y0052396D02*
X0029500Y0055465D01*
X0029500Y0053931D02*
X0034104Y0053931D01*
X0032569Y0052396D01*
X0047000Y0059500D02*
X0047000Y0061802D01*
X0047767Y0062569D01*
X0050837Y0062569D01*
X0051604Y0061802D01*
X0051604Y0059500D01*
X0047000Y0059500D01*
X0047000Y0064104D02*
X0050069Y0067173D01*
X0050837Y0067173D01*
X0051604Y0066406D01*
X0051604Y0064871D01*
X0050837Y0064104D01*
X0047000Y0064104D02*
X0047000Y0067173D01*
X0075125Y0070777D02*
X0079729Y0070777D01*
X0079729Y0073079D01*
X0078962Y0073846D01*
X0077427Y0073846D01*
X0076660Y0073079D01*
X0076660Y0070777D01*
X0076660Y0072311D02*
X0075125Y0073846D01*
X0075892Y0075380D02*
X0075125Y0076148D01*
X0075125Y0077682D01*
X0075892Y0078450D01*
X0076660Y0078450D01*
X0077427Y0077682D01*
X0077427Y0076915D01*
X0077427Y0077682D02*
X0078194Y0078450D01*
X0078962Y0078450D01*
X0079729Y0077682D01*
X0079729Y0076148D01*
X0078962Y0075380D01*
X0085750Y0066432D02*
X0090354Y0066432D01*
X0088052Y0064130D01*
X0088052Y0067200D01*
X0088052Y0062596D02*
X0087285Y0061829D01*
X0087285Y0059527D01*
X0087285Y0061061D02*
X0085750Y0062596D01*
X0088052Y0062596D02*
X0089587Y0062596D01*
X0090354Y0061829D01*
X0090354Y0059527D01*
X0085750Y0059527D01*
X0089271Y0036604D02*
X0090806Y0035837D01*
X0092341Y0034302D01*
X0090039Y0034302D01*
X0089271Y0033535D01*
X0089271Y0032767D01*
X0090039Y0032000D01*
X0091573Y0032000D01*
X0092341Y0032767D01*
X0092341Y0034302D01*
X0093875Y0035837D02*
X0094643Y0036604D01*
X0096177Y0036604D01*
X0096945Y0035837D01*
X0096945Y0032767D01*
X0096177Y0032000D01*
X0094643Y0032000D01*
X0093875Y0032767D01*
X0141289Y0080750D02*
X0142823Y0080750D01*
X0143591Y0081517D01*
X0145125Y0081517D02*
X0145893Y0080750D01*
X0147427Y0080750D01*
X0148195Y0081517D01*
X0148195Y0084587D01*
X0147427Y0085354D01*
X0145893Y0085354D01*
X0145125Y0084587D01*
X0143591Y0085354D02*
X0143591Y0083052D01*
X0142056Y0083819D01*
X0141289Y0083819D01*
X0140521Y0083052D01*
X0140521Y0081517D01*
X0141289Y0080750D01*
X0140521Y0085354D02*
X0143591Y0085354D01*
X0172932Y0072854D02*
X0172932Y0068250D01*
X0172165Y0070552D02*
X0175234Y0070552D01*
X0172932Y0072854D01*
X0176769Y0072087D02*
X0177536Y0072854D01*
X0179071Y0072854D01*
X0179838Y0072087D01*
X0179838Y0069017D01*
X0179071Y0068250D01*
X0177536Y0068250D01*
X0176769Y0069017D01*
X0219498Y0068819D02*
X0219498Y0069587D01*
X0220265Y0070354D01*
X0221800Y0070354D01*
X0222567Y0069587D01*
X0224102Y0069587D02*
X0224869Y0070354D01*
X0226404Y0070354D01*
X0227171Y0069587D01*
X0227171Y0066517D01*
X0226404Y0065750D01*
X0224869Y0065750D01*
X0224102Y0066517D01*
X0222567Y0065750D02*
X0219498Y0065750D01*
X0222567Y0065750D02*
X0219498Y0068819D01*
X0115979Y0113904D02*
X0115212Y0113137D01*
X0112142Y0113137D01*
X0111375Y0113904D01*
X0111375Y0115439D01*
X0112142Y0116206D01*
X0112142Y0117741D02*
X0111375Y0118508D01*
X0111375Y0120043D01*
X0112142Y0120810D01*
X0112910Y0120810D01*
X0113677Y0120043D01*
X0113677Y0119275D01*
X0113677Y0120043D02*
X0114444Y0120810D01*
X0115212Y0120810D01*
X0115979Y0120043D01*
X0115979Y0118508D01*
X0115212Y0117741D01*
X0115212Y0116206D02*
X0115979Y0115439D01*
X0115979Y0113904D01*
X0035354Y0143048D02*
X0034587Y0142280D01*
X0031517Y0142280D01*
X0030750Y0143048D01*
X0030750Y0144582D01*
X0031517Y0145350D01*
X0030750Y0146884D02*
X0030750Y0149954D01*
X0030750Y0148419D02*
X0035354Y0148419D01*
X0033819Y0146884D01*
X0034587Y0145350D02*
X0035354Y0144582D01*
X0035354Y0143048D01*
D11*
X0109300Y0086425D02*
X0109300Y0078925D01*
X0109426Y0078923D01*
X0109551Y0078917D01*
X0109676Y0078907D01*
X0109801Y0078893D01*
X0109926Y0078876D01*
X0110050Y0078854D01*
X0110173Y0078829D01*
X0110295Y0078799D01*
X0110416Y0078766D01*
X0110536Y0078729D01*
X0110655Y0078689D01*
X0110772Y0078644D01*
X0110889Y0078596D01*
X0111003Y0078544D01*
X0111116Y0078489D01*
X0111227Y0078430D01*
X0111336Y0078368D01*
X0111443Y0078302D01*
X0111548Y0078233D01*
X0111651Y0078161D01*
X0111752Y0078086D01*
X0111850Y0078007D01*
X0111945Y0077925D01*
X0112038Y0077841D01*
X0112128Y0077753D01*
X0112216Y0077663D01*
X0112300Y0077570D01*
X0112382Y0077475D01*
X0112461Y0077377D01*
X0112536Y0077276D01*
X0112608Y0077173D01*
X0112677Y0077068D01*
X0112743Y0076961D01*
X0112805Y0076852D01*
X0112864Y0076741D01*
X0112919Y0076628D01*
X0112971Y0076514D01*
X0113019Y0076397D01*
X0113064Y0076280D01*
X0113104Y0076161D01*
X0113141Y0076041D01*
X0113174Y0075920D01*
X0113204Y0075798D01*
X0113229Y0075675D01*
X0113251Y0075551D01*
X0113268Y0075426D01*
X0113282Y0075301D01*
X0113292Y0075176D01*
X0113298Y0075051D01*
X0113300Y0074925D01*
X0113298Y0074799D01*
X0113292Y0074674D01*
X0113282Y0074549D01*
X0113268Y0074424D01*
X0113251Y0074299D01*
X0113229Y0074175D01*
X0113204Y0074052D01*
X0113174Y0073930D01*
X0113141Y0073809D01*
X0113104Y0073689D01*
X0113064Y0073570D01*
X0113019Y0073453D01*
X0112971Y0073336D01*
X0112919Y0073222D01*
X0112864Y0073109D01*
X0112805Y0072998D01*
X0112743Y0072889D01*
X0112677Y0072782D01*
X0112608Y0072677D01*
X0112536Y0072574D01*
X0112461Y0072473D01*
X0112382Y0072375D01*
X0112300Y0072280D01*
X0112216Y0072187D01*
X0112128Y0072097D01*
X0112038Y0072009D01*
X0111945Y0071925D01*
X0111850Y0071843D01*
X0111752Y0071764D01*
X0111651Y0071689D01*
X0111548Y0071617D01*
X0111443Y0071548D01*
X0111336Y0071482D01*
X0111227Y0071420D01*
X0111116Y0071361D01*
X0111003Y0071306D01*
X0110889Y0071254D01*
X0110772Y0071206D01*
X0110655Y0071161D01*
X0110536Y0071121D01*
X0110416Y0071084D01*
X0110295Y0071051D01*
X0110173Y0071021D01*
X0110050Y0070996D01*
X0109926Y0070974D01*
X0109801Y0070957D01*
X0109676Y0070943D01*
X0109551Y0070933D01*
X0109426Y0070927D01*
X0109300Y0070925D01*
X0109300Y0063425D01*
X0129300Y0063425D01*
X0129300Y0086425D01*
X0109300Y0086425D01*
X0165550Y0053050D02*
X0168050Y0055550D01*
X0173050Y0055550D01*
X0175550Y0053050D01*
X0178050Y0055550D01*
X0183050Y0055550D01*
X0185550Y0053050D01*
X0185550Y0048050D01*
X0183050Y0045550D01*
X0178050Y0045550D01*
X0175550Y0048050D01*
X0175550Y0053050D01*
X0175550Y0048050D02*
X0173050Y0045550D01*
X0168050Y0045550D01*
X0165550Y0048050D01*
X0165550Y0053050D01*
X0185550Y0053050D02*
X0188050Y0055550D01*
X0193050Y0055550D01*
X0195550Y0053050D01*
X0198050Y0055550D01*
X0203050Y0055550D01*
X0205550Y0053050D01*
X0205550Y0048050D01*
X0203050Y0045550D01*
X0198050Y0045550D01*
X0195550Y0048050D01*
X0195550Y0053050D01*
X0195550Y0048050D02*
X0193050Y0045550D01*
X0188050Y0045550D01*
X0185550Y0048050D01*
X0153050Y0031800D02*
X0153050Y0026800D01*
X0150550Y0024300D01*
X0145550Y0024300D01*
X0143050Y0026800D01*
X0143050Y0031800D01*
X0145550Y0034300D01*
X0150550Y0034300D01*
X0153050Y0031800D01*
X0143050Y0031800D02*
X0140550Y0034300D01*
X0135550Y0034300D01*
X0133050Y0031800D01*
X0130550Y0034300D01*
X0125550Y0034300D01*
X0123050Y0031800D01*
X0120550Y0034300D01*
X0115550Y0034300D01*
X0113050Y0031800D01*
X0110550Y0034300D01*
X0105550Y0034300D01*
X0103050Y0031800D01*
X0100550Y0034300D01*
X0095550Y0034300D01*
X0093050Y0031800D01*
X0090550Y0034300D01*
X0085550Y0034300D01*
X0083050Y0031800D01*
X0083050Y0026800D01*
X0085550Y0024300D01*
X0090550Y0024300D01*
X0093050Y0026800D01*
X0095550Y0024300D01*
X0100550Y0024300D01*
X0103050Y0026800D01*
X0103050Y0031800D01*
X0103050Y0026800D02*
X0105550Y0024300D01*
X0110550Y0024300D01*
X0113050Y0026800D01*
X0115550Y0024300D01*
X0120550Y0024300D01*
X0123050Y0026800D01*
X0125550Y0024300D01*
X0130550Y0024300D01*
X0133050Y0026800D01*
X0133050Y0031800D01*
X0133050Y0026800D02*
X0135550Y0024300D01*
X0140550Y0024300D01*
X0143050Y0026800D01*
X0123050Y0026800D02*
X0123050Y0031800D01*
X0113050Y0031800D02*
X0113050Y0026800D01*
X0093050Y0026800D02*
X0093050Y0031800D01*
D12*
X0040550Y0039925D02*
X0040550Y0043050D01*
X0042425Y0043050D01*
X0040550Y0043050D02*
X0038675Y0045550D01*
X0040550Y0045550D01*
X0040550Y0048675D01*
X0040550Y0045550D02*
X0042425Y0045550D01*
X0040550Y0043050D01*
X0038675Y0043050D01*
X0040550Y0067425D02*
X0040550Y0070550D01*
X0038675Y0070550D01*
X0040550Y0073050D01*
X0040550Y0076175D01*
X0040550Y0073050D02*
X0038675Y0073050D01*
X0040550Y0073050D02*
X0042425Y0073050D01*
X0040550Y0073050D02*
X0042425Y0070550D01*
X0040550Y0070550D01*
X0103050Y0072614D02*
X0103050Y0074115D01*
X0103801Y0074866D01*
X0106803Y0074866D01*
X0107554Y0074115D01*
X0107554Y0072614D01*
X0106803Y0071863D01*
X0103801Y0071863D01*
X0103050Y0072614D01*
X0103050Y0076467D02*
X0107554Y0076467D01*
X0105302Y0077218D02*
X0103050Y0079470D01*
X0103050Y0081071D02*
X0103050Y0084074D01*
X0103050Y0082572D02*
X0107554Y0082572D01*
X0106053Y0081071D01*
X0107554Y0079470D02*
X0104551Y0076467D01*
X0166601Y0042353D02*
X0167352Y0043104D01*
X0168853Y0043104D01*
X0169604Y0042353D01*
X0169604Y0041603D01*
X0168853Y0040852D01*
X0167352Y0040852D01*
X0166601Y0040101D01*
X0166601Y0039351D01*
X0167352Y0038600D01*
X0168853Y0038600D01*
X0169604Y0039351D01*
X0171205Y0040852D02*
X0171956Y0040101D01*
X0174208Y0040101D01*
X0174208Y0038600D02*
X0174208Y0043104D01*
X0171956Y0043104D01*
X0171205Y0042353D01*
X0171205Y0040852D01*
X0175809Y0040852D02*
X0177311Y0040852D01*
X0175809Y0040852D02*
X0175809Y0039351D01*
X0176560Y0038600D01*
X0178061Y0038600D01*
X0178812Y0039351D01*
X0178812Y0042353D01*
X0178061Y0043104D01*
X0176560Y0043104D01*
X0175809Y0042353D01*
X0128539Y0021854D02*
X0125537Y0021854D01*
X0127038Y0021854D02*
X0127038Y0017350D01*
X0123935Y0017350D02*
X0120933Y0017350D01*
X0119331Y0017350D02*
X0119331Y0021854D01*
X0117080Y0021854D01*
X0116329Y0021103D01*
X0116329Y0019602D01*
X0117080Y0018851D01*
X0119331Y0018851D01*
X0117830Y0018851D02*
X0116329Y0017350D01*
X0114728Y0017350D02*
X0114728Y0021854D01*
X0113226Y0020353D01*
X0111725Y0021854D01*
X0111725Y0017350D01*
X0110124Y0018101D02*
X0109373Y0017350D01*
X0107872Y0017350D01*
X0107121Y0018101D01*
X0107121Y0021103D01*
X0107872Y0021854D01*
X0109373Y0021854D01*
X0110124Y0021103D01*
X0110124Y0018101D01*
X0105520Y0017350D02*
X0105520Y0021854D01*
X0104018Y0020353D01*
X0102517Y0021854D01*
X0102517Y0017350D01*
X0100916Y0017350D02*
X0097913Y0017350D01*
X0099415Y0019602D02*
X0100916Y0019602D01*
X0100916Y0021854D02*
X0100916Y0017350D01*
X0094811Y0017350D02*
X0094811Y0021854D01*
X0096312Y0021854D02*
X0093309Y0021854D01*
X0091708Y0021854D02*
X0091708Y0017350D01*
X0088705Y0017350D01*
X0087104Y0017350D02*
X0087104Y0021854D01*
X0084852Y0021854D01*
X0084101Y0021103D01*
X0084101Y0019602D01*
X0084852Y0018851D01*
X0087104Y0018851D01*
X0085603Y0018851D02*
X0084101Y0017350D01*
X0090207Y0019602D02*
X0091708Y0019602D01*
X0091708Y0021854D02*
X0088705Y0021854D01*
X0097913Y0021854D02*
X0100916Y0021854D01*
X0120933Y0021854D02*
X0123935Y0021854D01*
X0123935Y0017350D01*
X0123935Y0019602D02*
X0122434Y0019602D01*
M02*
