G75*
%MOIN*%
%OFA0B0*%
%FSLAX25Y25*%
%IPPOS*%
%LPD*%
%AMOC8*
5,1,8,0,0,1.08239X$1,22.5*
%
%ADD10C,0.00600*%
%ADD11C,0.00500*%
%ADD12R,0.02000X0.02000*%
%ADD13C,0.00400*%
D10*
X0048050Y0026800D02*
X0050550Y0024300D01*
X0055550Y0024300D01*
X0058050Y0026800D01*
X0058050Y0031800D01*
X0055550Y0034300D01*
X0058050Y0036800D01*
X0058050Y0041800D01*
X0055550Y0044300D01*
X0050550Y0044300D01*
X0048050Y0041800D01*
X0048050Y0036800D01*
X0050550Y0034300D01*
X0055550Y0034300D01*
X0050550Y0034300D02*
X0048050Y0031800D01*
X0048050Y0026800D01*
X0050550Y0044300D02*
X0048050Y0046800D01*
X0048050Y0051800D01*
X0050550Y0054300D01*
X0048050Y0056800D01*
X0048050Y0061800D01*
X0050550Y0064300D01*
X0055550Y0064300D01*
X0058050Y0061800D01*
X0058050Y0056800D01*
X0055550Y0054300D01*
X0058050Y0051800D01*
X0058050Y0046800D01*
X0055550Y0044300D01*
X0055550Y0054300D02*
X0050550Y0054300D01*
X0033050Y0056800D02*
X0033050Y0051800D01*
X0030550Y0049300D01*
X0025550Y0049300D01*
X0023050Y0051800D01*
X0023050Y0056800D01*
X0025550Y0059300D01*
X0023050Y0061800D01*
X0023050Y0066800D01*
X0025550Y0069300D01*
X0023050Y0071800D01*
X0023050Y0076800D01*
X0025550Y0079300D01*
X0030550Y0079300D01*
X0033050Y0076800D01*
X0033050Y0071800D01*
X0030550Y0069300D01*
X0033050Y0066800D01*
X0033050Y0061800D01*
X0030550Y0059300D01*
X0033050Y0056800D01*
X0030550Y0059300D02*
X0025550Y0059300D01*
X0025550Y0069300D02*
X0030550Y0069300D01*
X0048050Y0071800D02*
X0050550Y0069300D01*
X0055550Y0069300D01*
X0058050Y0071800D01*
X0058050Y0076800D01*
X0055550Y0079300D01*
X0058050Y0081800D01*
X0058050Y0086800D01*
X0055550Y0089300D01*
X0050550Y0089300D01*
X0048050Y0086800D01*
X0048050Y0081800D01*
X0050550Y0079300D01*
X0055550Y0079300D01*
X0050550Y0079300D02*
X0048050Y0076800D01*
X0048050Y0071800D01*
X0050550Y0089300D02*
X0048050Y0091800D01*
X0048050Y0096800D01*
X0050550Y0099300D01*
X0048050Y0101800D01*
X0048050Y0106800D01*
X0050550Y0109300D01*
X0055550Y0109300D01*
X0058050Y0106800D01*
X0058050Y0101800D01*
X0055550Y0099300D01*
X0058050Y0096800D01*
X0058050Y0091800D01*
X0055550Y0089300D01*
X0055550Y0099300D02*
X0050550Y0099300D01*
X0045300Y0102050D02*
X0045300Y0124050D01*
X0033300Y0124050D01*
X0033300Y0102050D01*
X0045300Y0102050D01*
X0029050Y0102050D02*
X0029050Y0124050D01*
X0017050Y0124050D01*
X0017050Y0102050D01*
X0029050Y0102050D01*
X0061800Y0120550D02*
X0064300Y0118050D01*
X0069300Y0118050D01*
X0071800Y0120550D01*
X0074300Y0118050D01*
X0079300Y0118050D01*
X0081800Y0120550D01*
X0081800Y0125550D01*
X0079300Y0128050D01*
X0074300Y0128050D01*
X0071800Y0125550D01*
X0071800Y0120550D01*
X0071800Y0125550D02*
X0069300Y0128050D01*
X0064300Y0128050D01*
X0061800Y0125550D01*
X0061800Y0120550D01*
X0066425Y0112675D02*
X0083425Y0112675D01*
X0083485Y0112673D01*
X0083546Y0112668D01*
X0083605Y0112659D01*
X0083664Y0112646D01*
X0083723Y0112630D01*
X0083780Y0112610D01*
X0083835Y0112587D01*
X0083890Y0112560D01*
X0083942Y0112531D01*
X0083993Y0112498D01*
X0084042Y0112462D01*
X0084088Y0112424D01*
X0084132Y0112382D01*
X0084174Y0112338D01*
X0084212Y0112292D01*
X0084248Y0112243D01*
X0084281Y0112192D01*
X0084310Y0112140D01*
X0084337Y0112085D01*
X0084360Y0112030D01*
X0084380Y0111973D01*
X0084396Y0111914D01*
X0084409Y0111855D01*
X0084418Y0111796D01*
X0084423Y0111735D01*
X0084425Y0111675D01*
X0084425Y0105675D01*
X0084423Y0105615D01*
X0084418Y0105554D01*
X0084409Y0105495D01*
X0084396Y0105436D01*
X0084380Y0105377D01*
X0084360Y0105320D01*
X0084337Y0105265D01*
X0084310Y0105210D01*
X0084281Y0105158D01*
X0084248Y0105107D01*
X0084212Y0105058D01*
X0084174Y0105012D01*
X0084132Y0104968D01*
X0084088Y0104926D01*
X0084042Y0104888D01*
X0083993Y0104852D01*
X0083942Y0104819D01*
X0083890Y0104790D01*
X0083835Y0104763D01*
X0083780Y0104740D01*
X0083723Y0104720D01*
X0083664Y0104704D01*
X0083605Y0104691D01*
X0083546Y0104682D01*
X0083485Y0104677D01*
X0083425Y0104675D01*
X0066425Y0104675D01*
X0066365Y0104677D01*
X0066304Y0104682D01*
X0066245Y0104691D01*
X0066186Y0104704D01*
X0066127Y0104720D01*
X0066070Y0104740D01*
X0066015Y0104763D01*
X0065960Y0104790D01*
X0065908Y0104819D01*
X0065857Y0104852D01*
X0065808Y0104888D01*
X0065762Y0104926D01*
X0065718Y0104968D01*
X0065676Y0105012D01*
X0065638Y0105058D01*
X0065602Y0105107D01*
X0065569Y0105158D01*
X0065540Y0105210D01*
X0065513Y0105265D01*
X0065490Y0105320D01*
X0065470Y0105377D01*
X0065454Y0105436D01*
X0065441Y0105495D01*
X0065432Y0105554D01*
X0065427Y0105615D01*
X0065425Y0105675D01*
X0065425Y0111675D01*
X0065427Y0111735D01*
X0065432Y0111796D01*
X0065441Y0111855D01*
X0065454Y0111914D01*
X0065470Y0111973D01*
X0065490Y0112030D01*
X0065513Y0112085D01*
X0065540Y0112140D01*
X0065569Y0112192D01*
X0065602Y0112243D01*
X0065638Y0112292D01*
X0065676Y0112338D01*
X0065718Y0112382D01*
X0065762Y0112424D01*
X0065808Y0112462D01*
X0065857Y0112498D01*
X0065908Y0112531D01*
X0065960Y0112560D01*
X0066015Y0112587D01*
X0066070Y0112610D01*
X0066127Y0112630D01*
X0066186Y0112646D01*
X0066245Y0112659D01*
X0066304Y0112668D01*
X0066365Y0112673D01*
X0066425Y0112675D01*
X0081800Y0120550D02*
X0084300Y0118050D01*
X0089300Y0118050D01*
X0091800Y0120550D01*
X0094300Y0118050D01*
X0099300Y0118050D01*
X0101800Y0120550D01*
X0101800Y0125550D01*
X0099300Y0128050D01*
X0094300Y0128050D01*
X0091800Y0125550D01*
X0091800Y0120550D01*
X0091800Y0125550D02*
X0089300Y0128050D01*
X0084300Y0128050D01*
X0081800Y0125550D01*
X0114300Y0106800D02*
X0116800Y0109300D01*
X0121800Y0109300D01*
X0124300Y0106800D01*
X0126800Y0109300D01*
X0131800Y0109300D01*
X0134300Y0106800D01*
X0134300Y0101800D01*
X0131800Y0099300D01*
X0126800Y0099300D01*
X0124300Y0101800D01*
X0121800Y0099300D01*
X0116800Y0099300D01*
X0114300Y0101800D01*
X0114300Y0106800D01*
X0124300Y0106800D02*
X0124300Y0101800D01*
X0134300Y0101800D02*
X0136800Y0099300D01*
X0141800Y0099300D01*
X0144300Y0101800D01*
X0146800Y0099300D01*
X0151800Y0099300D01*
X0154300Y0101800D01*
X0156800Y0099300D01*
X0161800Y0099300D01*
X0164300Y0101800D01*
X0164300Y0106800D01*
X0161800Y0109300D01*
X0156800Y0109300D01*
X0154300Y0106800D01*
X0154300Y0101800D01*
X0154300Y0106800D02*
X0151800Y0109300D01*
X0146800Y0109300D01*
X0144300Y0106800D01*
X0144300Y0101800D01*
X0144300Y0106800D02*
X0141800Y0109300D01*
X0136800Y0109300D01*
X0134300Y0106800D01*
X0096300Y0090425D02*
X0096300Y0084425D01*
X0096298Y0084365D01*
X0096293Y0084304D01*
X0096284Y0084245D01*
X0096271Y0084186D01*
X0096255Y0084127D01*
X0096235Y0084070D01*
X0096212Y0084015D01*
X0096185Y0083960D01*
X0096156Y0083908D01*
X0096123Y0083857D01*
X0096087Y0083808D01*
X0096049Y0083762D01*
X0096007Y0083718D01*
X0095963Y0083676D01*
X0095917Y0083638D01*
X0095868Y0083602D01*
X0095817Y0083569D01*
X0095765Y0083540D01*
X0095710Y0083513D01*
X0095655Y0083490D01*
X0095598Y0083470D01*
X0095539Y0083454D01*
X0095480Y0083441D01*
X0095421Y0083432D01*
X0095360Y0083427D01*
X0095300Y0083425D01*
X0078300Y0083425D01*
X0078240Y0083427D01*
X0078179Y0083432D01*
X0078120Y0083441D01*
X0078061Y0083454D01*
X0078002Y0083470D01*
X0077945Y0083490D01*
X0077890Y0083513D01*
X0077835Y0083540D01*
X0077783Y0083569D01*
X0077732Y0083602D01*
X0077683Y0083638D01*
X0077637Y0083676D01*
X0077593Y0083718D01*
X0077551Y0083762D01*
X0077513Y0083808D01*
X0077477Y0083857D01*
X0077444Y0083908D01*
X0077415Y0083960D01*
X0077388Y0084015D01*
X0077365Y0084070D01*
X0077345Y0084127D01*
X0077329Y0084186D01*
X0077316Y0084245D01*
X0077307Y0084304D01*
X0077302Y0084365D01*
X0077300Y0084425D01*
X0077300Y0090425D01*
X0077302Y0090485D01*
X0077307Y0090546D01*
X0077316Y0090605D01*
X0077329Y0090664D01*
X0077345Y0090723D01*
X0077365Y0090780D01*
X0077388Y0090835D01*
X0077415Y0090890D01*
X0077444Y0090942D01*
X0077477Y0090993D01*
X0077513Y0091042D01*
X0077551Y0091088D01*
X0077593Y0091132D01*
X0077637Y0091174D01*
X0077683Y0091212D01*
X0077732Y0091248D01*
X0077783Y0091281D01*
X0077835Y0091310D01*
X0077890Y0091337D01*
X0077945Y0091360D01*
X0078002Y0091380D01*
X0078061Y0091396D01*
X0078120Y0091409D01*
X0078179Y0091418D01*
X0078240Y0091423D01*
X0078300Y0091425D01*
X0095300Y0091425D01*
X0095360Y0091423D01*
X0095421Y0091418D01*
X0095480Y0091409D01*
X0095539Y0091396D01*
X0095598Y0091380D01*
X0095655Y0091360D01*
X0095710Y0091337D01*
X0095765Y0091310D01*
X0095817Y0091281D01*
X0095868Y0091248D01*
X0095917Y0091212D01*
X0095963Y0091174D01*
X0096007Y0091132D01*
X0096049Y0091088D01*
X0096087Y0091042D01*
X0096123Y0090993D01*
X0096156Y0090942D01*
X0096185Y0090890D01*
X0096212Y0090835D01*
X0096235Y0090780D01*
X0096255Y0090723D01*
X0096271Y0090664D01*
X0096284Y0090605D01*
X0096293Y0090546D01*
X0096298Y0090485D01*
X0096300Y0090425D01*
X0102550Y0076425D02*
X0108550Y0076425D01*
X0108610Y0076423D01*
X0108671Y0076418D01*
X0108730Y0076409D01*
X0108789Y0076396D01*
X0108848Y0076380D01*
X0108905Y0076360D01*
X0108960Y0076337D01*
X0109015Y0076310D01*
X0109067Y0076281D01*
X0109118Y0076248D01*
X0109167Y0076212D01*
X0109213Y0076174D01*
X0109257Y0076132D01*
X0109299Y0076088D01*
X0109337Y0076042D01*
X0109373Y0075993D01*
X0109406Y0075942D01*
X0109435Y0075890D01*
X0109462Y0075835D01*
X0109485Y0075780D01*
X0109505Y0075723D01*
X0109521Y0075664D01*
X0109534Y0075605D01*
X0109543Y0075546D01*
X0109548Y0075485D01*
X0109550Y0075425D01*
X0109550Y0064425D01*
X0109548Y0064365D01*
X0109543Y0064304D01*
X0109534Y0064245D01*
X0109521Y0064186D01*
X0109505Y0064127D01*
X0109485Y0064070D01*
X0109462Y0064015D01*
X0109435Y0063960D01*
X0109406Y0063908D01*
X0109373Y0063857D01*
X0109337Y0063808D01*
X0109299Y0063762D01*
X0109257Y0063718D01*
X0109213Y0063676D01*
X0109167Y0063638D01*
X0109118Y0063602D01*
X0109067Y0063569D01*
X0109015Y0063540D01*
X0108960Y0063513D01*
X0108905Y0063490D01*
X0108848Y0063470D01*
X0108789Y0063454D01*
X0108730Y0063441D01*
X0108671Y0063432D01*
X0108610Y0063427D01*
X0108550Y0063425D01*
X0102550Y0063425D01*
X0102490Y0063427D01*
X0102429Y0063432D01*
X0102370Y0063441D01*
X0102311Y0063454D01*
X0102252Y0063470D01*
X0102195Y0063490D01*
X0102140Y0063513D01*
X0102085Y0063540D01*
X0102033Y0063569D01*
X0101982Y0063602D01*
X0101933Y0063638D01*
X0101887Y0063676D01*
X0101843Y0063718D01*
X0101801Y0063762D01*
X0101763Y0063808D01*
X0101727Y0063857D01*
X0101694Y0063908D01*
X0101665Y0063960D01*
X0101638Y0064015D01*
X0101615Y0064070D01*
X0101595Y0064127D01*
X0101579Y0064186D01*
X0101566Y0064245D01*
X0101557Y0064304D01*
X0101552Y0064365D01*
X0101550Y0064425D01*
X0101550Y0075425D01*
X0101552Y0075485D01*
X0101557Y0075546D01*
X0101566Y0075605D01*
X0101579Y0075664D01*
X0101595Y0075723D01*
X0101615Y0075780D01*
X0101638Y0075835D01*
X0101665Y0075890D01*
X0101694Y0075942D01*
X0101727Y0075993D01*
X0101763Y0076042D01*
X0101801Y0076088D01*
X0101843Y0076132D01*
X0101887Y0076174D01*
X0101933Y0076212D01*
X0101982Y0076248D01*
X0102033Y0076281D01*
X0102085Y0076310D01*
X0102140Y0076337D01*
X0102195Y0076360D01*
X0102252Y0076380D01*
X0102311Y0076396D01*
X0102370Y0076409D01*
X0102429Y0076418D01*
X0102490Y0076423D01*
X0102550Y0076425D01*
X0173050Y0031800D02*
X0175550Y0034300D01*
X0180550Y0034300D01*
X0183050Y0031800D01*
X0185550Y0034300D01*
X0190550Y0034300D01*
X0193050Y0031800D01*
X0195550Y0034300D01*
X0200550Y0034300D01*
X0203050Y0031800D01*
X0205550Y0034300D01*
X0210550Y0034300D01*
X0213050Y0031800D01*
X0215550Y0034300D01*
X0220550Y0034300D01*
X0223050Y0031800D01*
X0225550Y0034300D01*
X0230550Y0034300D01*
X0233050Y0031800D01*
X0235550Y0034300D01*
X0240550Y0034300D01*
X0243050Y0031800D01*
X0245550Y0034300D01*
X0250550Y0034300D01*
X0253050Y0031800D01*
X0255550Y0034300D01*
X0260550Y0034300D01*
X0263050Y0031800D01*
X0265550Y0034300D01*
X0270550Y0034300D01*
X0273050Y0031800D01*
X0273050Y0026800D01*
X0270550Y0024300D01*
X0265550Y0024300D01*
X0263050Y0026800D01*
X0260550Y0024300D01*
X0255550Y0024300D01*
X0253050Y0026800D01*
X0253050Y0031800D01*
X0253050Y0026800D02*
X0250550Y0024300D01*
X0245550Y0024300D01*
X0243050Y0026800D01*
X0240550Y0024300D01*
X0235550Y0024300D01*
X0233050Y0026800D01*
X0230550Y0024300D01*
X0225550Y0024300D01*
X0223050Y0026800D01*
X0223050Y0031800D01*
X0223050Y0026800D02*
X0220550Y0024300D01*
X0215550Y0024300D01*
X0213050Y0026800D01*
X0210550Y0024300D01*
X0205550Y0024300D01*
X0203050Y0026800D01*
X0200550Y0024300D01*
X0195550Y0024300D01*
X0193050Y0026800D01*
X0193050Y0031800D01*
X0193050Y0026800D02*
X0190550Y0024300D01*
X0185550Y0024300D01*
X0183050Y0026800D01*
X0180550Y0024300D01*
X0175550Y0024300D01*
X0173050Y0026800D01*
X0173050Y0031800D01*
X0183050Y0031800D02*
X0183050Y0026800D01*
X0203050Y0026800D02*
X0203050Y0031800D01*
X0213050Y0031800D02*
X0213050Y0026800D01*
X0233050Y0026800D02*
X0233050Y0031800D01*
X0243050Y0031800D02*
X0243050Y0026800D01*
X0263050Y0026800D02*
X0263050Y0031800D01*
D11*
X0041096Y0026502D02*
X0041096Y0025001D01*
X0041847Y0024250D01*
X0043348Y0025751D02*
X0043348Y0026502D01*
X0044099Y0027253D01*
X0044849Y0027253D01*
X0045600Y0026502D01*
X0045600Y0025001D01*
X0044849Y0024250D01*
X0043348Y0026502D02*
X0042597Y0027253D01*
X0041847Y0027253D01*
X0041096Y0026502D01*
X0044849Y0028854D02*
X0044849Y0029605D01*
X0045600Y0029605D01*
X0045600Y0028854D01*
X0044849Y0028854D01*
X0044849Y0031156D02*
X0045600Y0031907D01*
X0045600Y0033408D01*
X0044849Y0034158D01*
X0044099Y0034158D01*
X0043348Y0033408D01*
X0043348Y0032657D01*
X0043348Y0033408D02*
X0042597Y0034158D01*
X0041847Y0034158D01*
X0041096Y0033408D01*
X0041096Y0031907D01*
X0041847Y0031156D01*
X0041096Y0035760D02*
X0044099Y0035760D01*
X0045600Y0037261D01*
X0044099Y0038762D01*
X0041096Y0038762D01*
X0042597Y0040364D02*
X0041096Y0041865D01*
X0045600Y0041865D01*
X0045600Y0040364D02*
X0045600Y0043366D01*
X0020600Y0049250D02*
X0020600Y0051502D01*
X0019849Y0052253D01*
X0019099Y0052253D01*
X0018348Y0051502D01*
X0018348Y0049250D01*
X0016096Y0049250D02*
X0016096Y0051502D01*
X0016847Y0052253D01*
X0017597Y0052253D01*
X0018348Y0051502D01*
X0020600Y0049250D02*
X0016096Y0049250D01*
X0017597Y0053854D02*
X0016096Y0055355D01*
X0017597Y0056856D01*
X0020600Y0056856D01*
X0018348Y0056856D02*
X0018348Y0053854D01*
X0017597Y0053854D02*
X0020600Y0053854D01*
X0016096Y0058458D02*
X0016096Y0061460D01*
X0016096Y0059959D02*
X0020600Y0059959D01*
X0020600Y0063062D02*
X0020600Y0064563D01*
X0020600Y0063812D02*
X0016096Y0063812D01*
X0016096Y0063062D02*
X0016096Y0064563D01*
X0016096Y0066131D02*
X0020600Y0069134D01*
X0016096Y0069134D01*
X0016096Y0066131D02*
X0020600Y0066131D01*
X0041096Y0070001D02*
X0041847Y0069250D01*
X0041096Y0070001D02*
X0041096Y0071502D01*
X0041847Y0072253D01*
X0042597Y0072253D01*
X0043348Y0071502D01*
X0044099Y0072253D01*
X0044849Y0072253D01*
X0045600Y0071502D01*
X0045600Y0070001D01*
X0044849Y0069250D01*
X0043348Y0070751D02*
X0043348Y0071502D01*
X0044849Y0073854D02*
X0044849Y0074605D01*
X0045600Y0074605D01*
X0045600Y0073854D01*
X0044849Y0073854D01*
X0044849Y0076156D02*
X0045600Y0076907D01*
X0045600Y0078408D01*
X0044849Y0079158D01*
X0044099Y0079158D01*
X0043348Y0078408D01*
X0043348Y0077657D01*
X0043348Y0078408D02*
X0042597Y0079158D01*
X0041847Y0079158D01*
X0041096Y0078408D01*
X0041096Y0076907D01*
X0041847Y0076156D01*
X0041096Y0080760D02*
X0044099Y0080760D01*
X0045600Y0082261D01*
X0044099Y0083762D01*
X0041096Y0083762D01*
X0041847Y0085364D02*
X0041096Y0086114D01*
X0041096Y0087616D01*
X0041847Y0088366D01*
X0042597Y0088366D01*
X0045600Y0085364D01*
X0045600Y0088366D01*
X0032050Y0103300D02*
X0027546Y0103300D01*
X0027546Y0105552D01*
X0028297Y0106303D01*
X0029798Y0106303D01*
X0030549Y0105552D01*
X0030549Y0103300D01*
X0029798Y0107904D02*
X0029798Y0110906D01*
X0029047Y0110906D02*
X0027546Y0109405D01*
X0029047Y0107904D01*
X0032050Y0107904D01*
X0032050Y0110906D02*
X0029047Y0110906D01*
X0027546Y0112508D02*
X0027546Y0114760D01*
X0028297Y0115510D01*
X0031299Y0115510D01*
X0032050Y0114760D01*
X0032050Y0112508D01*
X0027546Y0112508D01*
X0028297Y0117112D02*
X0027546Y0117862D01*
X0027546Y0119364D01*
X0028297Y0120114D01*
X0029047Y0120114D01*
X0032050Y0117112D01*
X0032050Y0120114D01*
X0015800Y0120114D02*
X0015800Y0117112D01*
X0015800Y0118613D02*
X0011296Y0118613D01*
X0012797Y0117112D01*
X0012047Y0115510D02*
X0011296Y0114760D01*
X0011296Y0112508D01*
X0015800Y0112508D01*
X0015800Y0114760D01*
X0015049Y0115510D01*
X0012047Y0115510D01*
X0012797Y0110906D02*
X0015800Y0110906D01*
X0013548Y0110906D02*
X0013548Y0107904D01*
X0012797Y0107904D02*
X0011296Y0109405D01*
X0012797Y0110906D01*
X0012797Y0107904D02*
X0015800Y0107904D01*
X0013548Y0106303D02*
X0014299Y0105552D01*
X0014299Y0103300D01*
X0015800Y0103300D02*
X0011296Y0103300D01*
X0011296Y0105552D01*
X0012047Y0106303D01*
X0013548Y0106303D01*
X0051003Y0134881D02*
X0053503Y0134881D01*
X0053503Y0136131D01*
X0057253Y0136131D01*
X0057253Y0146131D01*
X0047253Y0146131D01*
X0047253Y0136131D01*
X0051003Y0136131D01*
X0051003Y0134881D01*
X0051003Y0136131D02*
X0053503Y0136131D01*
X0057253Y0136131D02*
X0247253Y0136131D01*
X0247253Y0156131D01*
X0047253Y0156131D01*
X0047253Y0146131D01*
X0061750Y0135004D02*
X0061750Y0130500D01*
X0064753Y0130500D01*
X0066354Y0130500D02*
X0066354Y0135004D01*
X0069356Y0130500D01*
X0069356Y0135004D01*
X0070958Y0134253D02*
X0070958Y0131251D01*
X0071708Y0130500D01*
X0073210Y0130500D01*
X0073960Y0131251D01*
X0075562Y0131251D02*
X0076312Y0130500D01*
X0077814Y0130500D01*
X0078564Y0131251D01*
X0078564Y0134253D01*
X0077814Y0135004D01*
X0076312Y0135004D01*
X0075562Y0134253D01*
X0075562Y0131251D01*
X0073960Y0134253D02*
X0073210Y0135004D01*
X0071708Y0135004D01*
X0070958Y0134253D01*
X0064753Y0135004D02*
X0061750Y0135004D01*
X0061750Y0132752D02*
X0063251Y0132752D01*
X0080166Y0135004D02*
X0080166Y0130500D01*
X0082418Y0130500D01*
X0083168Y0131251D01*
X0083168Y0134253D01*
X0082418Y0135004D01*
X0080166Y0135004D01*
X0084770Y0135004D02*
X0084770Y0130500D01*
X0087772Y0130500D01*
X0089374Y0130500D02*
X0089374Y0135004D01*
X0091625Y0135004D01*
X0092376Y0134253D01*
X0092376Y0132752D01*
X0091625Y0132001D01*
X0089374Y0132001D01*
X0090875Y0132001D02*
X0092376Y0130500D01*
X0087772Y0135004D02*
X0084770Y0135004D01*
X0084770Y0132752D02*
X0086271Y0132752D01*
X0076384Y0118429D02*
X0076384Y0113925D01*
X0074883Y0113925D02*
X0077885Y0113925D01*
X0074883Y0116928D02*
X0076384Y0118429D01*
X0073281Y0118429D02*
X0071780Y0118429D01*
X0072531Y0118429D02*
X0072531Y0114676D01*
X0071780Y0113925D01*
X0071030Y0113925D01*
X0070279Y0114676D01*
X0068678Y0114676D02*
X0067927Y0113925D01*
X0066426Y0113925D01*
X0065675Y0114676D01*
X0066426Y0116177D02*
X0067927Y0116177D01*
X0068678Y0115426D01*
X0068678Y0114676D01*
X0066426Y0116177D02*
X0065675Y0116928D01*
X0065675Y0117678D01*
X0066426Y0118429D01*
X0067927Y0118429D01*
X0068678Y0117678D01*
X0078301Y0097179D02*
X0077550Y0096428D01*
X0077550Y0095678D01*
X0078301Y0094927D01*
X0079802Y0094927D01*
X0080553Y0094176D01*
X0080553Y0093426D01*
X0079802Y0092675D01*
X0078301Y0092675D01*
X0077550Y0093426D01*
X0080553Y0096428D02*
X0079802Y0097179D01*
X0078301Y0097179D01*
X0083655Y0097179D02*
X0085156Y0097179D01*
X0084406Y0097179D02*
X0084406Y0093426D01*
X0083655Y0092675D01*
X0082905Y0092675D01*
X0082154Y0093426D01*
X0086758Y0092675D02*
X0089760Y0095678D01*
X0089760Y0096428D01*
X0089010Y0097179D01*
X0087508Y0097179D01*
X0086758Y0096428D01*
X0086758Y0092675D02*
X0089760Y0092675D01*
X0110296Y0074323D02*
X0111047Y0075074D01*
X0111797Y0075074D01*
X0112548Y0074323D01*
X0113299Y0075074D01*
X0114049Y0075074D01*
X0114800Y0074323D01*
X0114800Y0072822D01*
X0114049Y0072071D01*
X0112548Y0073572D02*
X0112548Y0074323D01*
X0110296Y0074323D02*
X0110296Y0072822D01*
X0111047Y0072071D01*
X0110296Y0070470D02*
X0110296Y0068968D01*
X0110296Y0069719D02*
X0114049Y0069719D01*
X0114800Y0068968D01*
X0114800Y0068218D01*
X0114049Y0067467D01*
X0114049Y0065866D02*
X0113299Y0065866D01*
X0112548Y0065115D01*
X0112548Y0063614D01*
X0111797Y0062863D01*
X0111047Y0062863D01*
X0110296Y0063614D01*
X0110296Y0065115D01*
X0111047Y0065866D01*
X0114049Y0065866D02*
X0114800Y0065115D01*
X0114800Y0063614D01*
X0114049Y0062863D01*
X0114250Y0111750D02*
X0114250Y0114753D01*
X0115751Y0116254D01*
X0117253Y0114753D01*
X0117253Y0111750D01*
X0118854Y0111750D02*
X0121856Y0111750D01*
X0118854Y0111750D02*
X0118854Y0116254D01*
X0117253Y0114002D02*
X0114250Y0114002D01*
X0123458Y0116254D02*
X0126460Y0116254D01*
X0124959Y0116254D02*
X0124959Y0111750D01*
X0128062Y0111750D02*
X0129563Y0111750D01*
X0128812Y0111750D02*
X0128812Y0116254D01*
X0128062Y0116254D02*
X0129563Y0116254D01*
X0131131Y0116254D02*
X0132632Y0114753D01*
X0134134Y0116254D01*
X0134134Y0111750D01*
X0135735Y0112501D02*
X0136486Y0111750D01*
X0137987Y0111750D01*
X0138738Y0112501D01*
X0138738Y0116254D01*
X0135735Y0116254D02*
X0135735Y0112501D01*
X0131131Y0111750D02*
X0131131Y0116254D01*
X0232165Y0021854D02*
X0232165Y0018851D01*
X0233666Y0017350D01*
X0235167Y0018851D01*
X0235167Y0021854D01*
X0236769Y0021103D02*
X0236769Y0018101D01*
X0237519Y0017350D01*
X0239020Y0017350D01*
X0239771Y0018101D01*
X0239771Y0021103D01*
X0239020Y0021854D01*
X0237519Y0021854D01*
X0236769Y0021103D01*
X0241372Y0021854D02*
X0241372Y0017350D01*
X0244375Y0017350D01*
X0247478Y0017350D02*
X0247478Y0021854D01*
X0248979Y0021854D02*
X0245976Y0021854D01*
X0250580Y0021854D02*
X0252082Y0020353D01*
X0253583Y0021854D01*
X0253583Y0017350D01*
X0255184Y0017350D02*
X0258187Y0017350D01*
X0256685Y0019602D02*
X0255184Y0019602D01*
X0255184Y0021854D02*
X0255184Y0017350D01*
X0250580Y0017350D02*
X0250580Y0021854D01*
X0255184Y0021854D02*
X0258187Y0021854D01*
X0259788Y0021854D02*
X0262791Y0021854D01*
X0261289Y0021854D02*
X0261289Y0017350D01*
X0264392Y0017350D02*
X0267395Y0017350D01*
X0268996Y0017350D02*
X0268996Y0021854D01*
X0271248Y0021854D01*
X0271999Y0021103D01*
X0271999Y0019602D01*
X0271248Y0018851D01*
X0268996Y0018851D01*
X0270497Y0018851D02*
X0271999Y0017350D01*
X0265893Y0019602D02*
X0264392Y0019602D01*
X0264392Y0021854D02*
X0264392Y0017350D01*
X0264392Y0021854D02*
X0267395Y0021854D01*
D12*
X0267922Y0065550D03*
X0260048Y0065550D03*
X0252174Y0065550D03*
X0244300Y0065550D03*
X0236426Y0065550D03*
X0228552Y0065550D03*
X0220678Y0065550D03*
X0220678Y0126800D03*
X0228552Y0126800D03*
X0236426Y0126800D03*
X0244300Y0126800D03*
X0252174Y0126800D03*
X0260048Y0126800D03*
X0267922Y0126800D03*
D13*
X0115975Y0100948D02*
X0115975Y0099413D01*
X0115208Y0098646D01*
X0113673Y0098646D02*
X0112906Y0100181D01*
X0112906Y0100948D01*
X0113673Y0101715D01*
X0115208Y0101715D01*
X0115975Y0100948D01*
X0113673Y0098646D02*
X0111371Y0098646D01*
X0111371Y0101715D01*
X0112138Y0097111D02*
X0113673Y0097111D01*
X0114440Y0096344D01*
X0114440Y0094042D01*
X0114440Y0095577D02*
X0115975Y0097111D01*
X0112138Y0097111D02*
X0111371Y0096344D01*
X0111371Y0094042D01*
X0115975Y0094042D01*
X0053605Y0130081D02*
X0051203Y0130081D01*
X0052404Y0130081D02*
X0052404Y0133684D01*
X0051203Y0132483D01*
X0073388Y0048564D02*
X0072621Y0047796D01*
X0072621Y0046262D01*
X0073388Y0045494D01*
X0073388Y0043960D02*
X0072621Y0043193D01*
X0072621Y0040891D01*
X0077225Y0040891D01*
X0075690Y0040891D02*
X0075690Y0043193D01*
X0074923Y0043960D01*
X0073388Y0043960D01*
X0075690Y0042425D02*
X0077225Y0043960D01*
X0077225Y0045494D02*
X0074156Y0048564D01*
X0073388Y0048564D01*
X0077225Y0048564D02*
X0077225Y0045494D01*
X0073904Y0023479D02*
X0073904Y0018875D01*
X0072369Y0018875D02*
X0075439Y0018875D01*
X0070835Y0018875D02*
X0069300Y0020410D01*
X0070068Y0020410D02*
X0067766Y0020410D01*
X0067766Y0018875D02*
X0067766Y0023479D01*
X0070068Y0023479D01*
X0070835Y0022712D01*
X0070835Y0021177D01*
X0070068Y0020410D01*
X0072369Y0021944D02*
X0073904Y0023479D01*
M02*
