G75*
%MOIN*%
%OFA0B0*%
%FSLAX25Y25*%
%IPPOS*%
%LPD*%
%AMOC8*
5,1,8,0,0,1.08239X$1,22.5*
%
%ADD10C,0.06000*%
%ADD11R,0.10000X0.20000*%
%ADD12C,0.05600*%
%ADD13R,0.07000X0.07000*%
%ADD14C,0.07000*%
%ADD15R,0.04600X0.06300*%
%ADD16R,0.06299X0.07098*%
%ADD17R,0.07098X0.06299*%
%ADD18C,0.05200*%
%ADD19R,0.06300X0.04600*%
%ADD20C,0.02400*%
%ADD21C,0.01600*%
%ADD22C,0.03962*%
%ADD23C,0.01000*%
%ADD24OC8,0.03962*%
D10*
X0050050Y0029300D02*
X0056050Y0029300D01*
X0056050Y0039300D02*
X0050050Y0039300D01*
X0050050Y0049300D02*
X0056050Y0049300D01*
X0056050Y0059300D02*
X0050050Y0059300D01*
X0031050Y0054300D02*
X0025050Y0054300D01*
X0025050Y0064300D02*
X0031050Y0064300D01*
X0031050Y0074300D02*
X0025050Y0074300D01*
X0050050Y0074300D02*
X0056050Y0074300D01*
X0056050Y0084300D02*
X0050050Y0084300D01*
X0050050Y0094300D02*
X0056050Y0094300D01*
X0056050Y0104300D02*
X0050050Y0104300D01*
X0066800Y0120050D02*
X0066800Y0126050D01*
X0076800Y0126050D02*
X0076800Y0120050D01*
X0086800Y0120050D02*
X0086800Y0126050D01*
X0096800Y0126050D02*
X0096800Y0120050D01*
X0119300Y0107300D02*
X0119300Y0101300D01*
X0129300Y0101300D02*
X0129300Y0107300D01*
X0139300Y0107300D02*
X0139300Y0101300D01*
X0149300Y0101300D02*
X0149300Y0107300D01*
X0159300Y0107300D02*
X0159300Y0101300D01*
X0170550Y0053550D02*
X0170550Y0047550D01*
X0180550Y0047550D02*
X0180550Y0053550D01*
X0190550Y0053550D02*
X0190550Y0047550D01*
X0200550Y0047550D02*
X0200550Y0053550D01*
X0198050Y0032300D02*
X0198050Y0026300D01*
X0208050Y0026300D02*
X0208050Y0032300D01*
X0218050Y0032300D02*
X0218050Y0026300D01*
X0228050Y0026300D02*
X0228050Y0032300D01*
X0238050Y0032300D02*
X0238050Y0026300D01*
X0248050Y0026300D02*
X0248050Y0032300D01*
X0258050Y0032300D02*
X0258050Y0026300D01*
X0268050Y0026300D02*
X0268050Y0032300D01*
X0188050Y0032300D02*
X0188050Y0026300D01*
X0178050Y0026300D02*
X0178050Y0032300D01*
X0148050Y0032300D02*
X0148050Y0026300D01*
X0138050Y0026300D02*
X0138050Y0032300D01*
X0128050Y0032300D02*
X0128050Y0026300D01*
X0118050Y0026300D02*
X0118050Y0032300D01*
X0108050Y0032300D02*
X0108050Y0026300D01*
X0098050Y0026300D02*
X0098050Y0032300D01*
X0088050Y0032300D02*
X0088050Y0026300D01*
D11*
X0039300Y0113050D03*
X0023050Y0113050D03*
D12*
X0220678Y0126800D03*
X0228552Y0126800D03*
X0236426Y0126800D03*
X0244300Y0126800D03*
X0252174Y0126800D03*
X0260048Y0126800D03*
X0267922Y0126800D03*
X0267922Y0065550D03*
X0260048Y0065550D03*
X0252174Y0065550D03*
X0244300Y0065550D03*
X0236426Y0065550D03*
X0228552Y0065550D03*
X0220678Y0065550D03*
D13*
X0052253Y0141131D03*
D14*
X0062253Y0141131D03*
X0072253Y0141131D03*
X0082253Y0141131D03*
X0092253Y0141131D03*
X0102253Y0141131D03*
X0112253Y0141131D03*
X0122253Y0141131D03*
X0132253Y0141131D03*
X0142253Y0141131D03*
X0152253Y0141131D03*
X0162253Y0141131D03*
X0172253Y0141131D03*
X0182253Y0141131D03*
X0192253Y0141131D03*
X0202253Y0141131D03*
X0212253Y0141131D03*
X0222253Y0141131D03*
X0232253Y0141131D03*
X0242253Y0141131D03*
X0242253Y0151131D03*
X0232253Y0151131D03*
X0222253Y0151131D03*
X0212253Y0151131D03*
X0202253Y0151131D03*
X0192253Y0151131D03*
X0182253Y0151131D03*
X0172253Y0151131D03*
X0162253Y0151131D03*
X0152253Y0151131D03*
X0142253Y0151131D03*
X0132253Y0151131D03*
X0122253Y0151131D03*
X0112253Y0151131D03*
X0102253Y0151131D03*
X0092253Y0151131D03*
X0082253Y0151131D03*
X0072253Y0151131D03*
X0062253Y0151131D03*
X0052253Y0151131D03*
D15*
X0068925Y0108675D03*
X0074925Y0108675D03*
X0080925Y0108675D03*
X0080800Y0087425D03*
X0086800Y0087425D03*
X0092800Y0087425D03*
D16*
X0077372Y0028675D03*
X0066175Y0028675D03*
D17*
X0067425Y0039300D03*
X0067425Y0050497D03*
X0106175Y0092452D03*
X0106175Y0103648D03*
D18*
X0114300Y0095125D02*
X0114300Y0089925D01*
X0124300Y0089925D02*
X0124300Y0095125D01*
X0124300Y0059925D02*
X0124300Y0054725D01*
X0114300Y0054725D02*
X0114300Y0059925D01*
D19*
X0105550Y0066925D03*
X0105550Y0072925D03*
D20*
X0045550Y0029300D02*
X0039300Y0035550D01*
X0039300Y0081800D01*
X0039300Y0084300D01*
X0039300Y0113050D01*
X0050550Y0108050D02*
X0050550Y0139428D01*
X0052253Y0141131D01*
X0057425Y0130550D02*
X0056800Y0129925D01*
X0056800Y0118050D01*
X0065550Y0109300D01*
X0068925Y0108675D01*
X0074925Y0108675D02*
X0074925Y0114300D01*
X0076800Y0116175D01*
X0076800Y0123050D01*
X0086800Y0123050D02*
X0086800Y0087425D01*
X0080800Y0087425D02*
X0080800Y0079675D01*
X0083050Y0077425D01*
X0094300Y0077425D01*
X0097425Y0074300D02*
X0103050Y0079925D01*
X0103050Y0082425D01*
X0098050Y0087425D01*
X0092800Y0087425D01*
X0080925Y0098425D02*
X0079925Y0097425D01*
X0074925Y0097425D01*
X0069300Y0091800D01*
X0069300Y0078675D01*
X0076800Y0071175D01*
X0084925Y0071175D01*
X0094925Y0061175D01*
X0097425Y0065550D02*
X0097425Y0074300D01*
X0105425Y0073550D02*
X0105550Y0072925D01*
X0105425Y0073550D02*
X0114300Y0073675D01*
X0124300Y0073675D02*
X0124300Y0059925D01*
X0129300Y0056800D02*
X0134613Y0051487D01*
X0118050Y0034925D01*
X0118050Y0029300D01*
X0108675Y0029925D02*
X0108675Y0034925D01*
X0119300Y0045550D01*
X0119300Y0104300D01*
X0129300Y0104300D02*
X0129300Y0056800D01*
X0114300Y0056175D02*
X0114300Y0059925D01*
X0113675Y0059925D01*
X0109300Y0064300D01*
X0105550Y0066925D01*
X0103050Y0059925D02*
X0097425Y0065550D01*
X0103050Y0059925D02*
X0103050Y0056800D01*
X0114300Y0056175D02*
X0099925Y0041800D01*
X0088050Y0041800D01*
X0088050Y0029300D01*
X0077425Y0028728D02*
X0077425Y0035550D01*
X0073675Y0039300D01*
X0067425Y0039300D01*
X0066175Y0028675D02*
X0055550Y0039300D01*
X0053050Y0039300D01*
X0053050Y0029300D02*
X0045550Y0029300D01*
X0070550Y0059300D02*
X0088050Y0041800D01*
X0108050Y0029300D02*
X0108675Y0029925D01*
X0070550Y0059300D02*
X0059300Y0059300D01*
X0063050Y0063050D01*
X0063050Y0100550D01*
X0060550Y0103050D01*
X0054300Y0103050D01*
X0053050Y0104300D01*
X0053050Y0105550D01*
X0050550Y0108050D01*
X0023050Y0113050D02*
X0023050Y0099300D01*
X0022425Y0098675D01*
X0022425Y0079925D01*
X0028050Y0074300D01*
X0039300Y0081800D02*
X0046800Y0074300D01*
X0053050Y0059300D02*
X0059300Y0059300D01*
X0080925Y0098425D02*
X0080925Y0108675D01*
X0022425Y0098675D02*
X0022425Y0142425D01*
X0028050Y0148050D01*
X0028050Y0153050D01*
X0022425Y0147425D01*
X0022425Y0142425D01*
X0142253Y0141131D02*
X0142253Y0128847D01*
X0148675Y0122425D01*
X0178675Y0122425D01*
X0179300Y0121800D01*
X0165550Y0128675D02*
X0162253Y0131972D01*
X0162253Y0141131D01*
X0152253Y0141131D02*
X0152253Y0131347D01*
X0156800Y0126800D01*
X0190550Y0139428D02*
X0192253Y0141131D01*
X0190550Y0139428D02*
X0190550Y0050550D01*
X0200550Y0068050D02*
X0200550Y0074925D01*
X0211175Y0085550D01*
X0229300Y0085550D01*
X0205550Y0107425D02*
X0205550Y0126800D01*
X0184300Y0089925D02*
X0176800Y0089925D01*
X0167425Y0080550D01*
X0161800Y0029925D02*
X0162425Y0029300D01*
X0178050Y0029300D01*
D21*
X0157780Y0046925D02*
X0156126Y0046240D01*
X0155237Y0045351D01*
X0138800Y0061789D01*
X0138800Y0096519D01*
X0138922Y0096500D01*
X0139100Y0096500D01*
X0139100Y0104100D01*
X0139500Y0104100D01*
X0139500Y0095845D01*
X0140231Y0094081D01*
X0142106Y0092206D01*
X0143456Y0090856D01*
X0145220Y0090125D01*
X0164630Y0090125D01*
X0166394Y0090856D01*
X0172019Y0096481D01*
X0173369Y0097831D01*
X0174100Y0099595D01*
X0174100Y0100641D01*
X0175281Y0101823D01*
X0175281Y0106777D01*
X0171777Y0110281D01*
X0166823Y0110281D01*
X0165988Y0109446D01*
X0165234Y0111265D01*
X0163265Y0113234D01*
X0160692Y0114300D01*
X0157908Y0114300D01*
X0155335Y0113234D01*
X0154300Y0112199D01*
X0154100Y0112399D01*
X0154100Y0115255D01*
X0153369Y0117019D01*
X0153163Y0117225D01*
X0175416Y0117225D01*
X0175912Y0116729D01*
X0178110Y0115819D01*
X0180490Y0115819D01*
X0182688Y0116729D01*
X0184371Y0118412D01*
X0185281Y0120610D01*
X0185281Y0122990D01*
X0184371Y0125188D01*
X0182688Y0126871D01*
X0180490Y0127781D01*
X0178110Y0127781D01*
X0177733Y0127625D01*
X0171531Y0127625D01*
X0171531Y0129865D01*
X0170621Y0132063D01*
X0168938Y0133746D01*
X0167453Y0134361D01*
X0167453Y0135724D01*
X0168611Y0136882D01*
X0168727Y0137162D01*
X0168800Y0137088D01*
X0169475Y0136598D01*
X0170218Y0136219D01*
X0171012Y0135961D01*
X0171836Y0135831D01*
X0172068Y0135831D01*
X0172068Y0140946D01*
X0172437Y0140946D01*
X0172437Y0135831D01*
X0172670Y0135831D01*
X0173494Y0135961D01*
X0174287Y0136219D01*
X0175031Y0136598D01*
X0175705Y0137088D01*
X0175779Y0137162D01*
X0175895Y0136882D01*
X0178004Y0134773D01*
X0180761Y0133631D01*
X0183745Y0133631D01*
X0185350Y0134296D01*
X0185350Y0095906D01*
X0183110Y0095906D01*
X0181225Y0095125D01*
X0175766Y0095125D01*
X0173854Y0094333D01*
X0165923Y0086402D01*
X0164037Y0085621D01*
X0162354Y0083938D01*
X0161444Y0081740D01*
X0161444Y0079360D01*
X0162354Y0077162D01*
X0164037Y0075479D01*
X0166235Y0074569D01*
X0168615Y0074569D01*
X0170813Y0075479D01*
X0172496Y0077162D01*
X0173277Y0079048D01*
X0178954Y0084725D01*
X0181225Y0084725D01*
X0183110Y0083944D01*
X0185350Y0083944D01*
X0185350Y0058649D01*
X0184515Y0059484D01*
X0181942Y0060550D01*
X0179158Y0060550D01*
X0176585Y0059484D01*
X0174616Y0057515D01*
X0174248Y0056627D01*
X0174211Y0056677D01*
X0173677Y0057211D01*
X0173066Y0057655D01*
X0172393Y0057998D01*
X0171674Y0058232D01*
X0170928Y0058350D01*
X0170750Y0058350D01*
X0170750Y0050750D01*
X0170350Y0050750D01*
X0170350Y0058350D01*
X0170172Y0058350D01*
X0169426Y0058232D01*
X0168707Y0057998D01*
X0168034Y0057655D01*
X0167423Y0057211D01*
X0166889Y0056677D01*
X0166445Y0056066D01*
X0144523Y0056066D01*
X0142925Y0057664D02*
X0168052Y0057664D01*
X0166445Y0056066D02*
X0166102Y0055393D01*
X0165868Y0054674D01*
X0165750Y0053928D01*
X0165750Y0050750D01*
X0170350Y0050750D01*
X0170350Y0050350D01*
X0165750Y0050350D01*
X0165750Y0047172D01*
X0165789Y0046925D01*
X0157780Y0046925D01*
X0156693Y0046475D02*
X0154114Y0046475D01*
X0152516Y0048073D02*
X0165750Y0048073D01*
X0165750Y0049672D02*
X0150917Y0049672D01*
X0149319Y0051270D02*
X0165750Y0051270D01*
X0165750Y0052869D02*
X0147720Y0052869D01*
X0146122Y0054467D02*
X0165835Y0054467D01*
X0170350Y0054467D02*
X0170750Y0054467D01*
X0170750Y0052869D02*
X0170350Y0052869D01*
X0170350Y0051270D02*
X0170750Y0051270D01*
X0170750Y0056066D02*
X0170350Y0056066D01*
X0170350Y0057664D02*
X0170750Y0057664D01*
X0173048Y0057664D02*
X0174765Y0057664D01*
X0176363Y0059263D02*
X0141326Y0059263D01*
X0139728Y0060861D02*
X0185350Y0060861D01*
X0185350Y0059263D02*
X0184737Y0059263D01*
X0185350Y0062460D02*
X0138800Y0062460D01*
X0138800Y0064058D02*
X0185350Y0064058D01*
X0185350Y0065657D02*
X0138800Y0065657D01*
X0138800Y0067255D02*
X0185350Y0067255D01*
X0185350Y0068854D02*
X0138800Y0068854D01*
X0138800Y0070452D02*
X0185350Y0070452D01*
X0185350Y0072051D02*
X0138800Y0072051D01*
X0138800Y0073649D02*
X0185350Y0073649D01*
X0185350Y0075248D02*
X0170254Y0075248D01*
X0172180Y0076846D02*
X0185350Y0076846D01*
X0185350Y0078445D02*
X0173027Y0078445D01*
X0174272Y0080043D02*
X0185350Y0080043D01*
X0185350Y0081642D02*
X0175871Y0081642D01*
X0177469Y0083240D02*
X0185350Y0083240D01*
X0195750Y0083240D02*
X0201512Y0083240D01*
X0199913Y0081642D02*
X0195750Y0081642D01*
X0195750Y0080043D02*
X0198315Y0080043D01*
X0196716Y0078445D02*
X0195750Y0078445D01*
X0196142Y0077871D02*
X0195750Y0076925D01*
X0195750Y0098319D01*
X0199902Y0098319D01*
X0203406Y0101823D01*
X0203406Y0101839D01*
X0204360Y0101444D01*
X0206740Y0101444D01*
X0208938Y0102354D01*
X0210621Y0104037D01*
X0211531Y0106235D01*
X0211531Y0108615D01*
X0210750Y0110500D01*
X0210750Y0123725D01*
X0211531Y0125610D01*
X0211531Y0125705D01*
X0214251Y0122985D01*
X0215318Y0122543D01*
X0216826Y0121035D01*
X0219325Y0120000D01*
X0222031Y0120000D01*
X0224530Y0121035D01*
X0224615Y0121120D01*
X0224700Y0121035D01*
X0227199Y0120000D01*
X0229905Y0120000D01*
X0232404Y0121035D01*
X0232489Y0121120D01*
X0232574Y0121035D01*
X0235073Y0120000D01*
X0237779Y0120000D01*
X0240278Y0121035D01*
X0240363Y0121120D01*
X0240448Y0121035D01*
X0242947Y0120000D01*
X0245653Y0120000D01*
X0248152Y0121035D01*
X0248237Y0121120D01*
X0248322Y0121035D01*
X0250821Y0120000D01*
X0253527Y0120000D01*
X0256026Y0121035D01*
X0256111Y0121120D01*
X0256196Y0121035D01*
X0258695Y0120000D01*
X0261401Y0120000D01*
X0263900Y0121035D01*
X0263985Y0121120D01*
X0264070Y0121035D01*
X0266569Y0120000D01*
X0268875Y0120000D01*
X0268875Y0115038D01*
X0233456Y0079619D01*
X0232106Y0078269D01*
X0231375Y0076505D01*
X0231375Y0071741D01*
X0229905Y0072350D01*
X0227199Y0072350D01*
X0224700Y0071315D01*
X0222944Y0069558D01*
X0222444Y0069813D01*
X0221755Y0070037D01*
X0221040Y0070150D01*
X0220678Y0070150D01*
X0220678Y0065550D01*
X0220678Y0065550D01*
X0220678Y0060950D01*
X0221040Y0060950D01*
X0221755Y0061063D01*
X0222444Y0061287D01*
X0222944Y0061542D01*
X0224700Y0059785D01*
X0227199Y0058750D01*
X0229905Y0058750D01*
X0232404Y0059785D01*
X0232489Y0059870D01*
X0232574Y0059785D01*
X0235073Y0058750D01*
X0237779Y0058750D01*
X0240278Y0059785D01*
X0240363Y0059870D01*
X0240448Y0059785D01*
X0242947Y0058750D01*
X0245653Y0058750D01*
X0248152Y0059785D01*
X0248237Y0059870D01*
X0248322Y0059785D01*
X0250821Y0058750D01*
X0253527Y0058750D01*
X0256026Y0059785D01*
X0256111Y0059870D01*
X0256196Y0059785D01*
X0258695Y0058750D01*
X0261401Y0058750D01*
X0263900Y0059785D01*
X0263985Y0059870D01*
X0264070Y0059785D01*
X0266569Y0058750D01*
X0269275Y0058750D01*
X0271774Y0059785D01*
X0272751Y0060762D01*
X0272751Y0037499D01*
X0272015Y0038234D01*
X0269442Y0039300D01*
X0266658Y0039300D01*
X0264085Y0038234D01*
X0262116Y0036265D01*
X0261748Y0035377D01*
X0261711Y0035427D01*
X0261177Y0035961D01*
X0260566Y0036405D01*
X0259893Y0036748D01*
X0259174Y0036982D01*
X0258428Y0037100D01*
X0258250Y0037100D01*
X0258250Y0029500D01*
X0257850Y0029500D01*
X0257850Y0037100D01*
X0257672Y0037100D01*
X0256926Y0036982D01*
X0256207Y0036748D01*
X0255534Y0036405D01*
X0254923Y0035961D01*
X0254389Y0035427D01*
X0254352Y0035377D01*
X0253984Y0036265D01*
X0252015Y0038234D01*
X0250461Y0038878D01*
X0244365Y0044974D01*
X0243099Y0046240D01*
X0241445Y0046925D01*
X0207550Y0046925D01*
X0207550Y0054942D01*
X0206484Y0057515D01*
X0204515Y0059484D01*
X0201942Y0060550D01*
X0199158Y0060550D01*
X0196585Y0059484D01*
X0195750Y0058649D01*
X0195750Y0064391D01*
X0198073Y0062069D01*
X0203027Y0062069D01*
X0206531Y0065573D01*
X0206531Y0070527D01*
X0205750Y0071309D01*
X0205750Y0072771D01*
X0213329Y0080350D01*
X0226041Y0080350D01*
X0226823Y0079569D01*
X0231777Y0079569D01*
X0235281Y0083073D01*
X0235281Y0088027D01*
X0231777Y0091531D01*
X0226823Y0091531D01*
X0226041Y0090750D01*
X0210141Y0090750D01*
X0208229Y0089958D01*
X0206767Y0088496D01*
X0196142Y0077871D01*
X0205750Y0072051D02*
X0226477Y0072051D01*
X0223838Y0070452D02*
X0206531Y0070452D01*
X0206531Y0068854D02*
X0217476Y0068854D01*
X0217681Y0069059D02*
X0217169Y0068547D01*
X0216744Y0067961D01*
X0216415Y0067316D01*
X0216191Y0066627D01*
X0216078Y0065912D01*
X0216078Y0065550D01*
X0220678Y0065550D01*
X0220678Y0065550D01*
X0220678Y0060950D01*
X0220316Y0060950D01*
X0219601Y0061063D01*
X0218912Y0061287D01*
X0218267Y0061616D01*
X0217681Y0062041D01*
X0217169Y0062553D01*
X0216744Y0063139D01*
X0216415Y0063784D01*
X0216191Y0064473D01*
X0216078Y0065188D01*
X0216078Y0065550D01*
X0220678Y0065550D01*
X0220678Y0070150D01*
X0220316Y0070150D01*
X0219601Y0070037D01*
X0218912Y0069813D01*
X0218267Y0069484D01*
X0217681Y0069059D01*
X0216395Y0067255D02*
X0206531Y0067255D01*
X0206531Y0065657D02*
X0216078Y0065657D01*
X0216326Y0064058D02*
X0205017Y0064058D01*
X0203418Y0062460D02*
X0217263Y0062460D01*
X0220678Y0062460D02*
X0220678Y0062460D01*
X0220678Y0064058D02*
X0220678Y0064058D01*
X0220678Y0065550D02*
X0220678Y0065550D01*
X0220678Y0065657D02*
X0220678Y0065657D01*
X0220678Y0067255D02*
X0220678Y0067255D01*
X0220678Y0068854D02*
X0220678Y0068854D01*
X0223624Y0060861D02*
X0195750Y0060861D01*
X0195750Y0059263D02*
X0196363Y0059263D01*
X0195750Y0062460D02*
X0197682Y0062460D01*
X0196083Y0064058D02*
X0195750Y0064058D01*
X0204737Y0059263D02*
X0225961Y0059263D01*
X0231143Y0059263D02*
X0233835Y0059263D01*
X0239017Y0059263D02*
X0241709Y0059263D01*
X0246891Y0059263D02*
X0249583Y0059263D01*
X0254765Y0059263D02*
X0257457Y0059263D01*
X0262639Y0059263D02*
X0265331Y0059263D01*
X0270513Y0059263D02*
X0272751Y0059263D01*
X0272751Y0057664D02*
X0206335Y0057664D01*
X0207085Y0056066D02*
X0272751Y0056066D01*
X0272751Y0054467D02*
X0207550Y0054467D01*
X0207550Y0052869D02*
X0272751Y0052869D01*
X0272751Y0051270D02*
X0207550Y0051270D01*
X0207550Y0049672D02*
X0272751Y0049672D01*
X0272751Y0048073D02*
X0207550Y0048073D01*
X0236175Y0065801D02*
X0236426Y0065550D01*
X0236175Y0065801D02*
X0236175Y0075550D01*
X0273675Y0113050D01*
X0273675Y0131800D01*
X0271800Y0133675D01*
X0224300Y0133675D01*
X0222253Y0135722D01*
X0222253Y0141131D01*
X0212253Y0151131D02*
X0212253Y0154128D01*
X0213362Y0155238D01*
X0210550Y0157738D01*
X0195550Y0157738D01*
X0192737Y0155238D01*
X0189925Y0157738D01*
X0146175Y0157738D01*
X0143363Y0155238D01*
X0140550Y0157738D01*
X0076800Y0157738D01*
X0072253Y0153503D01*
X0072253Y0151131D01*
X0072437Y0151315D02*
X0072068Y0151315D01*
X0072068Y0156431D01*
X0071836Y0156431D01*
X0071012Y0156300D01*
X0070218Y0156042D01*
X0069475Y0155664D01*
X0068800Y0155173D01*
X0068727Y0155100D01*
X0068611Y0155379D01*
X0066501Y0157489D01*
X0065845Y0157761D01*
X0078660Y0157761D01*
X0078004Y0157489D01*
X0075895Y0155379D01*
X0075779Y0155100D01*
X0075705Y0155173D01*
X0075809Y0155173D01*
X0075705Y0155173D02*
X0075031Y0155664D01*
X0074287Y0156042D01*
X0073494Y0156300D01*
X0072670Y0156431D01*
X0072437Y0156431D01*
X0072437Y0151315D01*
X0072437Y0151976D02*
X0072068Y0151976D01*
X0072068Y0153575D02*
X0072437Y0153575D01*
X0072437Y0155173D02*
X0072068Y0155173D01*
X0068800Y0155173D02*
X0068696Y0155173D01*
X0067218Y0156772D02*
X0077287Y0156772D01*
X0072253Y0141131D02*
X0072253Y0137597D01*
X0075550Y0134300D01*
X0113050Y0134300D01*
X0119300Y0128050D01*
X0115550Y0124300D02*
X0108675Y0131175D01*
X0065550Y0131175D01*
X0062253Y0134472D01*
X0062253Y0141131D01*
X0044753Y0140787D02*
X0036822Y0140787D01*
X0036161Y0141447D02*
X0032520Y0142955D01*
X0028580Y0142955D01*
X0024939Y0141447D01*
X0022153Y0138661D01*
X0022050Y0138413D01*
X0022050Y0157761D01*
X0048660Y0157761D01*
X0048004Y0157489D01*
X0045895Y0155379D01*
X0044753Y0152623D01*
X0044753Y0149639D01*
X0045734Y0147269D01*
X0045362Y0146897D01*
X0044753Y0145426D01*
X0044753Y0136835D01*
X0045350Y0135393D01*
X0045350Y0126945D01*
X0045096Y0127050D01*
X0038558Y0127050D01*
X0038947Y0127439D01*
X0040455Y0131080D01*
X0040455Y0135020D01*
X0038947Y0138661D01*
X0036161Y0141447D01*
X0033897Y0142385D02*
X0044753Y0142385D01*
X0044753Y0143984D02*
X0022050Y0143984D01*
X0022050Y0145582D02*
X0044817Y0145582D01*
X0045646Y0147181D02*
X0022050Y0147181D01*
X0022050Y0148779D02*
X0045109Y0148779D01*
X0044753Y0150378D02*
X0022050Y0150378D01*
X0022050Y0151976D02*
X0044753Y0151976D01*
X0045147Y0153575D02*
X0022050Y0153575D01*
X0022050Y0155173D02*
X0045809Y0155173D01*
X0047287Y0156772D02*
X0022050Y0156772D01*
X0022050Y0142385D02*
X0027203Y0142385D01*
X0024278Y0140787D02*
X0022050Y0140787D01*
X0022050Y0139188D02*
X0022680Y0139188D01*
X0022050Y0127687D02*
X0022153Y0127439D01*
X0024742Y0124850D01*
X0023850Y0124850D01*
X0023850Y0113850D01*
X0022250Y0113850D01*
X0022250Y0124850D01*
X0022050Y0124850D01*
X0022050Y0127687D01*
X0022050Y0126400D02*
X0023191Y0126400D01*
X0023850Y0124802D02*
X0022250Y0124802D01*
X0022250Y0123203D02*
X0023850Y0123203D01*
X0023850Y0121605D02*
X0022250Y0121605D01*
X0022250Y0120006D02*
X0023850Y0120006D01*
X0023850Y0118408D02*
X0022250Y0118408D01*
X0022250Y0116809D02*
X0023850Y0116809D01*
X0023850Y0115211D02*
X0022250Y0115211D01*
X0023850Y0113850D02*
X0029850Y0113850D01*
X0029850Y0123144D01*
X0030300Y0123144D01*
X0030300Y0102254D01*
X0030527Y0101705D01*
X0029251Y0101705D01*
X0029490Y0101945D01*
X0029727Y0102355D01*
X0029850Y0102813D01*
X0029850Y0112250D01*
X0023850Y0112250D01*
X0023850Y0113850D01*
X0023850Y0113612D02*
X0030300Y0113612D01*
X0030300Y0112014D02*
X0029850Y0112014D01*
X0029850Y0110415D02*
X0030300Y0110415D01*
X0030300Y0108817D02*
X0029850Y0108817D01*
X0029850Y0107218D02*
X0030300Y0107218D01*
X0030300Y0105620D02*
X0029850Y0105620D01*
X0029850Y0104021D02*
X0030300Y0104021D01*
X0030300Y0102423D02*
X0029745Y0102423D01*
X0027480Y0101250D02*
X0024939Y0100197D01*
X0022153Y0097411D01*
X0022050Y0097163D01*
X0022050Y0101250D01*
X0022250Y0101250D01*
X0022250Y0112250D01*
X0023850Y0112250D01*
X0023850Y0101250D01*
X0027480Y0101250D01*
X0026452Y0100824D02*
X0022050Y0100824D01*
X0022050Y0099226D02*
X0023967Y0099226D01*
X0022369Y0097627D02*
X0022050Y0097627D01*
X0022250Y0102423D02*
X0023850Y0102423D01*
X0023850Y0104021D02*
X0022250Y0104021D01*
X0022250Y0105620D02*
X0023850Y0105620D01*
X0023850Y0107218D02*
X0022250Y0107218D01*
X0022250Y0108817D02*
X0023850Y0108817D01*
X0023850Y0110415D02*
X0022250Y0110415D01*
X0022250Y0112014D02*
X0023850Y0112014D01*
X0029850Y0115211D02*
X0030300Y0115211D01*
X0030300Y0116809D02*
X0029850Y0116809D01*
X0029850Y0118408D02*
X0030300Y0118408D01*
X0030300Y0120006D02*
X0029850Y0120006D01*
X0029850Y0121605D02*
X0030300Y0121605D01*
X0039179Y0127999D02*
X0045350Y0127999D01*
X0045350Y0129597D02*
X0039841Y0129597D01*
X0040455Y0131196D02*
X0045350Y0131196D01*
X0045350Y0132794D02*
X0040455Y0132794D01*
X0040455Y0134393D02*
X0045350Y0134393D01*
X0045102Y0135991D02*
X0040053Y0135991D01*
X0039391Y0137590D02*
X0044753Y0137590D01*
X0044753Y0139188D02*
X0038420Y0139188D01*
X0096800Y0123050D02*
X0111175Y0123050D01*
X0114925Y0119300D01*
X0144300Y0119300D01*
X0149300Y0114300D01*
X0149300Y0104300D01*
X0144300Y0096800D02*
X0146175Y0094925D01*
X0163675Y0094925D01*
X0169300Y0100550D01*
X0169300Y0104300D01*
X0175281Y0104021D02*
X0185350Y0104021D01*
X0185350Y0102423D02*
X0175281Y0102423D01*
X0174283Y0100824D02*
X0185350Y0100824D01*
X0185350Y0099226D02*
X0173947Y0099226D01*
X0173165Y0097627D02*
X0185350Y0097627D01*
X0185350Y0096029D02*
X0171567Y0096029D01*
X0169968Y0094430D02*
X0174088Y0094430D01*
X0172353Y0092832D02*
X0168370Y0092832D01*
X0166771Y0091233D02*
X0170754Y0091233D01*
X0169156Y0089634D02*
X0138800Y0089634D01*
X0138800Y0088036D02*
X0167557Y0088036D01*
X0165959Y0086437D02*
X0138800Y0086437D01*
X0138800Y0084839D02*
X0163255Y0084839D01*
X0162066Y0083240D02*
X0138800Y0083240D01*
X0138800Y0081642D02*
X0161444Y0081642D01*
X0161444Y0080043D02*
X0138800Y0080043D01*
X0138800Y0078445D02*
X0161823Y0078445D01*
X0162670Y0076846D02*
X0138800Y0076846D01*
X0138800Y0075248D02*
X0164596Y0075248D01*
X0143079Y0091233D02*
X0138800Y0091233D01*
X0138800Y0092832D02*
X0141480Y0092832D01*
X0140086Y0094430D02*
X0138800Y0094430D01*
X0138800Y0096029D02*
X0139500Y0096029D01*
X0139500Y0097627D02*
X0139100Y0097627D01*
X0139100Y0099226D02*
X0139500Y0099226D01*
X0139500Y0100824D02*
X0139100Y0100824D01*
X0139100Y0102423D02*
X0139500Y0102423D01*
X0139500Y0104021D02*
X0139100Y0104021D01*
X0144300Y0096800D02*
X0144300Y0111800D01*
X0140550Y0115550D01*
X0111175Y0115550D01*
X0106175Y0110550D01*
X0106175Y0103648D01*
X0106175Y0092452D02*
X0108702Y0089925D01*
X0114300Y0089925D01*
X0154100Y0113612D02*
X0156247Y0113612D01*
X0154100Y0115211D02*
X0185350Y0115211D01*
X0185350Y0116809D02*
X0182768Y0116809D01*
X0184366Y0118408D02*
X0185350Y0118408D01*
X0185350Y0120006D02*
X0185031Y0120006D01*
X0185281Y0121605D02*
X0185350Y0121605D01*
X0185350Y0123203D02*
X0185193Y0123203D01*
X0185350Y0124802D02*
X0184531Y0124802D01*
X0185350Y0126400D02*
X0183158Y0126400D01*
X0185350Y0127999D02*
X0171531Y0127999D01*
X0171531Y0129597D02*
X0185350Y0129597D01*
X0185350Y0131196D02*
X0170980Y0131196D01*
X0169889Y0132794D02*
X0185350Y0132794D01*
X0178921Y0134393D02*
X0167453Y0134393D01*
X0167720Y0135991D02*
X0170919Y0135991D01*
X0172068Y0135991D02*
X0172437Y0135991D01*
X0173587Y0135991D02*
X0176786Y0135991D01*
X0172437Y0137590D02*
X0172068Y0137590D01*
X0172068Y0139188D02*
X0172437Y0139188D01*
X0172437Y0140787D02*
X0172068Y0140787D01*
X0192068Y0151315D02*
X0192068Y0156431D01*
X0191836Y0156431D01*
X0191012Y0156300D01*
X0190218Y0156042D01*
X0189475Y0155664D01*
X0188800Y0155173D01*
X0188727Y0155100D01*
X0188611Y0155379D01*
X0186501Y0157489D01*
X0185845Y0157761D01*
X0198660Y0157761D01*
X0198004Y0157489D01*
X0195895Y0155379D01*
X0195779Y0155100D01*
X0195705Y0155173D01*
X0195809Y0155173D01*
X0195705Y0155173D02*
X0195031Y0155664D01*
X0194287Y0156042D01*
X0193494Y0156300D01*
X0192670Y0156431D01*
X0192437Y0156431D01*
X0192437Y0151315D01*
X0192068Y0151315D01*
X0192253Y0151131D02*
X0192253Y0154753D01*
X0192737Y0155238D01*
X0192437Y0155173D02*
X0192068Y0155173D01*
X0192068Y0153575D02*
X0192437Y0153575D01*
X0192437Y0151976D02*
X0192068Y0151976D01*
X0188800Y0155173D02*
X0188696Y0155173D01*
X0187218Y0156772D02*
X0197287Y0156772D01*
X0205845Y0157761D02*
X0218660Y0157761D01*
X0218004Y0157489D01*
X0215895Y0155379D01*
X0215779Y0155100D01*
X0215705Y0155173D01*
X0215809Y0155173D01*
X0215705Y0155173D02*
X0215031Y0155664D01*
X0214287Y0156042D01*
X0213494Y0156300D01*
X0212670Y0156431D01*
X0212437Y0156431D01*
X0212437Y0151315D01*
X0212068Y0151315D01*
X0212068Y0156431D01*
X0211836Y0156431D01*
X0211012Y0156300D01*
X0210218Y0156042D01*
X0209475Y0155664D01*
X0208800Y0155173D01*
X0208727Y0155100D01*
X0208611Y0155379D01*
X0206501Y0157489D01*
X0205845Y0157761D01*
X0207218Y0156772D02*
X0217287Y0156772D01*
X0216175Y0157738D02*
X0213362Y0155238D01*
X0212437Y0155173D02*
X0212068Y0155173D01*
X0212068Y0153575D02*
X0212437Y0153575D01*
X0212437Y0151976D02*
X0212068Y0151976D01*
X0208800Y0155173D02*
X0208696Y0155173D01*
X0216175Y0157738D02*
X0247425Y0157738D01*
X0255550Y0151175D01*
X0249753Y0150378D02*
X0272751Y0150378D01*
X0272751Y0151976D02*
X0249753Y0151976D01*
X0249753Y0152623D02*
X0248611Y0155379D01*
X0246501Y0157489D01*
X0245845Y0157761D01*
X0272751Y0157761D01*
X0272751Y0138475D01*
X0246848Y0138475D01*
X0247164Y0139096D01*
X0247422Y0139890D01*
X0247553Y0140714D01*
X0247553Y0140946D01*
X0242437Y0140946D01*
X0242437Y0141315D01*
X0247553Y0141315D01*
X0247553Y0141548D01*
X0247422Y0142372D01*
X0247164Y0143165D01*
X0246786Y0143909D01*
X0246295Y0144583D01*
X0246222Y0144657D01*
X0246501Y0144773D01*
X0248611Y0146882D01*
X0249753Y0149639D01*
X0249753Y0152623D01*
X0249358Y0153575D02*
X0272751Y0153575D01*
X0272751Y0155173D02*
X0248696Y0155173D01*
X0247218Y0156772D02*
X0272751Y0156772D01*
X0272751Y0148779D02*
X0249397Y0148779D01*
X0248735Y0147181D02*
X0272751Y0147181D01*
X0272751Y0145582D02*
X0247311Y0145582D01*
X0246731Y0143984D02*
X0272751Y0143984D01*
X0272751Y0142385D02*
X0247418Y0142385D01*
X0247553Y0140787D02*
X0272751Y0140787D01*
X0272751Y0139188D02*
X0247194Y0139188D01*
X0245668Y0120006D02*
X0250806Y0120006D01*
X0253542Y0120006D02*
X0258680Y0120006D01*
X0261416Y0120006D02*
X0266554Y0120006D01*
X0268875Y0118408D02*
X0210750Y0118408D01*
X0210750Y0120006D02*
X0219310Y0120006D01*
X0222046Y0120006D02*
X0227184Y0120006D01*
X0229920Y0120006D02*
X0235058Y0120006D01*
X0237794Y0120006D02*
X0242932Y0120006D01*
X0261055Y0107218D02*
X0211531Y0107218D01*
X0211447Y0108817D02*
X0262653Y0108817D01*
X0264252Y0110415D02*
X0210785Y0110415D01*
X0210750Y0112014D02*
X0265850Y0112014D01*
X0267449Y0113612D02*
X0210750Y0113612D01*
X0210750Y0115211D02*
X0268875Y0115211D01*
X0268875Y0116809D02*
X0210750Y0116809D01*
X0210750Y0121605D02*
X0216257Y0121605D01*
X0214033Y0123203D02*
X0210750Y0123203D01*
X0211196Y0124802D02*
X0212434Y0124802D01*
X0197425Y0129925D02*
X0197425Y0104300D01*
X0202408Y0100824D02*
X0254661Y0100824D01*
X0256259Y0102423D02*
X0209006Y0102423D01*
X0210605Y0104021D02*
X0257858Y0104021D01*
X0259456Y0105620D02*
X0211276Y0105620D01*
X0200809Y0099226D02*
X0253062Y0099226D01*
X0251464Y0097627D02*
X0195750Y0097627D01*
X0195750Y0096029D02*
X0249865Y0096029D01*
X0248267Y0094430D02*
X0195750Y0094430D01*
X0195750Y0092832D02*
X0246668Y0092832D01*
X0245070Y0091233D02*
X0232076Y0091233D01*
X0233674Y0089634D02*
X0243471Y0089634D01*
X0241873Y0088036D02*
X0235273Y0088036D01*
X0235281Y0086437D02*
X0240274Y0086437D01*
X0238676Y0084839D02*
X0235281Y0084839D01*
X0235281Y0083240D02*
X0237077Y0083240D01*
X0235479Y0081642D02*
X0233850Y0081642D01*
X0233880Y0080043D02*
X0232252Y0080043D01*
X0233456Y0079619D02*
X0233456Y0079619D01*
X0232282Y0078445D02*
X0211424Y0078445D01*
X0213022Y0080043D02*
X0226348Y0080043D01*
X0231517Y0076846D02*
X0209825Y0076846D01*
X0208227Y0075248D02*
X0231375Y0075248D01*
X0231375Y0073649D02*
X0206628Y0073649D01*
X0203110Y0084839D02*
X0195750Y0084839D01*
X0195750Y0086437D02*
X0204709Y0086437D01*
X0206307Y0088036D02*
X0195750Y0088036D01*
X0195750Y0089634D02*
X0207906Y0089634D01*
X0195750Y0091233D02*
X0226524Y0091233D01*
X0230627Y0072051D02*
X0231375Y0072051D01*
X0242532Y0046475D02*
X0272751Y0046475D01*
X0272751Y0044876D02*
X0244463Y0044876D01*
X0244365Y0044974D02*
X0244365Y0044974D01*
X0246061Y0043278D02*
X0272751Y0043278D01*
X0272751Y0041679D02*
X0247660Y0041679D01*
X0249258Y0040081D02*
X0272751Y0040081D01*
X0272751Y0038482D02*
X0271417Y0038482D01*
X0264683Y0038482D02*
X0251417Y0038482D01*
X0253366Y0036884D02*
X0256624Y0036884D01*
X0257850Y0036884D02*
X0258250Y0036884D01*
X0259476Y0036884D02*
X0262734Y0036884D01*
X0258250Y0035285D02*
X0257850Y0035285D01*
X0257850Y0033687D02*
X0258250Y0033687D01*
X0258250Y0032088D02*
X0257850Y0032088D01*
X0257850Y0030490D02*
X0258250Y0030490D01*
X0185350Y0105620D02*
X0175281Y0105620D01*
X0174840Y0107218D02*
X0185350Y0107218D01*
X0185350Y0108817D02*
X0173242Y0108817D01*
X0165586Y0110415D02*
X0185350Y0110415D01*
X0185350Y0112014D02*
X0164486Y0112014D01*
X0162353Y0113612D02*
X0185350Y0113612D01*
X0175832Y0116809D02*
X0153456Y0116809D01*
X0128050Y0124300D02*
X0115550Y0124300D01*
X0142253Y0151131D02*
X0142253Y0154128D01*
X0143363Y0155238D01*
X0142437Y0155173D02*
X0142068Y0155173D01*
X0142068Y0156431D02*
X0141836Y0156431D01*
X0141012Y0156300D01*
X0140218Y0156042D01*
X0139475Y0155664D01*
X0138800Y0155173D01*
X0138727Y0155100D01*
X0138611Y0155379D01*
X0136501Y0157489D01*
X0135845Y0157761D01*
X0148660Y0157761D01*
X0148004Y0157489D01*
X0145895Y0155379D01*
X0145779Y0155100D01*
X0145705Y0155173D01*
X0145809Y0155173D01*
X0145705Y0155173D02*
X0145031Y0155664D01*
X0144287Y0156042D01*
X0143494Y0156300D01*
X0142670Y0156431D01*
X0142437Y0156431D01*
X0142437Y0151315D01*
X0142068Y0151315D01*
X0142068Y0156431D01*
X0138800Y0155173D02*
X0138696Y0155173D01*
X0137218Y0156772D02*
X0147287Y0156772D01*
X0142437Y0153575D02*
X0142068Y0153575D01*
X0142068Y0151976D02*
X0142437Y0151976D01*
X0046973Y0097998D02*
X0046923Y0097961D01*
X0046389Y0097427D01*
X0045945Y0096816D01*
X0045602Y0096143D01*
X0045368Y0095424D01*
X0045250Y0094678D01*
X0045250Y0094500D01*
X0052850Y0094500D01*
X0052850Y0094100D01*
X0045250Y0094100D01*
X0045250Y0093922D01*
X0045368Y0093176D01*
X0045602Y0092457D01*
X0045945Y0091784D01*
X0046389Y0091173D01*
X0046923Y0090639D01*
X0046973Y0090602D01*
X0046085Y0090234D01*
X0044500Y0088649D01*
X0044500Y0099050D01*
X0045096Y0099050D01*
X0045311Y0099139D01*
X0046085Y0098366D01*
X0046973Y0097998D01*
X0046589Y0097627D02*
X0044500Y0097627D01*
X0044500Y0096029D02*
X0045565Y0096029D01*
X0044500Y0094430D02*
X0052850Y0094430D01*
X0046345Y0091233D02*
X0044500Y0091233D01*
X0044500Y0089634D02*
X0045485Y0089634D01*
X0045480Y0092832D02*
X0044500Y0092832D01*
X0034100Y0082549D02*
X0034100Y0078017D01*
X0033566Y0078405D01*
X0032893Y0078748D01*
X0032174Y0078982D01*
X0031428Y0079100D01*
X0028250Y0079100D01*
X0028250Y0074500D01*
X0027850Y0074500D01*
X0027850Y0079100D01*
X0024672Y0079100D01*
X0023926Y0078982D01*
X0023207Y0078748D01*
X0022534Y0078405D01*
X0022050Y0078053D01*
X0022050Y0086437D01*
X0022153Y0086189D01*
X0024939Y0083403D01*
X0028580Y0081894D01*
X0032520Y0081894D01*
X0034100Y0082549D01*
X0034100Y0081642D02*
X0022050Y0081642D01*
X0022050Y0083240D02*
X0025330Y0083240D01*
X0023503Y0084839D02*
X0022050Y0084839D01*
X0022050Y0080043D02*
X0034100Y0080043D01*
X0034100Y0078445D02*
X0033488Y0078445D01*
X0028250Y0078445D02*
X0027850Y0078445D01*
X0027850Y0076846D02*
X0028250Y0076846D01*
X0028250Y0075248D02*
X0027850Y0075248D01*
X0022612Y0078445D02*
X0022050Y0078445D01*
X0046800Y0074300D02*
X0053050Y0074300D01*
X0044500Y0054951D02*
X0046085Y0053366D01*
X0046973Y0052998D01*
X0046923Y0052961D01*
X0046389Y0052427D01*
X0045945Y0051816D01*
X0045602Y0051143D01*
X0045368Y0050424D01*
X0045250Y0049678D01*
X0045250Y0049500D01*
X0052850Y0049500D01*
X0052850Y0049100D01*
X0045250Y0049100D01*
X0045250Y0048922D01*
X0045368Y0048176D01*
X0045602Y0047457D01*
X0045945Y0046784D01*
X0046389Y0046173D01*
X0046923Y0045639D01*
X0046973Y0045602D01*
X0046085Y0045234D01*
X0044500Y0043649D01*
X0044500Y0054951D01*
X0044500Y0054467D02*
X0044983Y0054467D01*
X0044500Y0052869D02*
X0046831Y0052869D01*
X0045667Y0051270D02*
X0044500Y0051270D01*
X0044500Y0049672D02*
X0045250Y0049672D01*
X0045402Y0048073D02*
X0044500Y0048073D01*
X0044500Y0046475D02*
X0046170Y0046475D01*
X0045727Y0044876D02*
X0044500Y0044876D01*
X0053250Y0049100D02*
X0053250Y0049500D01*
X0060850Y0049500D01*
X0060850Y0049678D01*
X0060732Y0050424D01*
X0060498Y0051143D01*
X0060155Y0051816D01*
X0059711Y0052427D01*
X0059177Y0052961D01*
X0059127Y0052998D01*
X0060015Y0053366D01*
X0060749Y0054100D01*
X0062134Y0054100D01*
X0062076Y0053883D01*
X0062076Y0051272D01*
X0066650Y0051272D01*
X0066650Y0049722D01*
X0062076Y0049722D01*
X0062076Y0047110D01*
X0062198Y0046652D01*
X0062435Y0046242D01*
X0062477Y0046200D01*
X0061610Y0045841D01*
X0060509Y0044740D01*
X0060015Y0045234D01*
X0059127Y0045602D01*
X0059177Y0045639D01*
X0059711Y0046173D01*
X0060155Y0046784D01*
X0060498Y0047457D01*
X0060732Y0048176D01*
X0060850Y0048922D01*
X0060850Y0049100D01*
X0053250Y0049100D01*
X0059269Y0052869D02*
X0062076Y0052869D01*
X0060433Y0051270D02*
X0066650Y0051270D01*
X0062076Y0049672D02*
X0060850Y0049672D01*
X0060698Y0048073D02*
X0062076Y0048073D01*
X0062301Y0046475D02*
X0059930Y0046475D01*
X0060373Y0044876D02*
X0060646Y0044876D01*
D22*
X0094925Y0061175D03*
X0103050Y0056800D03*
X0094300Y0077425D03*
X0167425Y0080550D03*
X0184300Y0089925D03*
X0205550Y0107425D03*
X0179300Y0121800D03*
X0165550Y0128675D03*
X0156800Y0126800D03*
X0128050Y0124300D03*
X0119300Y0128050D03*
X0057425Y0130550D03*
X0205550Y0126800D03*
X0161800Y0029925D03*
X0161800Y0024925D03*
D23*
X0159925Y0024925D01*
X0156800Y0026800D01*
X0156800Y0034300D01*
X0159925Y0037425D01*
X0186175Y0037425D01*
X0188050Y0035550D01*
X0188050Y0029300D01*
X0193675Y0021175D02*
X0198675Y0026175D01*
X0198675Y0028675D01*
X0198050Y0029300D01*
X0193675Y0021175D02*
X0081175Y0021175D01*
X0077372Y0024978D01*
X0077372Y0028675D01*
X0077425Y0028728D01*
X0134613Y0051487D02*
X0148675Y0037425D01*
X0156800Y0037425D01*
X0159300Y0039925D01*
X0233050Y0039925D01*
X0238050Y0034925D01*
X0238050Y0029300D01*
X0248050Y0029300D02*
X0248050Y0034925D01*
X0240550Y0042425D01*
X0158675Y0042425D01*
X0156800Y0040550D01*
X0153675Y0040550D01*
X0134300Y0059925D01*
X0134300Y0111800D01*
X0133050Y0113050D01*
X0120550Y0113050D01*
X0119300Y0111800D01*
X0119300Y0104300D01*
X0162253Y0151131D02*
X0167208Y0146175D01*
X0196175Y0146175D01*
X0197425Y0144925D01*
X0197425Y0137425D01*
X0199925Y0134925D01*
X0208675Y0134925D01*
X0216800Y0126800D01*
X0220678Y0126800D01*
D24*
X0197425Y0129925D03*
X0197425Y0104300D03*
X0169300Y0104300D03*
X0124300Y0073675D03*
X0114300Y0073675D03*
X0200550Y0068050D03*
X0229300Y0085550D03*
M02*
